<?xml version="1.0" encoding="utf-8"?>
<!-- Generator: Adobe Illustrator 16.0.3, SVG Export Plug-In . SVG Version: 6.00 Build 0)  -->
<!DOCTYPE svg PUBLIC "-//W3C//DTD SVG 1.1//EN" "http://www.w3.org/Graphics/SVG/1.1/DTD/svg11.dtd">
<svg version="1.1" id="Layer_1" xmlns="http://www.w3.org/2000/svg" xmlns:xlink="http://www.w3.org/1999/xlink" x="0px" y="0px"
	 width="518.74px" height="345.6px" viewBox="156.501 104.95 518.74 345.6" enable-background="new 156.501 104.95 518.74 345.6"
	 xml:space="preserve">
<g>
	<g>
		
			<line fill="none" stroke="#262626" stroke-linejoin="round" stroke-miterlimit="10" x1="349.5" y1="260.825" x2="483.359" y2="260.825"/>
	</g>
	<g>
		<path fill="#0072BD" d="M375.529,260.825v-38.354h-14.873v38.354H375.529z M427.585,260.825v60.05h14.872v-60.05H427.585z"/>
	</g>
	<g>
		<path fill="none" stroke="#000000" stroke-miterlimit="10" d="M360.656,260.825v-38.354h14.873v38.354H360.656z"/>
		<path fill="none" stroke="#000000" stroke-miterlimit="10" d="M427.585,260.825v60.05h14.872v-60.05H427.585z"/>
	</g>
	<g>
		<path fill="#D95319" d="M390.402,260.825v-0.891h-14.874v0.891H390.402z M442.457,260.825v58.524h14.874v-58.524H442.457z"/>
	</g>
	<g>
		<path fill="none" stroke="#000000" stroke-miterlimit="10" d="M375.529,260.825v-0.891h14.874v0.891H375.529z"/>
		<path fill="none" stroke="#000000" stroke-miterlimit="10" d="M442.457,260.825v58.524h14.874v-58.524H442.457z"/>
	</g>
	<g>
		<path fill="#EDB120" d="M390.402,260.825v11.403h14.873v-11.403H390.402z M457.331,260.825v51.962h14.873v-51.962H457.331z"/>
	</g>
	<g>
		<path fill="none" stroke="#000000" stroke-miterlimit="10" d="M390.402,260.825v11.403h14.873v-11.403H390.402z"/>
		<path fill="none" stroke="#000000" stroke-miterlimit="10" d="M457.331,260.825v51.962h14.873v-51.962H457.331z"/>
		
			<line fill="none" stroke="#000000" stroke-linejoin="round" stroke-miterlimit="10" x1="368.092" y1="222.471" x2="368.092" y2="233.805"/>
		
			<line fill="none" stroke="#000000" stroke-linejoin="round" stroke-miterlimit="10" x1="435.021" y1="320.875" x2="435.021" y2="332.115"/>
		
			<line fill="none" stroke="#000000" stroke-linejoin="round" stroke-miterlimit="10" x1="368.092" y1="222.471" x2="368.092" y2="211.136"/>
		
			<line fill="none" stroke="#000000" stroke-linejoin="round" stroke-miterlimit="10" x1="435.021" y1="320.875" x2="435.021" y2="309.637"/>
	</g>
	<g transform="translate(271.5278,133.4635)">
		<path d="M94.751,100.341h3.625"/>
	</g>
	<g transform="translate(271.5278,133.4635)">
		<path fill="none" stroke="#000000" stroke-miterlimit="10" d="M94.751,100.341h3.625"/>
	</g>
	<g transform="translate(493.0278,458.8173)">
		<path d="M-59.821-126.702h3.627"/>
	</g>
	<g transform="translate(493.0278,458.8173)">
		<path fill="none" stroke="#000000" stroke-miterlimit="10" d="M-59.821-126.702h3.627"/>
	</g>
	<g transform="translate(271.5278,58.4442)">
		<path d="M94.751,152.693h3.625"/>
	</g>
	<g transform="translate(271.5278,58.4442)">
		<path fill="none" stroke="#000000" stroke-miterlimit="10" d="M94.751,152.693h3.625"/>
	</g>
	<g transform="translate(493.0278,384.4252)">
		<path d="M-59.821-74.788h3.627"/>
	</g>
	<g transform="translate(493.0278,384.4252)">
		<path fill="none" stroke="#000000" stroke-miterlimit="10" d="M-59.821-74.788h3.627"/>
		
			<line fill="none" stroke="#000000" stroke-linejoin="round" stroke-miterlimit="10" x1="-110.063" y1="-124.491" x2="-110.063" y2="-110.676"/>
		
			<line fill="none" stroke="#000000" stroke-linejoin="round" stroke-miterlimit="10" x1="-43.133" y1="-65.076" x2="-43.133" y2="-51.597"/>
		
			<line fill="none" stroke="#000000" stroke-linejoin="round" stroke-miterlimit="10" x1="-110.063" y1="-124.491" x2="-110.063" y2="-138.306"/>
		
			<line fill="none" stroke="#000000" stroke-linejoin="round" stroke-miterlimit="10" x1="-43.133" y1="-65.076" x2="-43.133" y2="-78.55"/>
	</g>
	<g transform="translate(320.75,265.6586)">
		<path d="M60.402,8.09h3.627"/>
	</g>
	<g transform="translate(320.75,265.6586)">
		<path fill="none" stroke="#000000" stroke-miterlimit="10" d="M60.402,8.09h3.627"/>
	</g>
	<g transform="translate(542.25,461.1714)">
		<path d="M-94.169-128.343h3.626"/>
	</g>
	<g transform="translate(542.25,461.1714)">
		<path fill="none" stroke="#000000" stroke-miterlimit="10" d="M-94.169-128.343h3.626"/>
	</g>
	<g transform="translate(320.75,174.2189)">
		<path d="M60.402,71.901h3.627"/>
	</g>
	<g transform="translate(320.75,174.2189)">
		<path fill="none" stroke="#000000" stroke-miterlimit="10" d="M60.402,71.901h3.627"/>
	</g>
	<g transform="translate(542.25,371.9738)">
		<path d="M-94.169-66.099h3.626"/>
	</g>
	<g transform="translate(542.25,371.9738)">
		<path fill="none" stroke="#000000" stroke-miterlimit="10" d="M-94.169-66.099h3.626"/>
		
			<line fill="none" stroke="#000000" stroke-linejoin="round" stroke-miterlimit="10" x1="-144.411" y1="-99.745" x2="-144.411" y2="-80.159"/>
		
			<line fill="none" stroke="#000000" stroke-linejoin="round" stroke-miterlimit="10" x1="-77.481" y1="-59.187" x2="-77.481" y2="-45.316"/>
		
			<line fill="none" stroke="#000000" stroke-linejoin="round" stroke-miterlimit="10" x1="-144.411" y1="-99.745" x2="-144.411" y2="-119.332"/>
		
			<line fill="none" stroke="#000000" stroke-linejoin="round" stroke-miterlimit="10" x1="-77.481" y1="-59.187" x2="-77.481" y2="-73.058"/>
	</g>
	<g transform="translate(369.9722,325.4447)">
		<path d="M26.053-33.63h3.626"/>
	</g>
	<g transform="translate(369.9722,325.4447)">
		<path fill="none" stroke="#000000" stroke-miterlimit="10" d="M26.053-33.63h3.626"/>
	</g>
	<g transform="translate(591.4722,440.757)">
		<path d="M-128.517-114.099h3.626"/>
	</g>
	<g transform="translate(591.4722,440.757)">
		<path fill="none" stroke="#000000" stroke-miterlimit="10" d="M-128.517-114.099h3.626"/>
	</g>
	<g transform="translate(369.9722,195.8044)">
		<path d="M26.053,56.837h3.626"/>
	</g>
	<g transform="translate(369.9722,195.8044)">
		<path fill="none" stroke="#000000" stroke-miterlimit="10" d="M26.053,56.837h3.626"/>
	</g>
	<g transform="translate(591.4722,348.9471)">
		<path d="M-128.517-50.031h3.626"/>
	</g>
	<g transform="translate(591.4722,348.9471)">
		<path fill="none" stroke="#000000" stroke-miterlimit="10" d="M-128.517-50.031h3.626"/>
	</g>
	<g>
		
			<line fill="none" stroke="#262626" stroke-linecap="square" stroke-linejoin="round" stroke-miterlimit="10" x1="349.5" y1="340.027" x2="483.359" y2="340.027"/>
		
			<line fill="none" stroke="#262626" stroke-linecap="square" stroke-linejoin="round" stroke-miterlimit="10" x1="349.5" y1="206.168" x2="483.359" y2="206.168"/>
	</g>
	<g transform="translate(227,512)">
		<text transform="matrix(1 0 0 1 127.6372 -163.8154)" fill="#262626" font-family="'MyriadPro-Regular'" font-size="6.0013">R</text>
	</g>
	<g transform="translate(241,521)">
		<text transform="matrix(1 0 0 1 117.8672 -170.0957)" fill="#262626" font-family="'MyriadPro-Regular'" font-size="4.801">F</text>
	</g>
	<g transform="translate(290,512)">
		<text transform="matrix(1 0 0 1 83.6738 -163.8154)" fill="#262626" font-family="'MyriadPro-Regular'" font-size="6.0013">R</text>
	</g>
	<g transform="translate(304,521)">
		<text transform="matrix(1 0 0 1 73.9043 -170.0957)" fill="#262626" font-family="'MyriadPro-Regular'" font-size="4.801">S</text>
	</g>
	<g transform="translate(354,512)">
		<text transform="matrix(1 0 0 1 39.0117 -163.8154)" fill="#262626" font-family="'MyriadPro-Regular'" font-size="6.0013">R</text>
	</g>
	<g transform="translate(368,521)">
		<text transform="matrix(1 0 0 1 29.2422 -170.0957)" fill="#262626" font-family="'MyriadPro-Regular'" font-size="4.801">C</text>
	</g>
	<g transform="translate(463,512)">
		<text transform="matrix(1 0 0 1 -37.0527 -163.8154)" fill="#262626" font-family="'MyriadPro-Regular'" font-size="6.0013">P</text>
	</g>
	<g transform="translate(475,521)">
		<text transform="matrix(1 0 0 1 -45.4258 -170.0957)" fill="#262626" font-family="'MyriadPro-Regular'" font-size="4.801">F</text>
	</g>
	<g transform="translate(526,512)">
		<text transform="matrix(1 0 0 1 -81.0156 -163.8154)" fill="#262626" font-family="'MyriadPro-Regular'" font-size="6.0013">P</text>
	</g>
	<g transform="translate(538,521)">
		<text transform="matrix(1 0 0 1 -89.3896 -170.0957)" fill="#262626" font-family="'MyriadPro-Regular'" font-size="4.801">S</text>
	</g>
	<g transform="translate(590,512)">
		<text transform="matrix(1 0 0 1 -125.6777 -163.8154)" fill="#262626" font-family="'MyriadPro-Regular'" font-size="6.0013">P</text>
	</g>
	<g transform="translate(602,521)">
		<text transform="matrix(1 0 0 1 -134.0518 -170.0957)" fill="#262626" font-family="'MyriadPro-Regular'" font-size="4.801">C</text>
	</g>
	<g transform="translate(431.5002,526.9305)">
		<text transform="matrix(1 0 0 1 -39.5456 -167.8885)" fill="#262626" font-family="'MyriadPro-Regular'" font-size="6.6014">Task Condition</text>
	</g>
	<g>
		
			<line fill="none" stroke="#262626" stroke-linecap="square" stroke-linejoin="round" stroke-miterlimit="10" x1="349.5" y1="340.027" x2="349.5" y2="206.168"/>
		
			<line fill="none" stroke="#262626" stroke-linecap="square" stroke-linejoin="round" stroke-miterlimit="10" x1="483.359" y1="340.027" x2="483.359" y2="206.168"/>
	</g>
	<g transform="translate(202.0556,428.6232)">
		<text transform="matrix(1 0 0 1 135.0733 -103.5168)" fill="#262626" font-family="'MyriadPro-Regular'" font-size="6.0013">-15</text>
	</g>
	<g transform="translate(202.0556,360.0442)">
		<text transform="matrix(1 0 0 1 135.0733 -55.6604)" fill="#262626" font-family="'MyriadPro-Regular'" font-size="6.0013">-10</text>
	</g>
	<g transform="translate(202.0556,291.4651)">
		<text transform="matrix(1 0 0 1 139.0015 -7.803)" fill="#262626" font-family="'MyriadPro-Regular'" font-size="6.0013">-5</text>
	</g>
	<g transform="translate(202.0556,222.886)">
		<text transform="matrix(1 0 0 1 141.1163 40.0544)" fill="#262626" font-family="'MyriadPro-Regular'" font-size="6.0013">0</text>
	</g>
	<g transform="translate(202.0556,154.3069)">
		<text transform="matrix(1 0 0 1 141.1163 87.9104)" fill="#262626" font-family="'MyriadPro-Regular'" font-size="6.0013">5</text>
	</g>
	<g transform="translate(202.0556,85.7278)">
		<text transform="matrix(1 0 0 1 137.1885 135.7683)" fill="#262626" font-family="'MyriadPro-Regular'" font-size="6.0013">10</text>
	</g>
	<g transform="translate(163.0972,263.4998) rotate(-90)">
		<text transform="matrix(1 0 0 1 -36.0363 170.4179)" fill="#262626" font-family="'MyriadPro-Regular'" font-size="6.6014">BOLD Response</text>
	</g>
</g>
</svg>
