<?xml version="1.0" encoding="utf-8"?>
<!-- Generator: Adobe Illustrator 16.0.3, SVG Export Plug-In . SVG Version: 6.00 Build 0)  -->
<!DOCTYPE svg PUBLIC "-//W3C//DTD SVG 1.1//EN" "http://www.w3.org/Graphics/SVG/1.1/DTD/svg11.dtd">
<svg version="1.1" id="Layer_1" xmlns="http://www.w3.org/2000/svg" xmlns:xlink="http://www.w3.org/1999/xlink" x="0px" y="0px"
	 width="834px" height="554px" viewBox="0 0 834 554" enable-background="new 0 0 834 554" xml:space="preserve">
<g>
	<g>
		<g>
			<defs>
				<rect id="SVGID_1_" width="834" height="554"/>
			</defs>
			<clipPath id="SVGID_2_">
				<use xlink:href="#SVGID_1_"  overflow="visible"/>
			</clipPath>
			<rect clip-path="url(#SVGID_2_)" fill="#FFFFFF" width="834" height="554"/>
		</g>
	</g>
	<g>
		<rect fill="#FFFFFF" width="834" height="554"/>
		<path fill="#FFFFFF" d="M210,485h443V42H210V485z"/>
	</g>
	<g transform="translate(235,24)">
		<path d="M7.234-5.422c-0.802,0-1.404,0.138-1.805,0.414s-0.602,0.68-0.602,1.211c0,0.479,0.162,0.857,0.484,1.133
			S6.088-2.25,6.672-2.25c0.719,0,1.326-0.258,1.82-0.773s0.742-1.164,0.742-1.945v-0.453H7.234z M13.109-6.859V0H9.234v-1.781
			C8.724-1.052,8.146-0.521,7.5-0.188s-1.432,0.5-2.359,0.5c-1.24,0-2.248-0.365-3.023-1.094S0.953-2.453,0.953-3.609
			c0-1.406,0.484-2.44,1.453-3.102s2.49-0.992,4.563-0.992h2.266V-8c0-0.615-0.24-1.063-0.719-1.344S7.292-9.766,6.281-9.766
			c-0.833,0-1.604,0.083-2.313,0.25S2.604-9.104,2-8.781v-2.922c0.823-0.208,1.648-0.365,2.477-0.469s1.659-0.156,2.492-0.156
			c2.177,0,3.745,0.43,4.703,1.289S13.109-8.787,13.109-6.859z M26.303-11.656v3.141c-0.521-0.365-1.044-0.633-1.57-0.805
			s-1.07-0.258-1.633-0.258c-1.073,0-1.909,0.315-2.508,0.945S19.693-7.125,19.693-6s0.299,2,0.898,2.625s1.435,0.938,2.508,0.938
			c0.604,0,1.174-0.088,1.711-0.266s1.034-0.443,1.492-0.797v3.141c-0.594,0.229-1.201,0.398-1.82,0.508s-1.242,0.164-1.867,0.164
			c-2.167,0-3.862-0.557-5.086-1.672S15.693-4.021,15.693-6c0-1.99,0.612-3.542,1.836-4.656s2.919-1.672,5.086-1.672
			c0.625,0,1.245,0.057,1.859,0.172S25.699-11.875,26.303-11.656z M33.735-15.453v3.422h3.969v2.75h-3.969v5.109
			c0,0.552,0.112,0.927,0.336,1.125c0.224,0.198,0.664,0.297,1.32,0.297h1.969V0h-3.297c-1.51,0-2.583-0.318-3.219-0.953
			c-0.635-0.635-0.953-1.708-0.953-3.219v-5.109h-1.906v-2.75h1.906v-3.422H33.735z"/>
	</g>
	<g transform="translate(274,34)">
		<path d="M11.391-0.688c-0.583,0.313-1.195,0.544-1.836,0.695S8.25,0.234,7.563,0.234c-2.063,0-3.698-0.576-4.906-1.727
			S0.844-4.208,0.844-6.188s0.604-3.547,1.813-4.703s2.844-1.734,4.906-1.734c0.688,0,1.352,0.078,1.992,0.234
			s1.252,0.385,1.836,0.688v2.578c-0.594-0.406-1.177-0.703-1.75-0.891s-1.182-0.281-1.828-0.281c-1.135,0-2.029,0.365-2.68,1.094
			S4.156-7.469,4.156-6.188s0.326,2.287,0.977,3.016s1.544,1.094,2.68,1.094c0.646,0,1.255-0.094,1.828-0.281
			s1.156-0.484,1.75-0.891V-0.688z"/>
	</g>
	<g transform="translate(287,24)">
		<path d="M2.578-2.859h3.656v-10.359l-3.75,0.766v-2.813l3.719-0.766h3.938v13.172h3.656V0H2.578V-2.859z M23.293-12.641
			l-4.532,6.719h4.532V-12.641z M22.605-16.031h4.609v10.109h2.281v3h-2.281V0h-3.922v-2.922h-7.11v-3.547L22.605-16.031z"/>
	</g>
	<g transform="translate(318,34)">
		<path d="M8.328-6.766C8.067-6.891,7.81-6.982,7.555-7.039S7.042-7.125,6.781-7.125c-0.761,0-1.347,0.245-1.758,0.734
			S4.406-5.198,4.406-4.281V0H1.422v-9.297h2.984v1.531c0.375-0.615,0.81-1.06,1.305-1.336S6.802-9.516,7.5-9.516
			c0.094,0,0.2,0.002,0.32,0.008s0.289,0.023,0.508,0.055V-6.766z"/>
	</g>
	<g transform="translate(327,24)">
		<path d="M13.859-6.047v1.094h-9C4.953-4.047,5.281-3.37,5.844-2.922S7.188-2.25,8.188-2.25C9-2.25,9.831-2.37,10.68-2.609
			s1.716-0.604,2.602-1.094v2.969c-0.906,0.344-1.813,0.604-2.719,0.781S8.745,0.313,7.828,0.313c-2.177,0-3.867-0.555-5.07-1.664
			S0.953-4.01,0.953-6c0-1.969,0.591-3.516,1.773-4.641s2.81-1.688,4.883-1.688c1.896,0,3.411,0.57,4.547,1.711
			S13.859-7.953,13.859-6.047z M9.906-7.328c0-0.729-0.214-1.318-0.641-1.766S8.281-9.766,7.594-9.766
			c-0.739,0-1.344,0.208-1.813,0.625S5.021-8.12,4.906-7.328H9.906z M15.596-12.031h3.735l2.015,8.297l2.031-8.297h3.219
			l2.016,8.203l2.032-8.203h3.733L31.206,0h-4.204l-2.031-8.266L22.956,0h-4.204L15.596-12.031z"/>
	</g>
	<g transform="translate(362,34)">
		<path d="M1.563-12.391h8.625v2.406H4.75v2.313h5.109v2.422H4.75V0H1.563V-12.391z"/>
	</g>
	<g transform="translate(374,24)">
		<path d="M1.188-7.891h6.75v3.125h-6.75V-7.891z M22.254-15.531v3.391c-0.886-0.396-1.748-0.693-2.586-0.891
			c-0.839-0.198-1.628-0.297-2.367-0.297c-0.99,0-1.722,0.135-2.195,0.406c-0.475,0.271-0.711,0.693-0.711,1.266
			c0,0.427,0.158,0.76,0.477,1c0.317,0.24,0.898,0.448,1.742,0.625l1.75,0.359c1.791,0.354,3.063,0.896,3.813,1.625
			s1.125,1.766,1.125,3.109c0,1.771-0.523,3.088-1.57,3.953s-2.648,1.297-4.805,1.297c-1.021,0-2.045-0.096-3.07-0.289
			c-1.026-0.193-2.05-0.482-3.07-0.867v-3.484c1.021,0.542,2.01,0.951,2.969,1.227c0.958,0.276,1.88,0.414,2.766,0.414
			c0.906,0,1.599-0.151,2.078-0.453c0.479-0.302,0.719-0.729,0.719-1.281c0-0.5-0.164-0.888-0.492-1.164s-0.977-0.518-1.945-0.727
			L15.27-6.672c-1.604-0.344-2.776-0.891-3.516-1.641c-0.74-0.75-1.109-1.766-1.109-3.047c0-1.594,0.516-2.82,1.547-3.68
			s2.516-1.289,4.453-1.289c0.875,0,1.778,0.065,2.711,0.195C20.287-16.002,21.254-15.802,22.254-15.531z"/>
	</g>
	<g transform="translate(399,34)">
		<path d="M0.969-9.297h8.109v2.078L4.188-2.125h4.891V0H0.766v-2.078l4.891-5.094H0.969V-9.297z"/>
	</g>
	<g transform="translate(410,24)">
		<path d="M2.578-2.859h3.656v-10.359l-3.75,0.766v-2.813l3.719-0.766h3.938v13.172h3.656V0H2.578V-2.859z"/>
	</g>
	<g transform="translate(426,34)">
		<path d="M10.047-7.75c0.375-0.573,0.82-1.01,1.336-1.313s1.086-0.453,1.711-0.453c1.063,0,1.875,0.328,2.438,0.984
			s0.844,1.615,0.844,2.875V0h-3v-4.844c0.011-0.073,0.016-0.148,0.016-0.227s0-0.19,0-0.336c0-0.656-0.097-1.133-0.289-1.43
			s-0.503-0.445-0.93-0.445c-0.563,0-0.997,0.232-1.305,0.695s-0.466,1.138-0.477,2.023V0h-3v-4.844
			c0-1.031-0.089-1.695-0.266-1.992S6.636-7.281,6.188-7.281c-0.573,0-1.013,0.234-1.32,0.703s-0.461,1.135-0.461,2V0h-3v-9.297h3
			v1.359c0.364-0.521,0.781-0.914,1.25-1.18s0.989-0.398,1.563-0.398c0.646,0,1.214,0.154,1.703,0.461S9.786-8.313,10.047-7.75z"/>
	</g>
	<g transform="translate(445,24)">
		<path d="M7.234-5.422c-0.802,0-1.403,0.138-1.805,0.414s-0.602,0.68-0.602,1.211c0,0.479,0.161,0.857,0.484,1.133
			S6.089-2.25,6.672-2.25c0.719,0,1.325-0.258,1.82-0.773s0.742-1.164,0.742-1.945v-0.453H7.234z M13.109-6.859V0H9.234v-1.781
			C8.724-1.052,8.146-0.521,7.5-0.188s-1.433,0.5-2.359,0.5c-1.239,0-2.247-0.365-3.023-1.094S0.953-2.453,0.953-3.609
			c0-1.406,0.484-2.44,1.453-3.102s2.489-0.992,4.563-0.992h2.266V-8c0-0.615-0.239-1.063-0.719-1.344S7.292-9.766,6.281-9.766
			c-0.833,0-1.604,0.083-2.313,0.25S2.604-9.104,2-8.781v-2.922c0.823-0.208,1.648-0.365,2.477-0.469s1.659-0.156,2.492-0.156
			c2.177,0,3.745,0.43,4.703,1.289S13.109-8.787,13.109-6.859z M16.584-12.031h3.844V0h-3.844V-12.031z M16.584-16.719h3.844v3.141
			h-3.844V-16.719z M36.165-7.328V0h-3.859v-1.188v-4.422c0-1.042-0.023-1.758-0.07-2.148s-0.128-0.68-0.242-0.867
			c-0.146-0.25-0.349-0.445-0.609-0.586s-0.558-0.211-0.891-0.211c-0.802,0-1.433,0.31-1.891,0.93s-0.688,1.477-0.688,2.57V0h-3.844
			v-12.031h3.844v1.766c0.583-0.708,1.2-1.229,1.852-1.563s1.372-0.5,2.164-0.5c1.386,0,2.438,0.427,3.156,1.281
			S36.165-8.953,36.165-7.328z"/>
	</g>
	<g transform="translate(483,34)">
		<path d="M8.938-9v2.422C8.531-6.859,8.125-7.065,7.719-7.195S6.891-7.391,6.453-7.391c-0.823,0-1.466,0.242-1.93,0.727
			S3.828-5.505,3.828-4.641S4.06-3.102,4.523-2.617s1.106,0.727,1.93,0.727c0.469,0,0.911-0.068,1.328-0.203
			s0.802-0.338,1.156-0.609v2.422C8.479-0.104,8.011,0.026,7.531,0.109S6.567,0.234,6.078,0.234c-1.677,0-2.987-0.43-3.93-1.289
			S0.734-3.109,0.734-4.641s0.472-2.727,1.414-3.586s2.253-1.289,3.93-1.289c0.489,0,0.972,0.042,1.445,0.125S8.469-9.177,8.938-9z"
			/>
	</g>
	<g transform="translate(494,24)">
		<path d="M1.844-16.719h3.844V0H1.844V-16.719z M9.206-4.688v-7.344h3.875v1.203c0,0.656-0.005,1.477-0.016,2.461
			c-0.01,0.984-0.016,1.638-0.016,1.961c0,0.969,0.026,1.667,0.078,2.094s0.136,0.734,0.25,0.922
			c0.167,0.25,0.375,0.445,0.625,0.586s0.542,0.211,0.875,0.211c0.802,0,1.433-0.31,1.891-0.93S17.456-5,17.456-6.094v-5.938H21.3V0
			h-3.844v-1.734c-0.583,0.698-1.198,1.213-1.844,1.547s-1.359,0.5-2.141,0.5c-1.386,0-2.442-0.427-3.172-1.281
			S9.206-3.063,9.206-4.688z M34.288-11.656v2.922c-0.822-0.344-1.617-0.602-2.383-0.773s-1.492-0.258-2.18-0.258
			c-0.729,0-1.271,0.091-1.625,0.273c-0.354,0.182-0.531,0.466-0.531,0.852c0,0.302,0.136,0.537,0.406,0.703
			c0.271,0.167,0.75,0.287,1.438,0.359l0.688,0.094c1.969,0.26,3.292,0.677,3.969,1.25c0.678,0.573,1.016,1.469,1.016,2.688
			c0,1.281-0.471,2.245-1.414,2.891c-0.942,0.646-2.352,0.969-4.227,0.969c-0.802,0-1.625-0.063-2.469-0.188
			s-1.713-0.313-2.609-0.563v-2.922c0.761,0.375,1.545,0.654,2.352,0.836c0.808,0.182,1.628,0.273,2.461,0.273
			c0.75,0,1.315-0.104,1.695-0.313c0.381-0.208,0.57-0.516,0.57-0.922c0-0.344-0.133-0.599-0.398-0.766s-0.783-0.297-1.555-0.391
			l-0.688-0.094c-1.708-0.208-2.906-0.604-3.594-1.188s-1.031-1.463-1.031-2.641c0-1.271,0.438-2.216,1.313-2.836
			s2.214-0.93,4.016-0.93c0.709,0,1.453,0.055,2.234,0.164S33.372-11.885,34.288-11.656z M42.087-15.453v3.422h3.969v2.75h-3.969
			v5.109c0,0.552,0.112,0.927,0.336,1.125s0.664,0.297,1.32,0.297h1.969V0h-3.297c-1.511,0-2.583-0.318-3.219-0.953
			s-0.953-1.708-0.953-3.219v-5.109h-1.906v-2.75h1.906v-3.422H42.087z M60.342-6.047v1.094h-9c0.094,0.906,0.422,1.583,0.984,2.031
			S53.67-2.25,54.67-2.25c0.813,0,1.643-0.12,2.492-0.359c0.849-0.24,1.716-0.604,2.602-1.094v2.969
			c-0.906,0.344-1.813,0.604-2.719,0.781s-1.818,0.266-2.734,0.266c-2.178,0-3.867-0.555-5.07-1.664S47.436-4.01,47.436-6
			c0-1.969,0.591-3.516,1.773-4.641c1.182-1.125,2.81-1.688,4.883-1.688c1.896,0,3.411,0.57,4.547,1.711
			C59.773-9.477,60.342-7.953,60.342-6.047z M56.389-7.328c0-0.729-0.214-1.318-0.641-1.766c-0.428-0.448-0.984-0.672-1.672-0.672
			c-0.74,0-1.344,0.208-1.813,0.625s-0.761,1.021-0.875,1.813H56.389z M72.078-8.75c-0.333-0.156-0.667-0.273-1-0.352
			s-0.667-0.117-1-0.117c-0.989,0-1.753,0.318-2.289,0.953s-0.805,1.542-0.805,2.719V0h-3.844v-12.031h3.844v1.969
			c0.5-0.781,1.07-1.354,1.711-1.719s1.409-0.547,2.305-0.547c0.125,0,0.263,0.005,0.414,0.016s0.372,0.037,0.664,0.078V-8.75z
			 M78.413-3.047h7.047V0H73.804v-3.047l5.859-5.156c0.521-0.479,0.906-0.943,1.156-1.391S81.194-10.51,81.194-11
			c0-0.75-0.253-1.354-0.758-1.813S79.262-13.5,78.429-13.5c-0.646,0-1.352,0.138-2.117,0.414s-1.586,0.685-2.461,1.227v-3.531
			c0.938-0.302,1.859-0.534,2.766-0.695s1.797-0.242,2.672-0.242c1.917,0,3.406,0.422,4.469,1.266s1.594,2.021,1.594,3.531
			c0,0.875-0.224,1.69-0.672,2.445s-1.396,1.768-2.844,3.039L78.413-3.047z M102.107-5.422c-0.802,0-1.403,0.138-1.805,0.414
			s-0.602,0.68-0.602,1.211c0,0.479,0.161,0.857,0.484,1.133s0.776,0.414,1.359,0.414c0.719,0,1.325-0.258,1.82-0.773
			s0.742-1.164,0.742-1.945v-0.453H102.107z M107.982-6.859V0h-3.875v-1.781c-0.511,0.729-1.089,1.26-1.734,1.594
			s-1.433,0.5-2.359,0.5c-1.239,0-2.247-0.365-3.023-1.094s-1.164-1.672-1.164-2.828c0-1.406,0.484-2.44,1.453-3.102
			s2.489-0.992,4.563-0.992h2.266V-8c0-0.615-0.239-1.063-0.719-1.344s-1.224-0.422-2.234-0.422c-0.833,0-1.604,0.083-2.313,0.25
			s-1.364,0.412-1.969,0.734v-2.922c0.823-0.208,1.648-0.365,2.477-0.469s1.659-0.156,2.492-0.156c2.177,0,3.745,0.43,4.703,1.289
			S107.982-8.787,107.982-6.859z M121.176-11.656v3.141c-0.521-0.365-1.044-0.633-1.57-0.805s-1.07-0.258-1.633-0.258
			c-1.072,0-1.908,0.315-2.508,0.945c-0.599,0.63-0.898,1.508-0.898,2.633s0.3,2,0.898,2.625c0.6,0.625,1.436,0.938,2.508,0.938
			c0.604,0,1.175-0.088,1.711-0.266s1.034-0.443,1.492-0.797v3.141c-0.594,0.229-1.2,0.398-1.82,0.508s-1.242,0.164-1.867,0.164
			c-2.167,0-3.861-0.557-5.086-1.672c-1.224-1.115-1.836-2.662-1.836-4.641c0-1.99,0.612-3.542,1.836-4.656
			c1.225-1.115,2.919-1.672,5.086-1.672c0.625,0,1.245,0.057,1.859,0.172S120.571-11.875,121.176-11.656z M128.608-15.453v3.422
			h3.969v2.75h-3.969v5.109c0,0.552,0.112,0.927,0.336,1.125c0.225,0.198,0.664,0.297,1.32,0.297h1.969V0h-3.297
			c-1.51,0-2.583-0.318-3.219-0.953c-0.635-0.635-0.953-1.708-0.953-3.219v-5.109h-1.906v-2.75h1.906v-3.422H128.608z"/>
	</g>
	<g>
		
			<line fill="none" stroke="#262626" stroke-width="0.9931" stroke-linejoin="round" stroke-miterlimit="10" x1="210" y1="246.032" x2="653" y2="246.032"/>
	</g>
	<g>
		<path fill="#0072BD" d="M296.139,246.032V104.896h-49.222v141.137H296.139z M468.417,246.032v128.593h49.222V246.032H468.417z"/>
	</g>
	<g>
		<path fill="none" stroke="#000000" stroke-width="3.9722" stroke-miterlimit="10" d="M246.917,246.032V104.896h49.222v141.137
			H246.917z"/>
		<path fill="none" stroke="#000000" stroke-width="3.9722" stroke-miterlimit="10" d="M468.417,246.032v128.593h49.222V246.032
			H468.417z"/>
	</g>
	<g>
		<path fill="#D95319" d="M296.139,246.032v104.905h49.223V246.032H296.139z M517.639,246.032v176.932h49.223V246.032H517.639z"/>
	</g>
	<g>
		<path fill="none" stroke="#000000" stroke-width="3.9722" stroke-miterlimit="10" d="M296.139,246.032v104.905h49.223V246.032
			H296.139z"/>
		<path fill="none" stroke="#000000" stroke-width="3.9722" stroke-miterlimit="10" d="M517.639,246.032v176.932h49.223V246.032
			H517.639z"/>
	</g>
	<g>
		<path fill="#EDB120" d="M345.361,246.032v132.464h49.222V246.032H345.361z M566.861,246.032v135.58h49.222v-135.58H566.861z"/>
	</g>
	<g>
		<path fill="none" stroke="#000000" stroke-width="3.9722" stroke-miterlimit="10" d="M345.361,246.032v132.464h49.222V246.032
			H345.361z"/>
		<path fill="none" stroke="#000000" stroke-width="3.9722" stroke-miterlimit="10" d="M566.861,246.032v135.58h49.222v-135.58
			H566.861z"/>
		
			<line fill="none" stroke="#000000" stroke-width="3.9722" stroke-linejoin="round" stroke-miterlimit="10" x1="271.528" y1="104.896" x2="271.528" y2="149.243"/>
		
			<line fill="none" stroke="#000000" stroke-width="3.9722" stroke-linejoin="round" stroke-miterlimit="10" x1="493.027" y1="374.625" x2="493.027" y2="424.63"/>
		
			<line fill="none" stroke="#000000" stroke-width="3.9722" stroke-linejoin="round" stroke-miterlimit="10" x1="271.528" y1="104.896" x2="271.528" y2="60.548"/>
		
			<line fill="none" stroke="#000000" stroke-width="3.9722" stroke-linejoin="round" stroke-miterlimit="10" x1="493.027" y1="374.625" x2="493.027" y2="324.621"/>
	</g>
	<g transform="translate(271.5278,149.2429)">
		<path d="M-6,0H6"/>
	</g>
	<g transform="translate(271.5278,149.2429)">
		<path fill="none" stroke="#000000" stroke-width="3.9722" stroke-miterlimit="10" d="M-6,0H6"/>
	</g>
	<g transform="translate(493.0278,424.63)">
		<path d="M-6,0H6"/>
	</g>
	<g transform="translate(493.0278,424.63)">
		<path fill="none" stroke="#000000" stroke-width="3.9722" stroke-miterlimit="10" d="M-6,0H6"/>
	</g>
	<g transform="translate(271.5278,60.5484)">
		<path d="M-6,0H6"/>
	</g>
	<g transform="translate(271.5278,60.5484)">
		<path fill="none" stroke="#000000" stroke-width="3.9722" stroke-miterlimit="10" d="M-6,0H6"/>
	</g>
	<g transform="translate(493.0278,324.6212)">
		<path d="M-6,0H6"/>
	</g>
	<g transform="translate(493.0278,324.6212)">
		<path fill="none" stroke="#000000" stroke-width="3.9722" stroke-miterlimit="10" d="M-6,0H6"/>
		
			<line fill="none" stroke="#000000" stroke-width="3.9722" stroke-linejoin="round" stroke-miterlimit="10" x1="-172.278" y1="26.316" x2="-172.278" y2="66.865"/>
		
			<line fill="none" stroke="#000000" stroke-width="3.9722" stroke-linejoin="round" stroke-miterlimit="10" x1="49.222" y1="98.343" x2="49.222" y2="138.654"/>
		
			<line fill="none" stroke="#000000" stroke-width="3.9722" stroke-linejoin="round" stroke-miterlimit="10" x1="-172.278" y1="26.316" x2="-172.278" y2="-14.233"/>
		
			<line fill="none" stroke="#000000" stroke-width="3.9722" stroke-linejoin="round" stroke-miterlimit="10" x1="49.222" y1="98.343" x2="49.222" y2="58.031"/>
	</g>
	<g transform="translate(320.75,391.4858)">
		<path d="M-6,0.001H6"/>
	</g>
	<g transform="translate(320.75,391.4858)">
		<path fill="none" stroke="#000000" stroke-width="3.9722" stroke-miterlimit="10" d="M-6,0.001H6"/>
	</g>
	<g transform="translate(542.25,463.2757)">
		<path d="M-6,0H6"/>
	</g>
	<g transform="translate(542.25,463.2757)">
		<path fill="none" stroke="#000000" stroke-width="3.9722" stroke-miterlimit="10" d="M-6,0H6"/>
	</g>
	<g transform="translate(320.75,310.3888)">
		<path d="M-6,0H6"/>
	</g>
	<g transform="translate(320.75,310.3888)">
		<path fill="none" stroke="#000000" stroke-width="3.9722" stroke-miterlimit="10" d="M-6,0H6"/>
	</g>
	<g transform="translate(542.25,382.6527)">
		<path d="M-6,0H6"/>
	</g>
	<g transform="translate(542.25,382.6527)">
		<path fill="none" stroke="#000000" stroke-width="3.9722" stroke-miterlimit="10" d="M-6,0H6"/>
		
			<line fill="none" stroke="#000000" stroke-width="3.9722" stroke-linejoin="round" stroke-miterlimit="10" x1="-172.277" y1="-4.157" x2="-172.277" y2="58.426"/>
		
			<line fill="none" stroke="#000000" stroke-width="3.9722" stroke-linejoin="round" stroke-miterlimit="10" x1="49.223" y1="-1.04" x2="49.223" y2="47.943"/>
		
			<line fill="none" stroke="#000000" stroke-width="3.9722" stroke-linejoin="round" stroke-miterlimit="10" x1="-172.277" y1="-4.157" x2="-172.277" y2="-66.741"/>
		
			<line fill="none" stroke="#000000" stroke-width="3.9722" stroke-linejoin="round" stroke-miterlimit="10" x1="49.223" y1="-1.04" x2="49.223" y2="-50.025"/>
	</g>
	<g transform="translate(369.9722,441.079)">
		<path d="M-6,0H6"/>
	</g>
	<g transform="translate(369.9722,441.079)">
		<path fill="none" stroke="#000000" stroke-width="3.9722" stroke-miterlimit="10" d="M-6,0H6"/>
	</g>
	<g transform="translate(591.4722,430.5962)">
		<path d="M-6,0H6"/>
	</g>
	<g transform="translate(591.4722,430.5962)">
		<path fill="none" stroke="#000000" stroke-width="3.9722" stroke-miterlimit="10" d="M-6,0H6"/>
	</g>
	<g transform="translate(369.9722,315.9123)">
		<path d="M-6,0H6"/>
	</g>
	<g transform="translate(369.9722,315.9123)">
		<path fill="none" stroke="#000000" stroke-width="3.9722" stroke-miterlimit="10" d="M-6,0H6"/>
	</g>
	<g transform="translate(591.4722,332.6279)">
		<path d="M-6,0H6"/>
	</g>
	<g transform="translate(591.4722,332.6279)">
		<path fill="none" stroke="#000000" stroke-width="3.9722" stroke-miterlimit="10" d="M-6,0H6"/>
	</g>
	<g>
		
			<line fill="none" stroke="#262626" stroke-width="1.9861" stroke-linecap="square" stroke-linejoin="round" stroke-miterlimit="10" x1="210" y1="485" x2="653" y2="485"/>
		
			<line fill="none" stroke="#262626" stroke-width="1.9861" stroke-linecap="square" stroke-linejoin="round" stroke-miterlimit="10" x1="210" y1="42" x2="653" y2="42"/>
		
			<line fill="none" stroke="#262626" stroke-width="1.9861" stroke-linecap="square" stroke-linejoin="round" stroke-miterlimit="10" x1="238.795" y1="485" x2="238.795" y2="480.57"/>
		
			<line fill="none" stroke="#262626" stroke-width="1.9861" stroke-linecap="square" stroke-linejoin="round" stroke-miterlimit="10" x1="303.03" y1="485" x2="303.03" y2="480.57"/>
		
			<line fill="none" stroke="#262626" stroke-width="1.9861" stroke-linecap="square" stroke-linejoin="round" stroke-miterlimit="10" x1="367.265" y1="485" x2="367.265" y2="480.57"/>
		
			<line fill="none" stroke="#262626" stroke-width="1.9861" stroke-linecap="square" stroke-linejoin="round" stroke-miterlimit="10" x1="473.585" y1="485" x2="473.585" y2="480.57"/>
		
			<line fill="none" stroke="#262626" stroke-width="1.9861" stroke-linecap="square" stroke-linejoin="round" stroke-miterlimit="10" x1="537.82" y1="485" x2="537.82" y2="480.57"/>
		
			<line fill="none" stroke="#262626" stroke-width="1.9861" stroke-linecap="square" stroke-linejoin="round" stroke-miterlimit="10" x1="602.055" y1="485" x2="602.055" y2="480.57"/>
		
			<line fill="none" stroke="#262626" stroke-width="1.9861" stroke-linecap="square" stroke-linejoin="round" stroke-miterlimit="10" x1="238.795" y1="42" x2="238.795" y2="46.43"/>
		
			<line fill="none" stroke="#262626" stroke-width="1.9861" stroke-linecap="square" stroke-linejoin="round" stroke-miterlimit="10" x1="303.03" y1="42" x2="303.03" y2="46.43"/>
		
			<line fill="none" stroke="#262626" stroke-width="1.9861" stroke-linecap="square" stroke-linejoin="round" stroke-miterlimit="10" x1="367.265" y1="42" x2="367.265" y2="46.43"/>
		
			<line fill="none" stroke="#262626" stroke-width="1.9861" stroke-linecap="square" stroke-linejoin="round" stroke-miterlimit="10" x1="473.585" y1="42" x2="473.585" y2="46.43"/>
		
			<line fill="none" stroke="#262626" stroke-width="1.9861" stroke-linecap="square" stroke-linejoin="round" stroke-miterlimit="10" x1="537.82" y1="42" x2="537.82" y2="46.43"/>
		
			<line fill="none" stroke="#262626" stroke-width="1.9861" stroke-linecap="square" stroke-linejoin="round" stroke-miterlimit="10" x1="602.055" y1="42" x2="602.055" y2="46.43"/>
	</g>
	<g transform="translate(227,512)">
		<path fill="#262626" d="M8.875-6.844c0.427,0.146,0.841,0.453,1.242,0.922s0.799,1.114,1.195,1.938L13.328,0h-2.125L9.344-3.734
			C8.854-4.714,8.383-5.362,7.93-5.68s-1.07-0.477-1.852-0.477H3.938V0H1.969v-14.578h4.453c1.667,0,2.909,0.349,3.727,1.047
			s1.227,1.75,1.227,3.156c0,0.917-0.213,1.677-0.641,2.281S9.688-7.073,8.875-6.844z M3.938-12.953v5.172h2.484
			c0.948,0,1.664-0.222,2.148-0.664s0.727-1.086,0.727-1.93c0-0.854-0.242-1.497-0.727-1.93s-1.201-0.648-2.148-0.648H3.938z"/>
	</g>
	<g transform="translate(241,521)">
		<path fill="#262626" d="M1.578-11.672h6.703v1.328H3.156v3.438h4.625v1.328H3.156V0H1.578V-11.672z"/>
	</g>
	<g transform="translate(290,512)">
		<path fill="#262626" d="M8.875-6.844c0.427,0.146,0.841,0.453,1.242,0.922s0.799,1.114,1.195,1.938L13.328,0h-2.125L9.344-3.734
			C8.854-4.714,8.383-5.362,7.93-5.68s-1.07-0.477-1.852-0.477H3.938V0H1.969v-14.578h4.453c1.667,0,2.909,0.349,3.727,1.047
			s1.227,1.75,1.227,3.156c0,0.917-0.213,1.677-0.641,2.281S9.688-7.073,8.875-6.844z M3.938-12.953v5.172h2.484
			c0.948,0,1.664-0.222,2.148-0.664s0.727-1.086,0.727-1.93c0-0.854-0.242-1.497-0.727-1.93s-1.201-0.648-2.148-0.648H3.938z"/>
	</g>
	<g transform="translate(304,521)">
		<path fill="#262626" d="M8.563-11.281v1.531c-0.594-0.281-1.156-0.492-1.688-0.633s-1.047-0.211-1.547-0.211
			c-0.854,0-1.516,0.167-1.984,0.5S2.641-9.286,2.641-8.672c0,0.511,0.156,0.898,0.469,1.164s0.901,0.477,1.766,0.633l0.953,0.203
			C7.005-6.453,7.872-6.06,8.43-5.492s0.836,1.325,0.836,2.273c0,1.125-0.378,1.981-1.133,2.57S6.266,0.234,4.797,0.234
			c-0.552,0-1.138-0.065-1.758-0.195s-1.263-0.315-1.93-0.555v-1.625C1.745-1.786,2.37-1.519,2.984-1.336s1.219,0.273,1.813,0.273
			c0.906,0,1.604-0.177,2.094-0.531s0.734-0.859,0.734-1.516c0-0.573-0.177-1.021-0.531-1.344S6.161-5.016,5.359-5.172L4.406-5.359
			C3.229-5.599,2.378-5.969,1.852-6.469c-0.526-0.5-0.789-1.192-0.789-2.078c0-1.031,0.362-1.844,1.086-2.438
			c0.724-0.594,1.727-0.891,3.008-0.891c0.542,0,1.097,0.05,1.664,0.148S7.969-11.479,8.563-11.281z"/>
	</g>
	<g transform="translate(354,512)">
		<path fill="#262626" d="M8.875-6.844c0.427,0.146,0.841,0.453,1.242,0.922s0.8,1.114,1.195,1.938L13.328,0h-2.125L9.344-3.734
			C8.854-4.714,8.383-5.362,7.93-5.68s-1.07-0.477-1.852-0.477H3.938V0H1.969v-14.578h4.453c1.667,0,2.909,0.349,3.727,1.047
			s1.227,1.75,1.227,3.156c0,0.917-0.214,1.677-0.641,2.281S9.688-7.073,8.875-6.844z M3.938-12.953v5.172h2.484
			c0.948,0,1.664-0.222,2.148-0.664s0.727-1.086,0.727-1.93c0-0.854-0.242-1.497-0.727-1.93s-1.2-0.648-2.148-0.648H3.938z"/>
	</g>
	<g transform="translate(368,521)">
		<path fill="#262626" d="M10.313-10.766v1.656c-0.531-0.489-1.099-0.856-1.703-1.102s-1.245-0.367-1.922-0.367
			c-1.333,0-2.354,0.406-3.063,1.219S2.563-7.37,2.563-5.828s0.354,2.719,1.063,3.531s1.729,1.219,3.063,1.219
			c0.677,0,1.317-0.122,1.922-0.367s1.172-0.612,1.703-1.102v1.641C9.761-0.531,9.175-0.247,8.555-0.055S7.281,0.234,6.594,0.234
			c-1.761,0-3.148-0.542-4.164-1.625S0.906-3.953,0.906-5.828s0.508-3.352,1.523-4.43s2.403-1.617,4.164-1.617
			c0.698,0,1.356,0.091,1.977,0.273S9.771-11.141,10.313-10.766z"/>
	</g>
	<g transform="translate(463,512)">
		<path fill="#262626" d="M3.938-12.953v5.469h2.484c0.917,0,1.625-0.237,2.125-0.711s0.75-1.148,0.75-2.023s-0.25-1.55-0.75-2.023
			s-1.208-0.711-2.125-0.711H3.938z M1.969-14.578h4.453c1.636,0,2.87,0.37,3.703,1.109s1.25,1.823,1.25,3.25
			c0,1.438-0.417,2.523-1.25,3.258S8.058-5.859,6.422-5.859H3.938V0H1.969V-14.578z"/>
	</g>
	<g transform="translate(475,521)">
		<path fill="#262626" d="M1.578-11.672h6.703v1.328H3.156v3.438h4.625v1.328H3.156V0H1.578V-11.672z"/>
	</g>
	<g transform="translate(526,512)">
		<path fill="#262626" d="M3.938-12.953v5.469h2.484c0.917,0,1.625-0.237,2.125-0.711s0.75-1.148,0.75-2.023s-0.25-1.55-0.75-2.023
			s-1.208-0.711-2.125-0.711H3.938z M1.969-14.578h4.453c1.636,0,2.87,0.37,3.703,1.109s1.25,1.823,1.25,3.25
			c0,1.438-0.417,2.523-1.25,3.258S8.058-5.859,6.422-5.859H3.938V0H1.969V-14.578z"/>
	</g>
	<g transform="translate(538,521)">
		<path fill="#262626" d="M8.563-11.281v1.531c-0.594-0.281-1.156-0.492-1.688-0.633s-1.047-0.211-1.547-0.211
			c-0.854,0-1.516,0.167-1.984,0.5S2.641-9.286,2.641-8.672c0,0.511,0.156,0.898,0.469,1.164s0.901,0.477,1.766,0.633l0.953,0.203
			C7.005-6.453,7.872-6.06,8.43-5.492s0.836,1.325,0.836,2.273c0,1.125-0.378,1.981-1.133,2.57S6.266,0.234,4.797,0.234
			c-0.552,0-1.138-0.065-1.758-0.195s-1.263-0.315-1.93-0.555v-1.625C1.745-1.786,2.37-1.519,2.984-1.336s1.219,0.273,1.813,0.273
			c0.906,0,1.604-0.177,2.094-0.531s0.734-0.859,0.734-1.516c0-0.573-0.177-1.021-0.531-1.344S6.161-5.016,5.359-5.172L4.406-5.359
			C3.229-5.599,2.378-5.969,1.852-6.469S1.063-7.661,1.063-8.547c0-1.031,0.362-1.844,1.086-2.438s1.727-0.891,3.008-0.891
			c0.542,0,1.097,0.05,1.664,0.148S7.969-11.479,8.563-11.281z"/>
	</g>
	<g transform="translate(590,512)">
		<path fill="#262626" d="M3.938-12.953v5.469h2.484c0.917,0,1.625-0.237,2.125-0.711s0.75-1.148,0.75-2.023s-0.25-1.55-0.75-2.023
			s-1.208-0.711-2.125-0.711H3.938z M1.969-14.578h4.453c1.636,0,2.87,0.37,3.703,1.109s1.25,1.823,1.25,3.25
			c0,1.438-0.417,2.523-1.25,3.258S8.058-5.859,6.422-5.859H3.938V0H1.969V-14.578z"/>
	</g>
	<g transform="translate(602,521)">
		<path fill="#262626" d="M10.313-10.766v1.656c-0.531-0.489-1.099-0.856-1.703-1.102s-1.245-0.367-1.922-0.367
			c-1.333,0-2.354,0.406-3.063,1.219S2.563-7.37,2.563-5.828s0.354,2.719,1.063,3.531s1.729,1.219,3.063,1.219
			c0.677,0,1.317-0.122,1.922-0.367s1.172-0.612,1.703-1.102v1.641C9.761-0.531,9.175-0.247,8.555-0.055S7.281,0.234,6.594,0.234
			c-1.761,0-3.148-0.542-4.164-1.625S0.906-3.953,0.906-5.828s0.508-3.352,1.523-4.43s2.403-1.617,4.164-1.617
			c0.698,0,1.356,0.091,1.977,0.273S9.771-11.141,10.313-10.766z"/>
	</g>
	<g transform="translate(431.5002,526.9305)">
		<path fill="#262626" d="M-81.063,4.969H-67.5v1.813h-5.688V21h-2.188V6.781h-5.688V4.969z M-60.111,14.953
			c-1.604,0-2.713,0.182-3.327,0.547c-0.615,0.364-0.923,0.989-0.923,1.875c0,0.698,0.232,1.253,0.695,1.664
			c0.464,0.411,1.092,0.617,1.883,0.617c1.095,0,1.972-0.389,2.633-1.164c0.662-0.776,0.992-1.811,0.992-3.102v-0.438H-60.111z
			 M-56.173,14.141V21h-1.984v-1.828c-0.447,0.729-1.007,1.268-1.68,1.617c-0.672,0.349-1.497,0.523-2.476,0.523
			c-1.229,0-2.206-0.347-2.93-1.039c-0.725-0.693-1.086-1.617-1.086-2.773c0-1.354,0.453-2.375,1.358-3.063
			c0.906-0.688,2.256-1.031,4.047-1.031h2.766v-0.188c0-0.917-0.297-1.622-0.891-2.117c-0.593-0.495-1.432-0.742-2.515-0.742
			c-0.688,0-1.357,0.081-2.008,0.242c-0.651,0.161-1.279,0.409-1.883,0.742V9.516c0.719-0.281,1.419-0.492,2.101-0.633
			c0.683-0.141,1.347-0.211,1.992-0.211c1.74,0,3.039,0.453,3.898,1.359S-56.173,12.307-56.173,14.141z M-44.522,9.328v1.859
			c-0.563-0.281-1.146-0.495-1.75-0.641c-0.604-0.146-1.224-0.219-1.859-0.219c-0.989,0-1.729,0.15-2.219,0.453
			c-0.489,0.302-0.734,0.755-0.734,1.359c0,0.458,0.178,0.817,0.531,1.078c0.354,0.261,1.058,0.511,2.109,0.75l0.688,0.141
			c1.396,0.302,2.391,0.727,2.984,1.273s0.891,1.314,0.891,2.305c0,1.114-0.442,1.997-1.328,2.648
			c-0.885,0.65-2.099,0.977-3.641,0.977c-0.646,0-1.317-0.063-2.016-0.188c-0.697-0.125-1.438-0.313-2.219-0.563v-2.047
			c0.729,0.386,1.451,0.672,2.164,0.859c0.714,0.188,1.414,0.281,2.102,0.281c0.938,0,1.656-0.159,2.156-0.477
			c0.5-0.318,0.75-0.769,0.75-1.352c0-0.531-0.182-0.94-0.547-1.227c-0.364-0.286-1.156-0.565-2.375-0.836l-0.688-0.156
			c-1.229-0.261-2.114-0.656-2.656-1.188c-0.541-0.531-0.813-1.266-0.813-2.203c0-1.125,0.401-1.998,1.203-2.617
			c0.803-0.62,1.938-0.93,3.406-0.93c0.74,0,1.43,0.055,2.07,0.164S-45.073,9.11-44.522,9.328z M-40.891,4.281h1.984v9.875
			L-33,8.969h2.516l-6.375,5.625L-30.219,21h-2.578l-6.109-5.875V21h-1.984V4.281z M-9.125,6.203v2.281
			c-0.729-0.677-1.508-1.185-2.336-1.523s-1.706-0.508-2.633-0.508c-1.834,0-3.237,0.56-4.211,1.68
			c-0.975,1.119-1.461,2.742-1.461,4.867c0,2.114,0.486,3.731,1.461,4.852c0.974,1.119,2.377,1.68,4.211,1.68
			c0.927,0,1.805-0.17,2.633-0.508c0.828-0.339,1.606-0.847,2.336-1.523v2.266c-0.761,0.51-1.565,0.896-2.414,1.156
			c-0.85,0.26-1.748,0.391-2.695,0.391c-2.428,0-4.339-0.742-5.734-2.227c-1.396-1.484-2.094-3.513-2.094-6.086
			c0-2.584,0.697-4.617,2.094-6.102c1.396-1.484,3.307-2.227,5.734-2.227c0.958,0,1.861,0.128,2.711,0.383
			C-10.675,5.31-9.875,5.693-9.125,6.203z M-1.311,10.36c-1.063,0-1.901,0.411-2.516,1.234C-4.441,12.416-4.748,13.552-4.748,15
			c0,1.438,0.308,2.57,0.922,3.398s1.453,1.242,2.516,1.242c1.052,0,1.885-0.417,2.5-1.25C1.803,17.557,2.111,16.427,2.111,15
			s-0.308-2.558-0.922-3.391C0.574,10.777-0.259,10.36-1.311,10.36z M-1.311,8.672c1.719,0,3.067,0.56,4.047,1.68
			C3.715,11.471,4.205,13.021,4.205,15c0,1.969-0.49,3.513-1.469,4.633c-0.979,1.119-2.328,1.68-4.047,1.68
			c-1.729,0-3.081-0.561-4.055-1.68c-0.974-1.12-1.461-2.664-1.461-4.633c0-1.979,0.487-3.529,1.461-4.648
			C-4.392,9.232-3.04,8.672-1.311,8.672z M17.397,13.735V21h-1.984v-7.203c0-1.136-0.222-1.987-0.664-2.555
			c-0.442-0.568-1.106-0.852-1.992-0.852c-1.073,0-1.917,0.341-2.531,1.023s-0.922,1.611-0.922,2.789V21H7.319V8.969h1.984v1.875
			c0.469-0.729,1.026-1.273,1.672-1.633s1.386-0.539,2.219-0.539c1.386,0,2.433,0.43,3.141,1.289S17.397,12.078,17.397,13.735z
			 M29.148,10.797V4.281h1.984V21h-1.984v-1.813c-0.406,0.719-0.928,1.252-1.563,1.602c-0.636,0.349-1.396,0.523-2.281,0.523
			c-1.459,0-2.644-0.581-3.555-1.742c-0.912-1.162-1.367-2.686-1.367-4.57c0-1.896,0.455-3.425,1.367-4.586
			c0.911-1.161,2.096-1.742,3.555-1.742c0.885,0,1.646,0.175,2.281,0.523C28.22,9.544,28.742,10.078,29.148,10.797z M22.414,15
			c0,1.448,0.299,2.586,0.898,3.414c0.599,0.828,1.424,1.242,2.477,1.242c1.041,0,1.861-0.414,2.461-1.242
			c0.599-0.828,0.898-1.966,0.898-3.414c0-1.459-0.3-2.602-0.898-3.43c-0.6-0.828-1.42-1.242-2.461-1.242
			c-1.053,0-1.878,0.414-2.477,1.242C22.713,12.399,22.414,13.541,22.414,15z M35.107,8.969h1.969V21h-1.969V8.969z M35.107,4.281
			h1.969v2.5h-1.969V4.281z M43.13,5.547v3.422h4.063V10.5H43.13v6.531c0,0.979,0.132,1.609,0.397,1.891
			c0.267,0.281,0.811,0.422,1.634,0.422h2.031V21h-2.031c-1.521,0-2.571-0.284-3.149-0.852c-0.578-0.568-0.867-1.607-0.867-3.117
			V10.5h-1.452V8.969h1.452V5.547H43.13z M49.741,8.969h1.969V21h-1.969V8.969z M49.741,4.281h1.969v2.5h-1.969V4.281z
			 M60.466,10.36c-1.063,0-1.9,0.411-2.516,1.234c-0.614,0.822-0.922,1.958-0.922,3.406c0,1.438,0.308,2.57,0.922,3.398
			c0.615,0.828,1.453,1.242,2.516,1.242c1.053,0,1.886-0.417,2.5-1.25c0.615-0.834,0.922-1.964,0.922-3.391
			s-0.307-2.558-0.922-3.391C62.351,10.777,61.518,10.36,60.466,10.36z M60.466,8.672c1.719,0,3.068,0.56,4.047,1.68
			c0.979,1.119,1.469,2.669,1.469,4.648c0,1.969-0.489,3.513-1.469,4.633c-0.979,1.119-2.328,1.68-4.047,1.68
			c-1.729,0-3.08-0.561-4.055-1.68c-0.974-1.12-1.461-2.664-1.461-4.633c0-1.979,0.487-3.529,1.461-4.648
			C57.386,9.232,58.737,8.672,60.466,8.672z M79.174,13.735V21h-1.984v-7.203c0-1.136-0.221-1.987-0.664-2.555
			c-0.442-0.568-1.106-0.852-1.992-0.852c-1.072,0-1.916,0.341-2.531,1.023c-0.614,0.683-0.922,1.611-0.922,2.789V21h-1.984V8.969
			h1.984v1.875c0.469-0.729,1.026-1.273,1.672-1.633c0.646-0.359,1.386-0.539,2.219-0.539c1.386,0,2.433,0.43,3.141,1.289
			C78.82,10.82,79.174,12.078,79.174,13.735z"/>
	</g>
	<g>
		
			<line fill="none" stroke="#262626" stroke-width="1.9861" stroke-linecap="square" stroke-linejoin="round" stroke-miterlimit="10" x1="210" y1="485" x2="210" y2="42"/>
		
			<line fill="none" stroke="#262626" stroke-width="1.9861" stroke-linecap="square" stroke-linejoin="round" stroke-miterlimit="10" x1="653" y1="485" x2="653" y2="42"/>
		
			<line fill="none" stroke="#262626" stroke-width="1.9861" stroke-linecap="square" stroke-linejoin="round" stroke-miterlimit="10" x1="210" y1="456.676" x2="214.43" y2="456.676"/>
		
			<line fill="none" stroke="#262626" stroke-width="1.9861" stroke-linecap="square" stroke-linejoin="round" stroke-miterlimit="10" x1="210" y1="386.461" x2="214.43" y2="386.461"/>
		
			<line fill="none" stroke="#262626" stroke-width="1.9861" stroke-linecap="square" stroke-linejoin="round" stroke-miterlimit="10" x1="210" y1="316.247" x2="214.43" y2="316.247"/>
		
			<line fill="none" stroke="#262626" stroke-width="1.9861" stroke-linecap="square" stroke-linejoin="round" stroke-miterlimit="10" x1="210" y1="246.032" x2="214.43" y2="246.032"/>
		
			<line fill="none" stroke="#262626" stroke-width="1.9861" stroke-linecap="square" stroke-linejoin="round" stroke-miterlimit="10" x1="210" y1="175.818" x2="214.43" y2="175.818"/>
		
			<line fill="none" stroke="#262626" stroke-width="1.9861" stroke-linecap="square" stroke-linejoin="round" stroke-miterlimit="10" x1="210" y1="105.604" x2="214.43" y2="105.604"/>
		
			<line fill="none" stroke="#262626" stroke-width="1.9861" stroke-linecap="square" stroke-linejoin="round" stroke-miterlimit="10" x1="653" y1="456.676" x2="648.57" y2="456.676"/>
		
			<line fill="none" stroke="#262626" stroke-width="1.9861" stroke-linecap="square" stroke-linejoin="round" stroke-miterlimit="10" x1="653" y1="386.461" x2="648.57" y2="386.461"/>
		
			<line fill="none" stroke="#262626" stroke-width="1.9861" stroke-linecap="square" stroke-linejoin="round" stroke-miterlimit="10" x1="653" y1="316.247" x2="648.57" y2="316.247"/>
		
			<line fill="none" stroke="#262626" stroke-width="1.9861" stroke-linecap="square" stroke-linejoin="round" stroke-miterlimit="10" x1="653" y1="246.032" x2="648.57" y2="246.032"/>
		
			<line fill="none" stroke="#262626" stroke-width="1.9861" stroke-linecap="square" stroke-linejoin="round" stroke-miterlimit="10" x1="653" y1="175.818" x2="648.57" y2="175.818"/>
		
			<line fill="none" stroke="#262626" stroke-width="1.9861" stroke-linecap="square" stroke-linejoin="round" stroke-miterlimit="10" x1="653" y1="105.604" x2="648.57" y2="105.604"/>
	</g>
	<g transform="translate(202.0556,456.6761)">
		<path fill="#262626" d="M-32.016,0.718h5.25v1.609h-5.25V0.718z M-23.355,5.343h3.219V-5.782l-3.5,0.703v-1.797l3.484-0.703h1.969
			V5.343h3.219V7h-8.391V5.343z M-11.058-7.578h7.75v1.656h-5.938v3.578c0.281-0.104,0.565-0.18,0.852-0.227
			c0.286-0.047,0.575-0.07,0.867-0.07c1.625,0,2.914,0.445,3.867,1.336s1.43,2.102,1.43,3.633c0,1.563-0.49,2.779-1.469,3.648
			c-0.979,0.87-2.359,1.305-4.141,1.305c-0.604,0-1.224-0.052-1.859-0.156c-0.636-0.104-1.292-0.26-1.969-0.469V4.672
			c0.583,0.323,1.188,0.563,1.813,0.719s1.287,0.234,1.984,0.234c1.125,0,2.016-0.297,2.672-0.891s0.984-1.396,0.984-2.406
			c0-1.021-0.328-1.828-0.984-2.422s-1.547-0.891-2.672-0.891c-0.531,0-1.058,0.061-1.578,0.18C-9.97-0.685-10.506-0.5-11.058-0.25
			V-7.578z"/>
	</g>
	<g transform="translate(202.0556,386.4616)">
		<path fill="#262626" d="M-32.016,0.719h5.25v1.608h-5.25V0.719z M-23.355,5.344h3.219V-5.781l-3.5,0.702v-1.797l3.484-0.703h1.969
			V5.344h3.219v1.655h-8.391V5.344z M-6.855-6.281c-1.021,0-1.787,0.5-2.297,1.5s-0.766,2.5-0.766,4.5s0.255,3.5,0.766,4.5
			s1.276,1.5,2.297,1.5c1.021,0,1.786-0.5,2.297-1.5c0.51-1,0.766-2.5,0.766-4.5s-0.255-3.5-0.766-4.5
			C-5.069-5.781-5.834-6.281-6.855-6.281z M-6.855-7.844c1.635,0,2.883,0.646,3.742,1.938s1.289,3.167,1.289,5.625
			s-0.43,4.333-1.289,5.625S-5.22,7.281-6.855,7.281s-2.885-0.645-3.75-1.937s-1.297-3.167-1.297-5.625s0.432-4.333,1.297-5.625
			S-8.49-7.844-6.855-7.844z"/>
	</g>
	<g transform="translate(202.0556,316.247)">
		<path fill="#262626" d="M-19.016,0.719h5.25v1.609h-5.25V0.719z M-10.684-7.578h7.75v1.656h-5.938v3.578
			c0.281-0.104,0.565-0.18,0.852-0.227c0.287-0.047,0.576-0.07,0.867-0.07c1.625,0,2.914,0.445,3.867,1.336s1.43,2.102,1.43,3.633
			c0,1.563-0.489,2.778-1.469,3.648c-0.979,0.87-2.359,1.305-4.141,1.305c-0.604,0-1.224-0.052-1.859-0.156
			c-0.635-0.104-1.292-0.261-1.969-0.469V4.672c0.583,0.323,1.188,0.563,1.813,0.719s1.287,0.234,1.984,0.234
			c1.125,0,2.016-0.297,2.672-0.891S-3.84,3.339-3.84,2.328c0-1.021-0.328-1.828-0.984-2.422s-1.547-0.891-2.672-0.891
			c-0.531,0-1.057,0.06-1.578,0.18c-0.521,0.12-1.057,0.305-1.609,0.555V-7.578z"/>
	</g>
	<g transform="translate(202.0556,246.0325)">
		<path fill="#262626" d="M-6.641-6.281c-1.021,0-1.787,0.5-2.297,1.5s-0.766,2.5-0.766,4.5s0.255,3.5,0.766,4.5
			s1.276,1.5,2.297,1.5s1.786-0.5,2.297-1.5c0.51-1,0.766-2.5,0.766-4.5s-0.255-3.5-0.766-4.5C-4.854-5.781-5.62-6.281-6.641-6.281z
			 M-6.641-7.844c1.635,0,2.883,0.646,3.742,1.938c0.859,1.292,1.289,3.167,1.289,5.625c0,2.458-0.43,4.333-1.289,5.625
			c-0.859,1.292-2.107,1.937-3.742,1.937c-1.636,0-2.886-0.646-3.75-1.937c-0.865-1.292-1.297-3.167-1.297-5.625
			c0-2.458,0.432-4.333,1.297-5.625C-9.526-7.198-8.276-7.844-6.641-7.844z"/>
	</g>
	<g transform="translate(202.0556,175.818)">
		<path fill="#262626" d="M-10.844-7.578h7.75v1.656h-5.938v3.578C-8.75-2.448-8.466-2.524-8.18-2.57s0.576-0.07,0.867-0.07
			c1.625,0,2.914,0.445,3.867,1.336s1.43,2.102,1.43,3.633c0,1.563-0.49,2.779-1.469,3.648s-2.359,1.305-4.141,1.305
			c-0.604,0-1.224-0.052-1.859-0.156s-1.292-0.26-1.969-0.469V4.672c0.583,0.323,1.188,0.563,1.813,0.719s1.287,0.234,1.984,0.234
			c1.125,0,2.016-0.297,2.672-0.891S-4,3.339-4,2.328C-4,1.307-4.328,0.5-4.984-0.094s-1.547-0.891-2.672-0.891
			c-0.531,0-1.057,0.06-1.578,0.18c-0.521,0.12-1.057,0.305-1.609,0.555V-7.578z"/>
	</g>
	<g transform="translate(202.0556,105.6034)">
		<path fill="#262626" d="M-23.516,5.344h3.219V-5.781l-3.5,0.703v-1.797l3.484-0.703h1.969V5.344h3.219V7h-8.391V5.344z
			 M-7.016-6.281c-1.021,0-1.786,0.5-2.297,1.5c-0.51,1-0.766,2.5-0.766,4.5s0.255,3.5,0.766,4.5c0.511,1,1.276,1.5,2.297,1.5
			c1.021,0,1.787-0.5,2.297-1.5c0.511-1,0.766-2.5,0.766-4.5s-0.255-3.5-0.766-4.5C-5.229-5.781-5.995-6.281-7.016-6.281z
			 M-7.016-7.844c1.636,0,2.883,0.646,3.742,1.938c0.859,1.292,1.289,3.167,1.289,5.625c0,2.458-0.43,4.333-1.289,5.625
			C-4.133,6.635-5.38,7.281-7.016,7.281c-1.635,0-2.885-0.646-3.75-1.938c-0.864-1.292-1.297-3.167-1.297-5.625
			c0-2.458,0.433-4.333,1.297-5.625C-9.901-7.198-8.651-7.844-7.016-7.844z"/>
	</g>
	<g transform="translate(163.0972,263.4998) rotate(-90)">
		<path fill="#262626" d="M-83.172-13.656v5.875h3.484c1.167,0,2.031-0.242,2.594-0.727s0.844-1.227,0.844-2.227
			s-0.281-1.737-0.844-2.211s-1.427-0.711-2.594-0.711H-83.172z M-83.172-20.25v4.828h3.219c1.053,0,1.839-0.198,2.359-0.594
			c0.521-0.396,0.781-1.005,0.781-1.828c0-0.802-0.26-1.404-0.781-1.805c-0.521-0.401-1.307-0.602-2.359-0.602H-83.172z
			 M-85.344-22.031h5.547c1.656,0,2.933,0.344,3.828,1.031c0.896,0.688,1.344,1.662,1.344,2.922c0,0.979-0.229,1.76-0.688,2.344
			c-0.458,0.583-1.135,0.948-2.031,1.094c1.073,0.229,1.904,0.706,2.492,1.43c0.589,0.724,0.883,1.633,0.883,2.727
			c0,1.427-0.486,2.531-1.461,3.313C-76.404-6.391-77.786-6-79.578-6h-5.766V-22.031z M-63.842-20.563
			c-1.573,0-2.823,0.586-3.75,1.758c-0.928,1.172-1.391,2.773-1.391,4.805c0,2.021,0.463,3.617,1.391,4.789
			c0.927,1.172,2.177,1.758,3.75,1.758c1.572,0,2.82-0.586,3.742-1.758s1.383-2.768,1.383-4.789c0-2.031-0.461-3.633-1.383-4.805
			S-62.27-20.563-63.842-20.563z M-63.842-22.328c2.25,0,4.047,0.752,5.391,2.258s2.016,3.529,2.016,6.07
			c0,2.521-0.672,4.537-2.016,6.047s-3.141,2.266-5.391,2.266c-2.261,0-4.065-0.752-5.414-2.258
			c-1.35-1.505-2.023-3.523-2.023-6.055c0-2.542,0.674-4.565,2.023-6.07C-67.907-21.576-66.103-22.328-63.842-22.328z
			 M-53.164-22.031h2.172v14.203h7.813V-6h-9.984V-22.031z M-38.822-20.25v12.469h2.625c2.207,0,3.828-0.502,4.859-1.508
			s1.547-2.586,1.547-4.742s-0.516-3.732-1.547-4.727s-2.652-1.492-4.859-1.492H-38.822z M-40.994-22.031h4.469
			c3.104,0,5.383,0.646,6.836,1.938s2.18,3.313,2.18,6.063c0,2.76-0.73,4.789-2.188,6.086C-31.156-6.648-33.432-6-36.526-6h-4.469
			V-22.031z M-9.622-13.516c0.469,0.156,0.922,0.492,1.359,1.008s0.88,1.221,1.328,2.117L-4.731-6h-2.328l-2.063-4.109
			c-0.531-1.073-1.044-1.787-1.539-2.141c-0.495-0.354-1.175-0.531-2.039-0.531h-2.359V-6h-2.172v-16.031h4.906
			c1.833,0,3.2,0.383,4.102,1.148c0.901,0.766,1.352,1.919,1.352,3.461c0,1.01-0.234,1.849-0.703,2.516S-8.726-13.776-9.622-13.516z
			 M-15.059-20.25v5.688h2.734c1.042,0,1.831-0.242,2.367-0.727c0.536-0.484,0.805-1.195,0.805-2.133s-0.269-1.643-0.805-2.117
			c-0.537-0.474-1.326-0.711-2.367-0.711H-15.059z M8.149-12.516v0.969h-9.078c0.083,1.365,0.492,2.404,1.227,3.117
			s1.758,1.07,3.07,1.07c0.761,0,1.495-0.094,2.203-0.281C6.28-7.828,6.988-8.109,7.696-8.484v1.875
			c-0.708,0.302-1.435,0.531-2.18,0.688C4.772-5.766,4.014-5.688,3.243-5.688c-1.917,0-3.435-0.56-4.555-1.68
			c-1.12-1.12-1.68-2.627-1.68-4.523c0-1.979,0.531-3.547,1.594-4.703s2.495-1.734,4.297-1.734c1.625,0,2.906,0.521,3.844,1.563
			S8.149-14.307,8.149-12.516z M6.18-13.094c-0.021-1.083-0.325-1.945-0.914-2.586c-0.588-0.641-1.367-0.961-2.336-0.961
			c-1.104,0-1.989,0.31-2.656,0.93c-0.667,0.62-1.047,1.498-1.141,2.633L6.18-13.094z M18.979-17.672v1.859
			c-0.563-0.281-1.146-0.495-1.75-0.641c-0.604-0.146-1.224-0.219-1.859-0.219c-0.99,0-1.729,0.151-2.219,0.453
			c-0.49,0.302-0.734,0.755-0.734,1.359c0,0.458,0.177,0.818,0.531,1.078c0.354,0.26,1.058,0.51,2.11,0.75l0.688,0.141
			c1.396,0.302,2.391,0.727,2.984,1.273s0.891,1.315,0.891,2.305c0,1.115-0.443,1.998-1.328,2.648
			c-0.886,0.651-2.099,0.977-3.641,0.977c-0.646,0-1.318-0.063-2.016-0.188C11.937-6,11.198-6.188,10.417-6.438v-2.047
			c0.729,0.385,1.45,0.672,2.164,0.859c0.713,0.188,1.414,0.281,2.102,0.281c0.938,0,1.656-0.159,2.156-0.477s0.75-0.768,0.75-1.352
			c0-0.531-0.183-0.94-0.547-1.227c-0.365-0.287-1.156-0.565-2.375-0.836l-0.688-0.156c-1.229-0.26-2.115-0.656-2.657-1.188
			c-0.542-0.531-0.813-1.266-0.813-2.203c0-1.125,0.401-1.998,1.204-2.617c0.802-0.62,1.938-0.93,3.406-0.93
			c0.739,0,1.43,0.055,2.07,0.164C17.831-18.055,18.427-17.891,18.979-17.672z M24.594-7.813v6.391H22.61v-16.609h1.984v1.828
			c0.417-0.719,0.943-1.252,1.578-1.602s1.391-0.523,2.266-0.523c1.458,0,2.646,0.581,3.563,1.742
			c0.917,1.162,1.375,2.69,1.375,4.586c0,1.885-0.458,3.409-1.375,4.57c-0.917,1.162-2.104,1.742-3.563,1.742
			c-0.875,0-1.63-0.174-2.266-0.523S25.011-7.094,24.594-7.813z M31.313-12c0-1.458-0.297-2.602-0.891-3.43
			s-1.417-1.242-2.469-1.242c-1.042,0-1.862,0.414-2.461,1.242c-0.599,0.828-0.898,1.971-0.898,3.43
			c0,1.448,0.299,2.586,0.898,3.414c0.599,0.828,1.419,1.242,2.461,1.242c1.052,0,1.875-0.414,2.469-1.242S31.313-10.552,31.313-12z
			 M41.21-16.641c-1.063,0-1.901,0.412-2.516,1.234c-0.615,0.823-0.922,1.958-0.922,3.406c0,1.438,0.307,2.57,0.922,3.398
			c0.614,0.828,1.453,1.242,2.516,1.242c1.052,0,1.885-0.417,2.5-1.25c0.614-0.833,0.922-1.963,0.922-3.391
			s-0.308-2.557-0.922-3.391C43.095-16.224,42.262-16.641,41.21-16.641z M41.21-18.328c1.719,0,3.067,0.56,4.047,1.68
			c0.979,1.12,1.469,2.669,1.469,4.648c0,1.969-0.49,3.513-1.469,4.633c-0.979,1.12-2.328,1.68-4.047,1.68
			c-1.729,0-3.081-0.56-4.055-1.68c-0.974-1.12-1.461-2.664-1.461-4.633c0-1.979,0.487-3.529,1.461-4.648
			C38.129-17.768,39.48-18.328,41.21-18.328z M59.918-13.266V-6h-1.984v-7.203c0-1.135-0.222-1.987-0.664-2.555
			c-0.443-0.568-1.107-0.852-1.992-0.852c-1.073,0-1.917,0.341-2.531,1.023c-0.615,0.682-0.922,1.612-0.922,2.789V-6H49.84v-12.031
			h1.984v1.875c0.469-0.729,1.026-1.273,1.672-1.633c0.646-0.359,1.385-0.539,2.219-0.539c1.385,0,2.432,0.43,3.141,1.289
			C59.563-16.18,59.918-14.922,59.918-13.266z M71.434-17.672v1.859c-0.563-0.281-1.146-0.495-1.75-0.641s-1.224-0.219-1.859-0.219
			c-0.99,0-1.729,0.151-2.219,0.453s-0.734,0.755-0.734,1.359c0,0.458,0.177,0.818,0.531,1.078s1.057,0.51,2.109,0.75l0.688,0.141
			c1.396,0.302,2.391,0.727,2.984,1.273s0.891,1.315,0.891,2.305c0,1.115-0.443,1.998-1.328,2.648s-2.099,0.977-3.641,0.977
			c-0.646,0-1.318-0.063-2.016-0.188s-1.438-0.313-2.219-0.563v-2.047c0.729,0.385,1.451,0.672,2.164,0.859s1.414,0.281,2.102,0.281
			c0.938,0,1.656-0.159,2.156-0.477s0.75-0.768,0.75-1.352c0-0.531-0.182-0.94-0.547-1.227s-1.156-0.565-2.375-0.836l-0.688-0.156
			c-1.229-0.26-2.115-0.656-2.656-1.188s-0.813-1.266-0.813-2.203c0-1.125,0.401-1.998,1.203-2.617s1.938-0.93,3.406-0.93
			c0.74,0,1.43,0.055,2.07,0.164S70.882-17.891,71.434-17.672z M85.424-12.516v0.969h-9.078c0.083,1.365,0.492,2.404,1.227,3.117
			s1.758,1.07,3.07,1.07c0.761,0,1.495-0.094,2.203-0.281c0.708-0.188,1.417-0.469,2.125-0.844v1.875
			c-0.708,0.302-1.435,0.531-2.18,0.688c-0.745,0.156-1.502,0.234-2.273,0.234c-1.917,0-3.435-0.56-4.555-1.68
			c-1.12-1.12-1.68-2.627-1.68-4.523c0-1.979,0.531-3.547,1.594-4.703s2.495-1.734,4.297-1.734c1.625,0,2.906,0.521,3.844,1.563
			S85.424-14.307,85.424-12.516z M83.455-13.094c-0.021-1.083-0.325-1.945-0.914-2.586c-0.588-0.641-1.367-0.961-2.336-0.961
			c-1.104,0-1.989,0.31-2.656,0.93c-0.667,0.62-1.047,1.498-1.141,2.633L83.455-13.094z"/>
	</g>
	<g transform="translate(0,554)">
		<circle fill="#808080" cx="0" cy="0" r="3.973"/>
	</g>
	<g transform="translate(0,554)">
		<path fill="#FFFFDC" d="M0-3.973c2.194,0,3.972,1.779,3.972,3.973l0,0c0,2.193-1.778,3.973-3.972,3.973S-3.972,2.193-3.972,0
			S-2.194-3.973,0-3.973z M0-5.958c-3.291,0-5.958,2.667-5.958,5.958S-3.291,5.958,0,5.958S5.958,3.291,5.958,0l0,0
			C5.958-3.291,3.291-5.958,0-5.958z"/>
	</g>
</g>
<image overflow="visible" width="1952" height="1818" xlink:href="VS_replication_brainimage.png"  transform="matrix(1 0 0 1 -715 -967)">
</image>
<image overflow="visible" width="1952" height="1818" xlink:href="VS_replication_overlay_seed_brainimage.png"  transform="matrix(1 0 0 1 1237 -967)">
</image>
</svg>
