<?xml version="1.0" encoding="utf-8"?>
<!-- Generator: Adobe Illustrator 16.0.3, SVG Export Plug-In . SVG Version: 6.00 Build 0)  -->
<!DOCTYPE svg PUBLIC "-//W3C//DTD SVG 1.1//EN" "http://www.w3.org/Graphics/SVG/1.1/DTD/svg11.dtd">
<svg version="1.1" id="Layer_1" xmlns="http://www.w3.org/2000/svg" xmlns:xlink="http://www.w3.org/1999/xlink" x="0px" y="0px"
	 width="834px" height="554px" viewBox="0 0 834 554" enable-background="new 0 0 834 554" xml:space="preserve">
<g>
	<g>
		
			<line fill="none" stroke="#262626" stroke-linejoin="round" stroke-miterlimit="10" x1="350.419" y1="433.552" x2="492.422" y2="433.552"/>
	</g>
	<g>
		<path fill="#0072BD" d="M378.031,433.552v-38.483h-15.778v38.483H378.031z M433.254,433.552v13.714h15.778v-13.714H433.254z"/>
	</g>
	<g>
		<path fill="none" stroke="#000000" stroke-miterlimit="10" d="M362.253,433.552v-38.483h15.778v38.483H362.253z"/>
		<path fill="none" stroke="#000000" stroke-miterlimit="10" d="M433.254,433.552v13.714h15.778v-13.714H433.254z"/>
	</g>
	<g>
		<path fill="#D95319" d="M378.031,433.552v13.766h15.778v-13.766H378.031z M449.032,433.552v9.616h15.778v-9.616H449.032z"/>
	</g>
	<g>
		<path fill="none" stroke="#000000" stroke-miterlimit="10" d="M378.031,433.552v13.766h15.778v-13.766H378.031z"/>
		<path fill="none" stroke="#000000" stroke-miterlimit="10" d="M449.032,433.552v9.616h15.778v-9.616H449.032z"/>
	</g>
	<g>
		<path fill="#EDB120" d="M393.809,433.552v55.671h15.778v-55.671H393.809z M480.588,433.552v-2.166h-15.777v2.166H480.588z"/>
	</g>
	<g>
		<path fill="none" stroke="#000000" stroke-miterlimit="10" d="M393.809,433.552v55.671h15.778v-55.671H393.809z"/>
		<path fill="none" stroke="#000000" stroke-miterlimit="10" d="M464.811,433.552v-2.166h15.777v2.166H464.811z"/>
		
			<line fill="none" stroke="#000000" stroke-linejoin="round" stroke-miterlimit="10" x1="370.142" y1="395.068" x2="370.142" y2="410.44"/>
		
			<line fill="none" stroke="#000000" stroke-linejoin="round" stroke-miterlimit="10" x1="441.143" y1="447.266" x2="441.143" y2="460.721"/>
		
			<line fill="none" stroke="#000000" stroke-linejoin="round" stroke-miterlimit="10" x1="370.142" y1="395.068" x2="370.142" y2="379.695"/>
		
			<line fill="none" stroke="#000000" stroke-linejoin="round" stroke-miterlimit="10" x1="441.143" y1="447.266" x2="441.143" y2="433.812"/>
	</g>
	<g transform="translate(271.5278,154.7167)">
		<path d="M96.691,255.724h3.847"/>
	</g>
	<g transform="translate(271.5278,154.7167)">
		<path fill="none" stroke="#000000" stroke-miterlimit="10" d="M96.691,255.724h3.847"/>
	</g>
	<g transform="translate(493.0278,311.5725)">
		<path d="M-53.808,149.148h3.847"/>
	</g>
	<g transform="translate(493.0278,311.5725)">
		<path fill="none" stroke="#000000" stroke-miterlimit="10" d="M-53.808,149.148h3.847"/>
	</g>
	<g transform="translate(271.5278,58.8011)">
		<path d="M96.691,320.894h3.847"/>
	</g>
	<g transform="translate(271.5278,58.8011)">
		<path fill="none" stroke="#000000" stroke-miterlimit="10" d="M96.691,320.894h3.847"/>
	</g>
	<g transform="translate(493.0278,227.6231)">
		<path d="M-53.808,206.188h3.847"/>
	</g>
	<g transform="translate(493.0278,227.6231)">
		<path fill="none" stroke="#000000" stroke-miterlimit="10" d="M-53.808,206.188h3.847"/>
		
			<line fill="none" stroke="#000000" stroke-linejoin="round" stroke-miterlimit="10" x1="-107.108" y1="219.694" x2="-107.108" y2="235.698"/>
		
			<line fill="none" stroke="#000000" stroke-linejoin="round" stroke-miterlimit="10" x1="-36.107" y1="215.545" x2="-36.107" y2="228.918"/>
		
			<line fill="none" stroke="#000000" stroke-linejoin="round" stroke-miterlimit="10" x1="-107.108" y1="219.694" x2="-107.108" y2="203.69"/>
		
			<line fill="none" stroke="#000000" stroke-linejoin="round" stroke-miterlimit="10" x1="-36.107" y1="215.545" x2="-36.107" y2="202.172"/>
	</g>
	<g transform="translate(320.75,319.6859)">
		<path d="M63.247,143.635h3.847"/>
	</g>
	<g transform="translate(320.75,319.6859)">
		<path fill="none" stroke="#000000" stroke-miterlimit="10" d="M63.247,143.635h3.847"/>
	</g>
	<g transform="translate(542.25,298.5334)">
		<path d="M-87.252,158.008h3.847"/>
	</g>
	<g transform="translate(542.25,298.5334)">
		<path fill="none" stroke="#000000" stroke-miterlimit="10" d="M-87.252,158.008h3.847"/>
	</g>
	<g transform="translate(320.75,219.8327)">
		<path d="M63.247,211.481h3.847"/>
	</g>
	<g transform="translate(320.75,219.8327)">
		<path fill="none" stroke="#000000" stroke-miterlimit="10" d="M63.247,211.481h3.847"/>
	</g>
	<g transform="translate(542.25,215.0955)">
		<path d="M-87.252,214.699h3.847"/>
	</g>
	<g transform="translate(542.25,215.0955)">
		<path fill="none" stroke="#000000" stroke-miterlimit="10" d="M-87.252,214.699h3.847"/>
		
			<line fill="none" stroke="#000000" stroke-linejoin="round" stroke-miterlimit="10" x1="-140.552" y1="274.127" x2="-140.552" y2="293.693"/>
		
			<line fill="none" stroke="#000000" stroke-linejoin="round" stroke-miterlimit="10" x1="-69.551" y1="216.29" x2="-69.551" y2="231.904"/>
		
			<line fill="none" stroke="#000000" stroke-linejoin="round" stroke-miterlimit="10" x1="-140.552" y1="274.127" x2="-140.552" y2="254.561"/>
		
			<line fill="none" stroke="#000000" stroke-linejoin="round" stroke-miterlimit="10" x1="-69.551" y1="216.29" x2="-69.551" y2="200.675"/>
	</g>
	<g transform="translate(369.9722,461.5284)">
		<path d="M29.802,47.26h3.847"/>
	</g>
	<g transform="translate(369.9722,461.5284)">
		<path fill="none" stroke="#000000" stroke-miterlimit="10" d="M29.802,47.26h3.847"/>
	</g>
	<g transform="translate(591.4722,268.7689)">
		<path d="M-120.696,178.231h3.847"/>
	</g>
	<g transform="translate(591.4722,268.7689)">
		<path fill="none" stroke="#000000" stroke-miterlimit="10" d="M-120.696,178.231h3.847"/>
	</g>
	<g transform="translate(369.9722,339.4482)">
		<path d="M29.802,130.208h3.847"/>
	</g>
	<g transform="translate(369.9722,339.4482)">
		<path fill="none" stroke="#000000" stroke-miterlimit="10" d="M29.802,130.208h3.847"/>
	</g>
	<g transform="translate(591.4722,171.3445)">
		<path d="M-120.696,244.426h3.847"/>
	</g>
	<g transform="translate(591.4722,171.3445)">
		<path fill="none" stroke="#000000" stroke-miterlimit="10" d="M-120.696,244.426h3.847"/>
	</g>
	<g>
		
			<line fill="none" stroke="#262626" stroke-linecap="square" stroke-linejoin="round" stroke-miterlimit="10" x1="350.419" y1="516.313" x2="492.422" y2="516.313"/>
		
			<line fill="none" stroke="#262626" stroke-linecap="square" stroke-linejoin="round" stroke-miterlimit="10" x1="350.419" y1="374.311" x2="492.422" y2="374.311"/>
		
			<line fill="none" stroke="#262626" stroke-linecap="square" stroke-linejoin="round" stroke-miterlimit="10" x1="359.649" y1="516.313" x2="359.649" y2="514.893"/>
		
			<line fill="none" stroke="#262626" stroke-linecap="square" stroke-linejoin="round" stroke-miterlimit="10" x1="380.24" y1="516.313" x2="380.24" y2="514.893"/>
		
			<line fill="none" stroke="#262626" stroke-linecap="square" stroke-linejoin="round" stroke-miterlimit="10" x1="400.83" y1="516.313" x2="400.83" y2="514.893"/>
		
			<line fill="none" stroke="#262626" stroke-linecap="square" stroke-linejoin="round" stroke-miterlimit="10" x1="434.911" y1="516.313" x2="434.911" y2="514.893"/>
		
			<line fill="none" stroke="#262626" stroke-linecap="square" stroke-linejoin="round" stroke-miterlimit="10" x1="455.502" y1="516.313" x2="455.502" y2="514.893"/>
		
			<line fill="none" stroke="#262626" stroke-linecap="square" stroke-linejoin="round" stroke-miterlimit="10" x1="476.092" y1="516.313" x2="476.092" y2="514.893"/>
	</g>
	<g>
		
			<line fill="none" stroke="#262626" stroke-linecap="square" stroke-linejoin="round" stroke-miterlimit="10" x1="350.419" y1="516.313" x2="350.419" y2="374.311"/>
		
			<line fill="none" stroke="#262626" stroke-linecap="square" stroke-linejoin="round" stroke-miterlimit="10" x1="492.422" y1="516.313" x2="492.422" y2="374.311"/>
		
			<line fill="none" stroke="#262626" stroke-linecap="square" stroke-linejoin="round" stroke-miterlimit="10" x1="350.419" y1="507.025" x2="351.839" y2="507.025"/>
		
			<line fill="none" stroke="#262626" stroke-linecap="square" stroke-linejoin="round" stroke-miterlimit="10" x1="350.419" y1="494.78" x2="351.839" y2="494.78"/>
		
			<line fill="none" stroke="#262626" stroke-linecap="square" stroke-linejoin="round" stroke-miterlimit="10" x1="350.419" y1="482.534" x2="351.839" y2="482.534"/>
		
			<line fill="none" stroke="#262626" stroke-linecap="square" stroke-linejoin="round" stroke-miterlimit="10" x1="350.419" y1="470.288" x2="351.839" y2="470.288"/>
		
			<line fill="none" stroke="#262626" stroke-linecap="square" stroke-linejoin="round" stroke-miterlimit="10" x1="350.419" y1="458.043" x2="351.839" y2="458.043"/>
		
			<line fill="none" stroke="#262626" stroke-linecap="square" stroke-linejoin="round" stroke-miterlimit="10" x1="350.419" y1="445.797" x2="351.839" y2="445.797"/>
		
			<line fill="none" stroke="#262626" stroke-linecap="square" stroke-linejoin="round" stroke-miterlimit="10" x1="350.419" y1="433.552" x2="351.839" y2="433.552"/>
		
			<line fill="none" stroke="#262626" stroke-linecap="square" stroke-linejoin="round" stroke-miterlimit="10" x1="350.419" y1="421.305" x2="351.839" y2="421.305"/>
		
			<line fill="none" stroke="#262626" stroke-linecap="square" stroke-linejoin="round" stroke-miterlimit="10" x1="350.419" y1="409.06" x2="351.839" y2="409.06"/>
		
			<line fill="none" stroke="#262626" stroke-linecap="square" stroke-linejoin="round" stroke-miterlimit="10" x1="350.419" y1="396.813" x2="351.839" y2="396.813"/>
		
			<line fill="none" stroke="#262626" stroke-linecap="square" stroke-linejoin="round" stroke-miterlimit="10" x1="350.419" y1="384.568" x2="351.839" y2="384.568"/>
		
			<line fill="none" stroke="#262626" stroke-linecap="square" stroke-linejoin="round" stroke-miterlimit="10" x1="492.422" y1="507.025" x2="491.002" y2="507.025"/>
		
			<line fill="none" stroke="#262626" stroke-linecap="square" stroke-linejoin="round" stroke-miterlimit="10" x1="492.422" y1="494.78" x2="491.002" y2="494.78"/>
		
			<line fill="none" stroke="#262626" stroke-linecap="square" stroke-linejoin="round" stroke-miterlimit="10" x1="492.422" y1="482.534" x2="491.002" y2="482.534"/>
		
			<line fill="none" stroke="#262626" stroke-linecap="square" stroke-linejoin="round" stroke-miterlimit="10" x1="492.422" y1="470.288" x2="491.002" y2="470.288"/>
		
			<line fill="none" stroke="#262626" stroke-linecap="square" stroke-linejoin="round" stroke-miterlimit="10" x1="492.422" y1="458.043" x2="491.002" y2="458.043"/>
		
			<line fill="none" stroke="#262626" stroke-linecap="square" stroke-linejoin="round" stroke-miterlimit="10" x1="492.422" y1="445.797" x2="491.002" y2="445.797"/>
		
			<line fill="none" stroke="#262626" stroke-linecap="square" stroke-linejoin="round" stroke-miterlimit="10" x1="492.422" y1="433.552" x2="491.002" y2="433.552"/>
		
			<line fill="none" stroke="#262626" stroke-linecap="square" stroke-linejoin="round" stroke-miterlimit="10" x1="492.422" y1="421.305" x2="491.002" y2="421.305"/>
		
			<line fill="none" stroke="#262626" stroke-linecap="square" stroke-linejoin="round" stroke-miterlimit="10" x1="492.422" y1="409.06" x2="491.002" y2="409.06"/>
		
			<line fill="none" stroke="#262626" stroke-linecap="square" stroke-linejoin="round" stroke-miterlimit="10" x1="492.422" y1="396.813" x2="491.002" y2="396.813"/>
		
			<line fill="none" stroke="#262626" stroke-linecap="square" stroke-linejoin="round" stroke-miterlimit="10" x1="492.422" y1="384.568" x2="491.002" y2="384.568"/>
	</g>
	<g transform="translate(202.0556,456.0281)">
		<text transform="matrix(1 0 0 1 129.1504 53.2424)" fill="#262626" font-family="'MyriadPro-Regular'" font-size="6.3664">-0.12</text>
	</g>
	<g transform="translate(202.0556,417.8254)">
		<text transform="matrix(1 0 0 1 133.3174 79.2)" fill="#262626" font-family="'MyriadPro-Regular'" font-size="6.3664">-0.1</text>
	</g>
	<g transform="translate(202.0556,379.6227)">
		<text transform="matrix(1 0 0 1 129.1504 105.1566)" fill="#262626" font-family="'MyriadPro-Regular'" font-size="6.3664">-0.08</text>
	</g>
	<g transform="translate(202.0556,341.42)">
		<text transform="matrix(1 0 0 1 129.1504 131.1132)" fill="#262626" font-family="'MyriadPro-Regular'" font-size="6.3664">-0.06</text>
	</g>
	<g transform="translate(202.0556,303.2172)">
		<text transform="matrix(1 0 0 1 129.1504 157.0709)" fill="#262626" font-family="'MyriadPro-Regular'" font-size="6.3664">-0.04</text>
	</g>
	<g transform="translate(202.0556,265.0145)">
		<text transform="matrix(1 0 0 1 129.1504 183.0275)" fill="#262626" font-family="'MyriadPro-Regular'" font-size="6.3664">-0.02</text>
	</g>
	<g transform="translate(202.0556,226.8118)">
		<text transform="matrix(1 0 0 1 141.6514 208.9841)" fill="#262626" font-family="'MyriadPro-Regular'" font-size="6.3664">0</text>
	</g>
	<g transform="translate(202.0556,188.609)">
		<text transform="matrix(1 0 0 1 131.3936 234.9418)" fill="#262626" font-family="'MyriadPro-Regular'" font-size="6.3664">0.02</text>
	</g>
	<g transform="translate(202.0556,150.4063)">
		<text transform="matrix(1 0 0 1 131.3936 260.8984)" fill="#262626" font-family="'MyriadPro-Regular'" font-size="6.3664">0.04</text>
	</g>
	<g transform="translate(202.0556,112.2036)">
		<text transform="matrix(1 0 0 1 131.3936 286.855)" fill="#262626" font-family="'MyriadPro-Regular'" font-size="6.3664">0.06</text>
	</g>
	<g transform="translate(202.0556,74.0009)">
		<text transform="matrix(1 0 0 1 131.3936 312.8126)" fill="#262626" font-family="'MyriadPro-Regular'" font-size="6.3664">0.08</text>
	</g>
</g>
<g transform="translate(144.0972,263.4998) rotate(-90)">
	<text transform="matrix(1.0791 0 0 1 -226.9631 173.4492)" fill="#272626" font-family="'MyriadPro-Regular'" font-size="8">VS-pTPJ Connectivity</text>
	<text transform="matrix(1 0 0 1 -150.9289 173.4492)" fill="#262626" font-family="'ArialMT'" font-size="8"> (β)</text>
	<text transform="matrix(1 0 0 1 -236.8908 183.0493)" fill="#262626" font-family="'ArialMT'" font-size="8">Reward in Friends v Strangers</text>
</g>
<g transform="translate(431.5002,526.9305)">
	<text transform="matrix(1 0 0 1 -29.3938 6.215)" fill="#272626" font-family="'ArialMT'" font-size="8">Condition</text>
</g>
<text transform="matrix(1 0 0 1 378.6855 525.5107)"><tspan x="0" y="0" fill="#000100" font-family="'ArialMT'" font-size="6">Win</tspan><tspan x="10.333" y="0" fill="#000100" font-family="'ArialMT'" font-size="6" letter-spacing="7">	</tspan><tspan x="19.051" y="0" fill="#000100" font-family="'ArialMT'" font-size="6" letter-spacing="17">		</tspan><tspan x="57.152" y="0" fill="#000100" font-family="'ArialMT'" font-size="6">       Loss</tspan></text>
<path opacity="0.8" fill="#FFFFFF" stroke="#CDCCCB" enable-background="new    " d="M442.859,374.91
	c-0.734,0-1.104,0.369-1.104,1.104v31.793c0,0.733,0.367,1.102,2.258,1.102h45.014c-0.42,0-0.053-0.368-0.053-1.102v-31.793
	c0-0.734-0.367-1.104-1.102-1.104"/>
<g id="patch_14">
	<path fill="#3474A0" stroke="#000000" d="M444.299,389.834h11.385v-3.982h-11.385V389.834z"/>
</g>
<g id="patch_15">
	<path fill="#DD5526" stroke="#000000" d="M444.299,398.189h11.385v-3.984h-11.385V398.189z"/>
</g>
<g id="patch_16">
	<path fill="#DDC024" stroke="#000000" d="M444.299,406.545h11.385v-3.984h-11.385V406.545z"/>
</g>
<text transform="matrix(1 0 0 1 459.4414 381.8047)" font-family="'ArialMT'" font-size="6">Partner</text>
<text transform="matrix(1 0 0 1 460.4414 390.1387)" font-family="'ArialMT'" font-size="6">Friend</text>
<text transform="matrix(1 0 0 1 460.1084 398.8047)" font-family="'ArialMT'" font-size="6">Stranger</text>
<text transform="matrix(1 0 0 1 459.4414 407.4707)" font-family="'ArialMT'" font-size="6">Computer</text>
</svg>
