<?xml version="1.0" encoding="utf-8"?>
<!-- Generator: Adobe Illustrator 16.0.3, SVG Export Plug-In . SVG Version: 6.00 Build 0)  -->
<!DOCTYPE svg PUBLIC "-//W3C//DTD SVG 1.1//EN" "http://www.w3.org/Graphics/SVG/1.1/DTD/svg11.dtd">
<svg version="1.1" id="Layer_1" xmlns="http://www.w3.org/2000/svg" xmlns:xlink="http://www.w3.org/1999/xlink" x="0px" y="0px"
	 width="515.906px" height="345.6px" viewBox="0 0 515.906 345.6" enable-background="new 0 0 515.906 345.6" xml:space="preserve">
<g id="figure_1">
	<g id="axes_1">
		<g id="patch_2">
			<path fill="#FFFFFF" d="M25.025,213.992h138.338V110.909H25.025V213.992z"/>
		</g>
		<g id="patch_3">
			<g>
				<g>
					<g>
						<g>
							<defs>
								<rect id="SVGID_1_" x="25.025" y="110.909" width="138.338" height="103.083"/>
							</defs>
							<clipPath id="SVGID_2_">
								<use xlink:href="#SVGID_1_"  overflow="visible"/>
							</clipPath>
							<path clip-path="url(#SVGID_2_)" fill="#3274A1" stroke="#000000" d="M29.639,213.992h36.891v-92.483H29.639V213.992z"/>
						</g>
					</g>
				</g>
			</g>
		</g>
		<g id="patch_4">
			<g>
				<g>
					<g>
						<g>
							<defs>
								<rect id="SVGID_3_" x="25.025" y="110.909" width="138.338" height="103.083"/>
							</defs>
							<clipPath id="SVGID_4_">
								<use xlink:href="#SVGID_3_"  overflow="visible"/>
							</clipPath>
							<path clip-path="url(#SVGID_4_)" fill="#DF5420" stroke="#000000" d="M75.75,213.992h36.891v-44.107H75.75V213.992
								L75.75,213.992z"/>
						</g>
					</g>
				</g>
			</g>
		</g>
		<g id="patch_5">
			<g>
				<g>
					<g>
						<g>
							<defs>
								<rect id="SVGID_5_" x="25.025" y="110.909" width="138.338" height="103.083"/>
							</defs>
							<clipPath id="SVGID_6_">
								<use xlink:href="#SVGID_5_"  overflow="visible"/>
							</clipPath>
							<path clip-path="url(#SVGID_6_)" fill="#DFC120" stroke="#000000" d="M121.861,213.992h36.891v-43.396h-36.891V213.992z"/>
						</g>
					</g>
				</g>
			</g>
		</g>
		<g id="matplotlib.axis_1">
			<g id="xtick_1">
				<g id="line2d_1">
					<g>
						<g>
							<path id="m221cf53daa" stroke="#000000" stroke-width="0.8" stroke-linejoin="round" d="M48.082,213.992v1.357"/>
						</g>
					</g>
				</g>
				<g id="text_1">
					<g transform="translate(101.742656 322.182437)scale(0.1 -0.1)">
						<g>
							<path id="DejaVuSans-69" d="M-557.123,1054.773h3.486v-4.434h-3.486V1054.773z"/>
						</g>
					</g>
				</g>
			</g>
			<g id="xtick_2">
				<g id="line2d_2">
					<g>
						<g>
							<path id="m221cf53daa_1_" stroke="#000000" stroke-width="0.8" stroke-linejoin="round" d="M94.196,213.992v1.357"/>
						</g>
					</g>
				</g>
			</g>
			<g id="xtick_3">
				<g id="line2d_3">
					<g>
						<g>
							<path id="m221cf53daa_2_" stroke="#000000" stroke-width="0.8" stroke-linejoin="round" d="M140.309,213.992v1.357"/>
						</g>
					</g>
				</g>
			</g>
		</g>
		<g id="matplotlib.axis_2">
			<g id="ytick_1">
				<g id="line2d_4">
					<g>
						<g>
							<path id="mb6affc9f3f" stroke="#000000" stroke-width="0.8" stroke-linejoin="round" d="M25.026,213.992h-1.354"/>
						</g>
					</g>
				</g>
			</g>
			<g id="ytick_2">
				<g id="line2d_5">
					<g>
						<g>
							<path id="mb6affc9f3f_1_" stroke="#000000" stroke-width="0.8" stroke-linejoin="round" d="M25.026,194.073h-1.354"/>
						</g>
					</g>
				</g>
			</g>
			<g id="ytick_3">
				<g id="line2d_6">
					<g>
						<g>
							<path id="mb6affc9f3f_2_" stroke="#000000" stroke-width="0.8" stroke-linejoin="round" d="M25.026,174.153h-1.354"/>
						</g>
					</g>
				</g>
			</g>
			<g id="ytick_4">
				<g id="line2d_7">
					<g>
						<g>
							<path id="mb6affc9f3f_3_" stroke="#000000" stroke-width="0.8" stroke-linejoin="round" d="M25.026,154.234h-1.354"/>
						</g>
					</g>
				</g>
			</g>
			<g id="ytick_5">
				<g id="line2d_8">
					<g>
						<g>
							<path id="mb6affc9f3f_4_" stroke="#000000" stroke-width="0.8" stroke-linejoin="round" d="M25.026,134.315h-1.354"/>
						</g>
					</g>
				</g>
			</g>
			<g id="ytick_6">
				<g id="line2d_9">
					<g>
						<g>
							<path id="mb6affc9f3f_5_" stroke="#000000" stroke-width="0.8" stroke-linejoin="round" d="M25.026,114.396h-1.354"/>
						</g>
					</g>
				</g>
			</g>
		</g>
		<g id="line2d_10">
			<g>
				<g>
					<g>
						<g>
							<defs>
								<rect id="SVGID_7_" x="25.026" y="110.909" width="138.338" height="103.083"/>
							</defs>
							<clipPath id="SVGID_8_">
								<use xlink:href="#SVGID_7_"  overflow="visible"/>
							</clipPath>
							<path clip-path="url(#SVGID_8_)" fill="none" stroke="#424242" stroke-linecap="square" stroke-linejoin="round" d="
								M48.082,126.489v-10.671"/>
						</g>
					</g>
				</g>
			</g>
		</g>
		<g id="line2d_11">
			<g>
				<g>
					<g>
						<g>
							<defs>
								<rect id="SVGID_9_" x="25.026" y="110.909" width="138.338" height="103.083"/>
							</defs>
							<clipPath id="SVGID_10_">
								<use xlink:href="#SVGID_9_"  overflow="visible"/>
							</clipPath>
							<path clip-path="url(#SVGID_10_)" fill="none" stroke="#424242" stroke-linecap="square" stroke-linejoin="round" d="
								M94.196,174.865v-9.959"/>
						</g>
					</g>
				</g>
			</g>
		</g>
		<g id="line2d_12">
			<g>
				<g>
					<g>
						<g>
							<defs>
								<rect id="SVGID_11_" x="25.026" y="110.909" width="138.338" height="103.083"/>
							</defs>
							<clipPath id="SVGID_12_">
								<use xlink:href="#SVGID_11_"  overflow="visible"/>
							</clipPath>
							<path clip-path="url(#SVGID_12_)" fill="none" stroke="#424242" stroke-linecap="square" stroke-linejoin="round" d="
								M140.309,175.577v-9.961"/>
						</g>
					</g>
				</g>
			</g>
		</g>
		<g id="patch_6">
			<path fill="none" stroke="#000000" stroke-width="0.8" stroke-linecap="square" d="M25.026,213.992V110.909"/>
		</g>
		<g id="patch_7">
			<path fill="none" stroke="#000000" stroke-width="0.8" stroke-linecap="square" d="M163.364,213.992V110.909"/>
		</g>
		<g id="patch_8">
			<path fill="none" stroke="#000000" stroke-width="0.8" stroke-linecap="square" d="M25.026,213.992h138.338"/>
		</g>
		<g id="patch_9">
			<path fill="none" stroke="#000000" stroke-width="0.8" stroke-linecap="square" d="M25.026,110.909h138.338"/>
		</g>
	</g>
</g>
<g id="figure_1_1_">
	<g id="axes_1_1_">
		<g id="patch_3_1_">
			<g>
				<g>
					<g>
						<g>
							<defs>
								<rect id="SVGID_13_" x="191.296" y="104.435" width="162.447" height="121.048"/>
							</defs>
							<clipPath id="SVGID_14_">
								<use xlink:href="#SVGID_13_"  overflow="visible"/>
							</clipPath>
							<path clip-path="url(#SVGID_14_)" fill="#3274A1" stroke="#000000" d="M199.42,169.822h21.66v-52.979h-21.66V169.822z"/>
						</g>
					</g>
				</g>
			</g>
		</g>
		<g id="patch_4_1_">
			<g>
				<g>
					<g>
						<g>
							<defs>
								<rect id="SVGID_15_" x="191.296" y="104.435" width="162.447" height="121.048"/>
							</defs>
							<clipPath id="SVGID_16_">
								<use xlink:href="#SVGID_15_"  overflow="visible"/>
							</clipPath>
							<path clip-path="url(#SVGID_16_)" fill="#3274A1" stroke="#000000" d="M280.643,169.822h21.659v41.068h-21.659V169.822
								L280.643,169.822z"/>
						</g>
					</g>
				</g>
			</g>
		</g>
		<g id="patch_5_1_">
			<g>
				<g>
					<g>
						<g>
							<defs>
								<rect id="SVGID_17_" x="191.296" y="104.435" width="162.447" height="121.048"/>
							</defs>
							<clipPath id="SVGID_18_">
								<use xlink:href="#SVGID_17_"  overflow="visible"/>
							</clipPath>
							<path clip-path="url(#SVGID_18_)" fill="#DF5420" stroke="#000000" d="M221.08,169.822h21.659v-12.854H221.08V169.822z"/>
						</g>
					</g>
				</g>
			</g>
		</g>
		<g id="patch_6_1_">
			<g>
				<g>
					<g>
						<g>
							<defs>
								<rect id="SVGID_19_" x="191.296" y="104.435" width="162.447" height="121.048"/>
							</defs>
							<clipPath id="SVGID_20_">
								<use xlink:href="#SVGID_19_"  overflow="visible"/>
							</clipPath>
							<path clip-path="url(#SVGID_20_)" fill="#DF5420" stroke="#000000" d="M302.301,169.822h21.659v21.945h-21.659V169.822z"/>
						</g>
					</g>
				</g>
			</g>
		</g>
		<g id="patch_7_1_">
			<g>
				<g>
					<g>
						<g>
							<defs>
								<rect id="SVGID_21_" x="191.296" y="104.435" width="162.447" height="121.048"/>
							</defs>
							<clipPath id="SVGID_22_">
								<use xlink:href="#SVGID_21_"  overflow="visible"/>
							</clipPath>
							<path clip-path="url(#SVGID_22_)" fill="#DFC120" stroke="#000000" d="M242.739,169.822h21.66v-7.837h-21.66V169.822z"/>
						</g>
					</g>
				</g>
			</g>
		</g>
		<g id="patch_8_1_">
			<g>
				<g>
					<g>
						<g>
							<defs>
								<rect id="SVGID_23_" x="191.296" y="104.435" width="162.447" height="121.048"/>
							</defs>
							<clipPath id="SVGID_24_">
								<use xlink:href="#SVGID_23_"  overflow="visible"/>
							</clipPath>
							<path clip-path="url(#SVGID_24_)" fill="#DFC120" stroke="#000000" d="M323.961,169.822h21.66v17.242h-21.66V169.822z"/>
						</g>
					</g>
				</g>
			</g>
		</g>
		<g id="matplotlib.axis_1_1_">
			<g id="xtick_1_1_">
				<g id="line2d_1_1_">
					<g>
						<g>
							<path id="mb404cca711" stroke="#000000" stroke-width="0.8" stroke-linejoin="round" d="M231.909,225.483v1.59"/>
						</g>
					</g>
				</g>
			</g>
			<g id="xtick_2_1_">
				<g id="line2d_2_1_">
					<g>
						<g>
							<path id="mb404cca711_1_" stroke="#000000" stroke-width="0.8" stroke-linejoin="round" d="M313.132,225.483v1.59"/>
						</g>
					</g>
				</g>
			</g>
		</g>
		<g id="matplotlib.axis_2_1_">
			<g id="ytick_1_1_">
				<g id="line2d_3_1_">
					<g>
						<g>
							<path id="mf9525bccf2" stroke="#000000" stroke-width="0.8" stroke-linejoin="round" d="M191.296,213.083h-1.59"/>
						</g>
					</g>
				</g>
			</g>
			<g id="ytick_2_1_">
				<g id="line2d_4_1_">
					<g>
						<g>
							<path id="mf9525bccf2_1_" stroke="#000000" stroke-width="0.8" stroke-linejoin="round" d="M191.296,198.663h-1.59"/>
						</g>
					</g>
				</g>
			</g>
			<g id="ytick_3_1_">
				<g id="line2d_5_1_">
					<g>
						<g>
							<path id="mf9525bccf2_2_" stroke="#000000" stroke-width="0.8" stroke-linejoin="round" d="M191.296,184.243h-1.59"/>
						</g>
					</g>
				</g>
			</g>
			<g id="ytick_4_1_">
				<g id="line2d_6_1_">
					<g>
						<g>
							<path id="mf9525bccf2_3_" stroke="#000000" stroke-width="0.8" stroke-linejoin="round" d="M191.296,169.822h-1.59"/>
						</g>
					</g>
				</g>
			</g>
			<g id="ytick_5_1_">
				<g id="line2d_7_1_">
					<g>
						<g>
							<path id="mf9525bccf2_4_" stroke="#000000" stroke-width="0.8" stroke-linejoin="round" d="M191.296,155.402h-1.59"/>
						</g>
					</g>
				</g>
			</g>
			<g id="ytick_6_1_">
				<g id="line2d_8_1_">
					<g>
						<g>
							<path id="mf9525bccf2_5_" stroke="#000000" stroke-width="0.8" stroke-linejoin="round" d="M191.296,140.981h-1.59"/>
						</g>
					</g>
				</g>
			</g>
			<g id="ytick_7">
				<g id="line2d_9_1_">
					<g>
						<g>
							<path id="mf9525bccf2_6_" stroke="#000000" stroke-width="0.8" stroke-linejoin="round" d="M191.296,126.56h-1.59"/>
						</g>
					</g>
				</g>
			</g>
			<g id="ytick_8">
				<g id="line2d_10_1_">
					<g>
						<g>
							<path id="mf9525bccf2_7_" stroke="#000000" stroke-width="0.8" stroke-linejoin="round" d="M191.296,112.14h-1.59"/>
						</g>
					</g>
				</g>
			</g>
		</g>
		<g id="line2d_11_1_">
			<g>
				<g>
					<g>
						<g>
							<defs>
								<rect id="SVGID_25_" x="191.296" y="104.435" width="162.447" height="121.048"/>
							</defs>
							<clipPath id="SVGID_26_">
								<use xlink:href="#SVGID_25_"  overflow="visible"/>
							</clipPath>
							<path clip-path="url(#SVGID_26_)" fill="none" stroke="#424242" stroke-linecap="square" stroke-linejoin="round" d="
								M210.25,124.679v-14.742"/>
						</g>
					</g>
				</g>
			</g>
		</g>
		<g id="line2d_12_1_">
			<g>
				<g>
					<g>
						<g>
							<defs>
								<rect id="SVGID_27_" x="191.296" y="104.435" width="162.447" height="121.048"/>
							</defs>
							<clipPath id="SVGID_28_">
								<use xlink:href="#SVGID_27_"  overflow="visible"/>
							</clipPath>
							<path clip-path="url(#SVGID_28_)" fill="none" stroke="#424242" stroke-linecap="square" stroke-linejoin="round" d="
								M291.472,219.981v-19.123"/>
						</g>
					</g>
				</g>
			</g>
		</g>
		<g id="line2d_13">
			<g>
				<g>
					<g>
						<g>
							<defs>
								<rect id="SVGID_29_" x="191.296" y="104.435" width="162.447" height="121.048"/>
							</defs>
							<clipPath id="SVGID_30_">
								<use xlink:href="#SVGID_29_"  overflow="visible"/>
							</clipPath>
							<path clip-path="url(#SVGID_30_)" fill="none" stroke="#424242" stroke-linecap="square" stroke-linejoin="round" d="
								M231.909,167.941v-21.012"/>
						</g>
					</g>
				</g>
			</g>
		</g>
		<g id="line2d_14">
			<g>
				<g>
					<g>
						<g>
							<defs>
								<rect id="SVGID_31_" x="191.296" y="104.435" width="162.447" height="121.048"/>
							</defs>
							<clipPath id="SVGID_32_">
								<use xlink:href="#SVGID_31_"  overflow="visible"/>
							</clipPath>
							<path clip-path="url(#SVGID_32_)" fill="none" stroke="#424242" stroke-linecap="square" stroke-linejoin="round" d="
								M313.132,199.298V184.56"/>
						</g>
					</g>
				</g>
			</g>
		</g>
		<g id="line2d_15">
			<g>
				<g>
					<g>
						<g>
							<defs>
								<rect id="SVGID_33_" x="191.296" y="104.435" width="162.447" height="121.048"/>
							</defs>
							<clipPath id="SVGID_34_">
								<use xlink:href="#SVGID_33_"  overflow="visible"/>
							</clipPath>
							<path clip-path="url(#SVGID_34_)" fill="none" stroke="#424242" stroke-linecap="square" stroke-linejoin="round" d="
								M253.567,172.964v-21.949"/>
						</g>
					</g>
				</g>
			</g>
		</g>
		<g id="line2d_16">
			<g>
				<g>
					<g>
						<g>
							<defs>
								<rect id="SVGID_35_" x="191.296" y="104.435" width="162.447" height="121.048"/>
							</defs>
							<clipPath id="SVGID_36_">
								<use xlink:href="#SVGID_35_"  overflow="visible"/>
							</clipPath>
							<path clip-path="url(#SVGID_36_)" fill="none" stroke="#424242" stroke-linecap="square" stroke-linejoin="round" d="
								M334.792,196.782v-18.188"/>
						</g>
					</g>
				</g>
			</g>
		</g>
		<g id="patch_9_1_">
			<path fill="none" stroke="#000000" stroke-width="0.8" stroke-linecap="square" d="M191.296,225.483V104.435"/>
		</g>
		<g id="patch_10">
			<path fill="none" stroke="#000000" stroke-linecap="square" d="M353.744,225.483V104.435"/>
		</g>
		<g id="patch_11">
			<path fill="none" stroke="#000000" stroke-width="0.8" stroke-linecap="square" d="M191.296,225.483h162.447"/>
		</g>
		<g id="patch_12">
			<path fill="none" stroke="#000000" stroke-width="0.8" stroke-linecap="square" d="M191.296,104.435h162.447"/>
		</g>
		<g id="legend_1">
			<g id="patch_13">
				<path opacity="0.8" fill="#FFFFFF" stroke="#CCCCCC" enable-background="new    " d="M302.036,143.596h48.805
					c-0.455,0-0.058-0.398-0.058-1.194v-34.471c0-0.796-0.397-1.195-1.194-1.195h-48.805c-0.798,0-1.196,0.399-1.196,1.195v34.471
					C299.587,143.198,299.987,143.596,302.036,143.596z"/>
			</g>
			<g id="patch_14">
				<path fill="#3274A1" stroke="#000000" d="M305.114,121.66h11.383v-3.983h-11.383V121.66z"/>
			</g>
			<g id="patch_15">
				<path fill="#DF5420" stroke="#000000" d="M305.114,130.014h11.383v-3.983h-11.383V130.014z"/>
			</g>
			<g id="patch_16">
				<path fill="#DFC120" stroke="#000000" d="M305.114,138.37h11.383v-3.983h-11.383V138.37z"/>
			</g>
		</g>
	</g>
</g>
<g id="surface6">
	<rect x="381.903" y="108.778" fill="#FFFFFF" width="132.604" height="123.247"/>
	<rect x="381.903" y="108.778" fill="none" width="132.604" height="123.247"/>
	<text transform="matrix(1 0 0 1 393.4163 226.792)" font-family="'ArialMT'" font-size="6">-5</text>
	<path fill="none" stroke="#3366FF" stroke-linejoin="round" stroke-miterlimit="10" stroke-dasharray="8.5358,8.5358" d="
		M400.661,163.208l1.346,0.628l1.347,0.61l1.344,0.587l1.345,0.565l1.346,0.544l1.347,0.521l1.346,0.5l1.346,0.48l1.346,0.458
		l1.347,0.436l1.344,0.414l1.346,0.396l1.347,0.372l1.346,0.349l1.346,0.33l1.346,0.306l1.347,0.284l1.346,0.267l1.347,0.24
		l1.346,0.221l1.347,0.197l1.347,0.18l1.347,0.154l1.346,0.135l1.346,0.111l1.349,0.092l1.345,0.069l1.346,0.048l1.347,0.024
		l1.347,0.005l1.348-0.018l1.347-0.036l1.346-0.062l1.349-0.084l1.345-0.104l1.347-0.123l1.346-0.146l1.349-0.168l1.346-0.188
		l1.346-0.21l1.348-0.232l1.347-0.254l1.347-0.276l1.345-0.297l1.347-0.318l1.346-0.342l1.347-0.357l1.347-0.387l1.347-0.402
		l1.348-0.43l1.347-0.446l1.347-0.472l1.345-0.489l1.348-0.516l1.346-0.535l1.348-0.556l1.348-0.577l1.346-0.599l1.346-0.622
		l1.345-0.643l1.347-0.663l1.349-0.688l1.345-0.707l1.348-0.728l1.347-0.75l1.346-0.772l1.349-0.794l1.344-0.813l1.347-0.838
		l1.347-0.857l1.346-0.88l1.348-0.901l1.348-0.923l1.346-0.944l1.348-0.966l1.344-0.987l1.346-1.009l1.349-1.03l1.347-1.053"/>
	
		<path fill="none" stroke="#000000" stroke-width="0.7087" stroke-linecap="round" stroke-linejoin="round" stroke-miterlimit="10" d="
		M448.7,186.263c0,1.061-1.593,1.061-1.593,0S448.7,185.202,448.7,186.263"/>
	
		<path fill="none" stroke="#000000" stroke-width="0.7087" stroke-linecap="round" stroke-linejoin="round" stroke-miterlimit="10" d="
		M448.7,200.329c0,1.063-1.593,1.063-1.593,0C447.108,199.271,448.7,199.271,448.7,200.329"/>
	
		<path fill="none" stroke="#000000" stroke-width="0.7087" stroke-linecap="round" stroke-linejoin="round" stroke-miterlimit="10" d="
		M460.512,179.23c0,1.061-1.591,1.061-1.591,0S460.512,178.171,460.512,179.23"/>
	
		<path fill="none" stroke="#000000" stroke-width="0.7087" stroke-linecap="round" stroke-linejoin="round" stroke-miterlimit="10" d="
		M436.89,144.064c0,1.06-1.592,1.06-1.592,0S436.89,143.004,436.89,144.064"/>
	
		<path fill="none" stroke="#000000" stroke-width="0.7087" stroke-linecap="round" stroke-linejoin="round" stroke-miterlimit="10" d="
		M484.134,165.163c0,1.063-1.59,1.063-1.59,0C482.544,164.104,484.134,164.104,484.134,165.163"/>
	
		<path fill="none" stroke="#000000" stroke-width="0.7087" stroke-linecap="round" stroke-linejoin="round" stroke-miterlimit="10" d="
		M401.455,165.163c0,1.063-1.591,1.063-1.591,0C399.864,164.104,401.455,164.104,401.455,165.163"/>
	
		<path fill="none" stroke="#000000" stroke-width="0.7087" stroke-linecap="round" stroke-linejoin="round" stroke-miterlimit="10" d="
		M507.757,165.163c0,1.063-1.591,1.063-1.591,0C506.166,164.104,507.757,164.104,507.757,165.163"/>
	
		<path fill="none" stroke="#000000" stroke-width="0.7087" stroke-linecap="round" stroke-linejoin="round" stroke-miterlimit="10" d="
		M413.267,151.098c0,1.059-1.591,1.059-1.591,0C411.675,150.036,413.267,150.036,413.267,151.098"/>
	
		<path fill="none" stroke="#000000" stroke-width="0.7087" stroke-linecap="round" stroke-linejoin="round" stroke-miterlimit="10" d="
		M484.134,186.263c0,1.061-1.59,1.061-1.59,0S484.134,185.202,484.134,186.263"/>
	
		<path fill="none" stroke="#000000" stroke-width="0.7087" stroke-linecap="round" stroke-linejoin="round" stroke-miterlimit="10" d="
		M484.134,151.098c0,1.059-1.59,1.059-1.59,0C482.544,150.036,484.134,150.036,484.134,151.098"/>
	
		<path fill="none" stroke="#000000" stroke-width="0.7087" stroke-linecap="round" stroke-linejoin="round" stroke-miterlimit="10" d="
		M436.89,179.23c0,1.061-1.592,1.061-1.592,0S436.89,178.171,436.89,179.23"/>
	
		<path fill="none" stroke="#000000" stroke-width="0.7087" stroke-linecap="round" stroke-linejoin="round" stroke-miterlimit="10" d="
		M484.134,186.263c0,1.061-1.59,1.061-1.59,0S484.134,185.202,484.134,186.263"/>
	
		<path fill="none" stroke="#000000" stroke-width="0.7087" stroke-linecap="round" stroke-linejoin="round" stroke-miterlimit="10" d="
		M425.077,172.196c0,1.062-1.591,1.062-1.591,0C423.487,171.136,425.077,171.136,425.077,172.196"/>
	
		<path fill="none" stroke="#000000" stroke-width="0.7087" stroke-linecap="round" stroke-linejoin="round" stroke-miterlimit="10" d="
		M507.757,151.098c0,1.059-1.591,1.059-1.591,0C506.166,150.036,507.757,150.036,507.757,151.098"/>
	
		<path fill="none" stroke="#000000" stroke-width="0.7087" stroke-linecap="round" stroke-linejoin="round" stroke-miterlimit="10" d="
		M484.134,144.064c0,1.06-1.59,1.06-1.59,0S484.134,143.004,484.134,144.064"/>
	
		<path fill="none" stroke="#000000" stroke-width="0.7087" stroke-linecap="round" stroke-linejoin="round" stroke-miterlimit="10" d="
		M472.321,179.23c0,1.061-1.588,1.061-1.588,0S472.321,178.171,472.321,179.23"/>
	
		<path fill="none" stroke="#000000" stroke-width="0.7087" stroke-linecap="round" stroke-linejoin="round" stroke-miterlimit="10" d="
		M401.455,179.23c0,1.061-1.591,1.061-1.591,0C399.864,178.169,401.455,178.171,401.455,179.23"/>
	
		<path fill="none" stroke="#000000" stroke-width="0.7087" stroke-linecap="round" stroke-linejoin="round" stroke-miterlimit="10" d="
		M436.89,144.064c0,1.06-1.592,1.06-1.592,0S436.89,143.004,436.89,144.064"/>
	
		<path fill="none" stroke="#000000" stroke-width="0.7087" stroke-linecap="round" stroke-linejoin="round" stroke-miterlimit="10" d="
		M425.077,179.23c0,1.061-1.591,1.061-1.591,0S425.077,178.171,425.077,179.23"/>
	
		<path fill="none" stroke="#000000" stroke-width="0.7087" stroke-linecap="round" stroke-linejoin="round" stroke-miterlimit="10" d="
		M507.757,158.13c0,1.062-1.591,1.062-1.591,0C506.166,157.071,507.757,157.071,507.757,158.13"/>
	
		<path fill="none" stroke="#000000" stroke-width="0.7087" stroke-linecap="round" stroke-linejoin="round" stroke-miterlimit="10" d="
		M448.7,179.23c0,1.061-1.593,1.061-1.593,0S448.7,178.171,448.7,179.23"/>
	
		<path fill="none" stroke="#000000" stroke-width="0.7087" stroke-linecap="round" stroke-linejoin="round" stroke-miterlimit="10" d="
		M425.077,151.098c0,1.059-1.591,1.059-1.591,0C423.487,150.036,425.077,150.036,425.077,151.098"/>
	
		<path fill="none" stroke="#000000" stroke-width="0.7087" stroke-linecap="round" stroke-linejoin="round" stroke-miterlimit="10" d="
		M413.267,214.397c0,1.059-1.591,1.059-1.591,0C411.675,213.337,413.267,213.337,413.267,214.397"/>
	
		<path fill="none" stroke="#000000" stroke-width="0.7087" stroke-linecap="round" stroke-linejoin="round" stroke-miterlimit="10" d="
		M507.757,115.929c0,1.061-1.591,1.061-1.591,0S507.757,114.869,507.757,115.929"/>
	
		<path fill="none" stroke="#000000" stroke-width="0.7087" stroke-linecap="round" stroke-linejoin="round" stroke-miterlimit="10" d="
		M472.321,151.098c0,1.059-1.588,1.059-1.588,0C470.733,150.036,472.321,150.036,472.321,151.098"/>
	
		<path fill="none" stroke="#000000" stroke-width="0.7087" stroke-linecap="round" stroke-linejoin="round" stroke-miterlimit="10" d="
		M495.946,158.13c0,1.062-1.594,1.062-1.594,0C494.356,157.071,495.946,157.071,495.946,158.13"/>
	
		<path fill="none" stroke="#000000" stroke-width="0.7087" stroke-linecap="round" stroke-linejoin="round" stroke-miterlimit="10" d="
		M507.757,115.929c0,1.061-1.591,1.061-1.591,0S507.757,114.869,507.757,115.929"/>
	
		<path fill="none" stroke="#000000" stroke-width="0.7087" stroke-linecap="round" stroke-linejoin="round" stroke-miterlimit="10" d="
		M436.89,144.064c0,1.06-1.592,1.06-1.592,0S436.89,143.004,436.89,144.064"/>
	
		<path fill="none" stroke="#000000" stroke-width="0.7087" stroke-linecap="round" stroke-linejoin="round" stroke-miterlimit="10" d="
		M460.512,179.23c0,1.061-1.591,1.061-1.591,0S460.512,178.171,460.512,179.23"/>
	
		<path fill="none" stroke="#000000" stroke-width="0.7087" stroke-linecap="round" stroke-linejoin="round" stroke-miterlimit="10" d="
		M507.757,172.196c0,1.062-1.591,1.062-1.591,0C506.166,171.136,507.757,171.136,507.757,172.196"/>
	
		<path fill="none" stroke="#000000" stroke-width="0.7087" stroke-linecap="round" stroke-linejoin="round" stroke-miterlimit="10" d="
		M413.267,158.13c0,1.062-1.591,1.062-1.591,0C411.675,157.071,413.267,157.071,413.267,158.13"/>
	
		<path fill="none" stroke="#000000" stroke-width="0.7087" stroke-linecap="round" stroke-linejoin="round" stroke-miterlimit="10" d="
		M425.077,165.163c0,1.063-1.591,1.063-1.591,0C423.487,164.104,425.077,164.104,425.077,165.163"/>
	
		<path fill="none" stroke="#000000" stroke-width="0.7087" stroke-linecap="round" stroke-linejoin="round" stroke-miterlimit="10" d="
		M401.455,172.196c0,1.062-1.591,1.062-1.591,0C399.864,171.136,401.455,171.136,401.455,172.196"/>
	
		<path fill="none" stroke="#000000" stroke-width="0.7087" stroke-linecap="round" stroke-linejoin="round" stroke-miterlimit="10" d="
		M495.946,122.963c0,1.062-1.594,1.062-1.594,0C494.356,121.904,495.946,121.904,495.946,122.963"/>
	
		<path fill="none" stroke="#000000" stroke-width="0.7087" stroke-linecap="round" stroke-linejoin="round" stroke-miterlimit="10" d="
		M413.267,165.163c0,1.063-1.591,1.063-1.591,0C411.675,164.104,413.267,164.104,413.267,165.163"/>
	
		<path fill="none" stroke="#000000" stroke-width="0.7087" stroke-linecap="round" stroke-linejoin="round" stroke-miterlimit="10" d="
		M448.7,172.196c0,1.062-1.593,1.062-1.593,0C447.108,171.136,448.7,171.136,448.7,172.196"/>
	
		<path fill="none" stroke="#000000" stroke-width="0.7087" stroke-linecap="round" stroke-linejoin="round" stroke-miterlimit="10" d="
		M495.946,179.23c0,1.061-1.594,1.061-1.594,0C494.354,178.169,495.946,178.171,495.946,179.23"/>
	
		<path fill="none" stroke="#000000" stroke-width="0.7087" stroke-linecap="round" stroke-linejoin="round" stroke-miterlimit="10" d="
		M460.512,186.263c0,1.061-1.591,1.061-1.591,0S460.512,185.202,460.512,186.263"/>
	
		<path fill="none" stroke="#000000" stroke-width="0.7087" stroke-linecap="round" stroke-linejoin="round" stroke-miterlimit="10" d="
		M413.267,158.13c0,1.062-1.591,1.062-1.591,0C411.675,157.071,413.267,157.071,413.267,158.13"/>
	
		<path fill="none" stroke="#000000" stroke-width="0.7087" stroke-linecap="round" stroke-linejoin="round" stroke-miterlimit="10" d="
		M436.89,179.23c0,1.061-1.592,1.061-1.592,0S436.89,178.171,436.89,179.23"/>
	
		<path fill="none" stroke="#000000" stroke-width="0.7087" stroke-linecap="round" stroke-linejoin="round" stroke-miterlimit="10" d="
		M484.134,122.963c0,1.062-1.59,1.062-1.59,0C482.544,121.904,484.134,121.904,484.134,122.963"/>
	
		<path fill="none" stroke="#000000" stroke-width="0.7087" stroke-linecap="round" stroke-linejoin="round" stroke-miterlimit="10" d="
		M413.267,151.098c0,1.059-1.591,1.059-1.591,0C411.675,150.036,413.267,150.036,413.267,151.098"/>
	
		<path fill="none" stroke="#000000" stroke-width="0.7087" stroke-linecap="round" stroke-linejoin="round" stroke-miterlimit="10" d="
		M460.512,186.263c0,1.061-1.591,1.061-1.591,0S460.512,185.202,460.512,186.263"/>
	<path fill="none" stroke="#000000" stroke-linejoin="round" stroke-miterlimit="10" d="M395.345,219.319V111.007"/>
	<path fill="none" stroke="#333333" stroke-width="1.067" stroke-linejoin="round" stroke-miterlimit="10" d="M394.231,186.263
		h1.114"/>
	<path fill="none" stroke="#333333" stroke-width="1.067" stroke-linejoin="round" stroke-miterlimit="10" d="M394.231,151.098
		h1.114"/>
	<path fill="none" stroke="#333333" stroke-width="1.067" stroke-linejoin="round" stroke-miterlimit="10" d="M394.231,115.929
		h1.114"/>
	<path fill="none" stroke="#000000" stroke-linejoin="round" stroke-miterlimit="10" d="M395.345,219.319h116.931"/>
	<path fill="none" stroke="#333333" stroke-width="1.067" stroke-linejoin="round" stroke-miterlimit="10" d="M396.198,220.435
		v-1.115"/>
	<path fill="none" stroke="#333333" stroke-width="1.067" stroke-linejoin="round" stroke-miterlimit="10" d="M425.729,220.435
		v-1.115"/>
	<path fill="none" stroke="#333333" stroke-width="1.067" stroke-linejoin="round" stroke-miterlimit="10" d="M455.255,220.435
		v-1.115"/>
	<path fill="none" stroke="#333333" stroke-width="1.067" stroke-linejoin="round" stroke-miterlimit="10" d="M484.781,220.435
		v-1.115"/>
</g>
<text transform="matrix(1 0 0 1 369.3127 117.73)" font-family="'MyriadPro-Regular'" font-size="6" letter-spacing="15"> </text>
<text transform="matrix(1 0 0 1 385.6633 117.73)" font-family="'ArialMT'" font-size="6">10</text>
<text transform="matrix(1 0 0 1 387.7815 152.6831)" font-family="'ArialMT'" font-size="6">5</text>
<text transform="matrix(1 0 0 1 387.7815 188.8096)" font-family="'ArialMT'" font-size="6">0</text>
<text transform="matrix(1 0 0 1 421.6565 226.8272)" font-family="'ArialMT'" font-size="6">-2.5</text>
<text transform="matrix(1 0 0 1 454.3743 226.0557)" font-family="'ArialMT'" font-size="6">0</text>
<text transform="matrix(1 0 0 1 481.6633 226.5264)" font-family="'ArialMT'" font-size="6">2.5</text>
<text transform="matrix(0.0144 -0.9999 0.9999 0.0144 179.9417 176.916)" font-family="'ArialMT'" font-size="8">Rating</text>
<text transform="matrix(1 0 0 1 254.9221 242.4033)" font-family="'ArialMT'" font-size="8">Outcome</text>
<text transform="matrix(1 0 0 1 427.9211 242.4033)" font-family="'ArialMT'" font-size="8">Reward Sensitivity</text>
<text transform="matrix(-6.503243e-004 -1 1 -6.503243e-004 373.3665 190.6768)" font-family="'ArialMT'" font-size="8">Difference in </text>
<text transform="matrix(-6.503243e-004 -1 1 -6.503243e-004 382.9807 212.6807)" font-family="'ArialMT'" font-size="8">Friend vs Stranger Rating</text>
<text transform="matrix(-4.371139e-008 -1 1 -4.371139e-008 16.9153 180.5811)" font-family="'ArialMT'" font-size="8">Closeness</text>
<text transform="matrix(1 0 0 1 84.1262 235.0742)" font-family="'ArialMT'" font-size="8">Partner</text>
<text transform="matrix(1 0 0 1 226.2551 234.0694)" font-family="'ArialMT'" font-size="6">Win</text>
<text transform="matrix(1 0 0 1 307.9221 234.0694)" font-family="'ArialMT'" font-size="6">Lose</text>
<text transform="matrix(1 0 0 1 41.7922 223.4121)" font-family="'ArialMT'" font-size="6">Friend</text>
<text transform="matrix(1 0 0 1 84.7922 223.4121)" font-family="'ArialMT'" font-size="6">Stranger</text>
<text transform="matrix(1 0 0 1 128.7922 223.4121)" font-family="'ArialMT'" font-size="6">Computer</text>
<text transform="matrix(1 0 0 1 320.2551 112.6304)" font-family="'ArialMT'" font-size="6">Partner</text>
<text transform="matrix(1 0 0 1 321.2551 121.9634)" font-family="'ArialMT'" font-size="6">Friend</text>
<text transform="matrix(1 0 0 1 320.9221 130.6304)" font-family="'ArialMT'" font-size="6">Stranger</text>
<text transform="matrix(1 0 0 1 320.2551 139.2964)" font-family="'ArialMT'" font-size="6">Computer</text>
<text transform="matrix(1 0 0 1 184.2532 114.6304)" font-family="'ArialMT'" font-size="6">4</text>
<text transform="matrix(1 0 0 1 181.2542 215.1924)" font-family="'ArialMT'" font-size="6">-3</text>
<text transform="matrix(1 0 0 1 19.1243 117.0059)" font-family="'ArialMT'" font-size="6">5</text>
<text transform="matrix(1 0 0 1 19.1243 215.7412)" font-family="'ArialMT'" font-size="6">0</text>
<text transform="matrix(1 0 0 1 181.2542 201.124)" font-family="'ArialMT'" font-size="6">-2</text>
<text transform="matrix(1 0 0 1 181.5876 187.0576)" font-family="'ArialMT'" font-size="6">-1</text>
<text transform="matrix(1 0 0 1 183.2532 172.1968)" font-family="'ArialMT'" font-size="6">0</text>
<text transform="matrix(1 0 0 1 183.2532 157.3355)" font-family="'ArialMT'" font-size="6">1</text>
<text transform="matrix(1 0 0 1 183.2532 142.2691)" font-family="'ArialMT'" font-size="6">2</text>
<text transform="matrix(1 0 0 1 183.5867 129.023)" font-family="'ArialMT'" font-size="6">3</text>
<text transform="matrix(1 0 0 1 19.1243 135.6348)" font-family="'ArialMT'" font-size="6">4</text>
<text transform="matrix(1 0 0 1 19.1243 155.9727)" font-family="'ArialMT'" font-size="6">3</text>
<text transform="matrix(1 0 0 1 19.1243 175.5303)" font-family="'ArialMT'" font-size="6">2</text>
<text transform="matrix(1 0 0 1 19.1243 195.0733)" font-family="'ArialMT'" font-size="6">1</text>
<text transform="matrix(1 0 0 1 1.0002 102.335)" font-family="'ArialMT'" font-size="12">A</text>
<text transform="matrix(1 0 0 1 165.9778 102.335)" font-family="'ArialMT'" font-size="12">B</text>
<text transform="matrix(1 0 0 1 356.9797 102.335)" font-family="'ArialMT'" font-size="12">C</text>
</svg>
