<?xml version="1.0" encoding="utf-8"?>
<!-- Generator: Adobe Illustrator 16.0.3, SVG Export Plug-In . SVG Version: 6.00 Build 0)  -->
<!DOCTYPE svg PUBLIC "-//W3C//DTD SVG 1.1//EN" "http://www.w3.org/Graphics/SVG/1.1/DTD/svg11.dtd">
<svg version="1.1" id="Layer_1" xmlns="http://www.w3.org/2000/svg" xmlns:xlink="http://www.w3.org/1999/xlink" x="0px" y="0px"
	 width="515.906px" height="158px" viewBox="0 90.3 515.906 158" enable-background="new 0 90.3 515.906 158" xml:space="preserve">
<g id="figure_1">
	<g id="axes_1">
		<g id="patch_2">
			<path fill="#FFFFFF" d="M25.025,215.992h138.338V112.909H25.025V215.992z"/>
		</g>
		<g id="patch_3">
			<g>
				<g>
					<g>
						<g>
							<defs>
								<rect id="SVGID_1_" x="25.025" y="112.909" width="138.338" height="103.083"/>
							</defs>
							<clipPath id="SVGID_2_">
								<use xlink:href="#SVGID_1_"  overflow="visible"/>
							</clipPath>
							<path clip-path="url(#SVGID_2_)" fill="#0099BB" stroke="#000000" d="M29.639,215.992h36.891v-92.483H29.639V215.992z"/>
						</g>
					</g>
				</g>
			</g>
		</g>
		<g id="patch_4">
			<g>
				<g>
					<g>
						<g>
							<defs>
								<rect id="SVGID_3_" x="25.025" y="112.909" width="138.338" height="103.083"/>
							</defs>
							<clipPath id="SVGID_4_">
								<use xlink:href="#SVGID_3_"  overflow="visible"/>
							</clipPath>
							<path clip-path="url(#SVGID_4_)" fill="#0C9E90" stroke="#000000" d="M75.75,215.992h36.891v-44.107H75.75V215.992
								L75.75,215.992z"/>
						</g>
					</g>
				</g>
			</g>
		</g>
		<g id="patch_5">
			<g>
				<g>
					<g>
						<g>
							<defs>
								<rect id="SVGID_5_" x="25.025" y="112.909" width="138.338" height="103.083"/>
							</defs>
							<clipPath id="SVGID_6_">
								<use xlink:href="#SVGID_5_"  overflow="visible"/>
							</clipPath>
							<path clip-path="url(#SVGID_6_)" fill="#387475" stroke="#000000" d="M121.861,215.992h36.891v-43.396h-36.891V215.992z"/>
						</g>
					</g>
				</g>
			</g>
		</g>
		<g id="matplotlib.axis_1">
			<g id="xtick_1">
				<g id="line2d_1">
					<g>
						<g>
							<path id="m221cf53daa" stroke="#000000" stroke-width="0.8" stroke-linejoin="round" d="M48.082,215.992v1.357"/>
						</g>
					</g>
				</g>
				<g id="text_1">
					<g transform="translate(101.742656 322.182437)scale(0.1 -0.1)">
						<g>
							<path id="DejaVuSans-69" d="M-557.123,1034.773h3.486v-4.434h-3.486V1034.773z"/>
						</g>
					</g>
				</g>
			</g>
			<g id="xtick_2">
				<g id="line2d_2">
					<g>
						<g>
							<path id="m221cf53daa_1_" stroke="#000000" stroke-width="0.8" stroke-linejoin="round" d="M94.196,215.992v1.357"/>
						</g>
					</g>
				</g>
			</g>
			<g id="xtick_3">
				<g id="line2d_3">
					<g>
						<g>
							<path id="m221cf53daa_2_" stroke="#000000" stroke-width="0.8" stroke-linejoin="round" d="M140.309,215.992v1.357"/>
						</g>
					</g>
				</g>
			</g>
		</g>
		<g id="matplotlib.axis_2">
			<g id="ytick_1">
				<g id="line2d_4">
					<g>
						<g>
							<path id="mb6affc9f3f" stroke="#000000" stroke-width="0.8" stroke-linejoin="round" d="M25.026,215.992h-1.354"/>
						</g>
					</g>
				</g>
			</g>
			<g id="ytick_2">
				<g id="line2d_5">
					<g>
						<g>
							<path id="mb6affc9f3f_1_" stroke="#000000" stroke-width="0.8" stroke-linejoin="round" d="M25.026,196.073h-1.354"/>
						</g>
					</g>
				</g>
			</g>
			<g id="ytick_3">
				<g id="line2d_6">
					<g>
						<g>
							<path id="mb6affc9f3f_2_" stroke="#000000" stroke-width="0.8" stroke-linejoin="round" d="M25.026,176.153h-1.354"/>
						</g>
					</g>
				</g>
			</g>
			<g id="ytick_4">
				<g id="line2d_7">
					<g>
						<g>
							<path id="mb6affc9f3f_3_" stroke="#000000" stroke-width="0.8" stroke-linejoin="round" d="M25.026,156.234h-1.354"/>
						</g>
					</g>
				</g>
			</g>
			<g id="ytick_5">
				<g id="line2d_8">
					<g>
						<g>
							<path id="mb6affc9f3f_4_" stroke="#000000" stroke-width="0.8" stroke-linejoin="round" d="M25.026,136.315h-1.354"/>
						</g>
					</g>
				</g>
			</g>
			<g id="ytick_6">
				<g id="line2d_9">
					<g>
						<g>
							<path id="mb6affc9f3f_5_" stroke="#000000" stroke-width="0.8" stroke-linejoin="round" d="M25.026,116.396h-1.354"/>
						</g>
					</g>
				</g>
			</g>
		</g>
		<g id="line2d_10">
			<g>
				<g>
					<g>
						<g>
							<defs>
								<rect id="SVGID_7_" x="25.026" y="112.909" width="138.338" height="103.083"/>
							</defs>
							<clipPath id="SVGID_8_">
								<use xlink:href="#SVGID_7_"  overflow="visible"/>
							</clipPath>
							<path clip-path="url(#SVGID_8_)" fill="none" stroke="#424242" stroke-linecap="square" stroke-linejoin="round" d="
								M48.082,128.489v-10.671"/>
						</g>
					</g>
				</g>
			</g>
		</g>
		<g id="line2d_11">
			<g>
				<g>
					<g>
						<g>
							<defs>
								<rect id="SVGID_9_" x="25.026" y="112.909" width="138.338" height="103.083"/>
							</defs>
							<clipPath id="SVGID_10_">
								<use xlink:href="#SVGID_9_"  overflow="visible"/>
							</clipPath>
							<path clip-path="url(#SVGID_10_)" fill="none" stroke="#424242" stroke-linecap="square" stroke-linejoin="round" d="
								M94.196,176.865v-9.959"/>
						</g>
					</g>
				</g>
			</g>
		</g>
		<g id="line2d_12">
			<g>
				<g>
					<g>
						<g>
							<defs>
								<rect id="SVGID_11_" x="25.026" y="112.909" width="138.338" height="103.083"/>
							</defs>
							<clipPath id="SVGID_12_">
								<use xlink:href="#SVGID_11_"  overflow="visible"/>
							</clipPath>
							<path clip-path="url(#SVGID_12_)" fill="none" stroke="#424242" stroke-linecap="square" stroke-linejoin="round" d="
								M140.309,177.577v-9.961"/>
						</g>
					</g>
				</g>
			</g>
		</g>
		<g id="patch_6">
			<path fill="none" stroke="#000000" stroke-width="0.8" stroke-linecap="square" d="M25.026,215.992V112.909"/>
		</g>
		<g id="patch_7">
			<path fill="none" stroke="#000000" stroke-width="0.8" stroke-linecap="square" d="M163.364,215.992V112.909"/>
		</g>
		<g id="patch_8">
			<path fill="none" stroke="#000000" stroke-width="0.8" stroke-linecap="square" d="M25.026,215.992h138.338"/>
		</g>
		<g id="patch_9">
			<path fill="none" stroke="#000000" stroke-width="0.8" stroke-linecap="square" d="M25.026,112.909h138.338"/>
		</g>
	</g>
</g>
<g id="figure_1_1_">
	<g id="axes_1_1_">
		<g id="patch_3_1_">
			<g>
				<g>
					<g>
						<g>
							<defs>
								<rect id="SVGID_13_" x="192.296" y="106.435" width="162.447" height="121.048"/>
							</defs>
							<clipPath id="SVGID_14_">
								<use xlink:href="#SVGID_13_"  overflow="visible"/>
							</clipPath>
							<path clip-path="url(#SVGID_14_)" fill="#0099BB" stroke="#000000" d="M200.42,171.822h21.66v-52.979h-21.66V171.822z"/>
						</g>
					</g>
				</g>
			</g>
		</g>
		<g id="patch_4_1_">
			<g>
				<g>
					<g>
						<g>
							<defs>
								<rect id="SVGID_15_" x="192.296" y="106.435" width="162.447" height="121.048"/>
							</defs>
							<clipPath id="SVGID_16_">
								<use xlink:href="#SVGID_15_"  overflow="visible"/>
							</clipPath>
							<path clip-path="url(#SVGID_16_)" fill="#0099BB" stroke="#000000" d="M281.643,171.822h21.659v41.068h-21.659V171.822
								L281.643,171.822z"/>
						</g>
					</g>
				</g>
			</g>
		</g>
		<g id="patch_5_1_">
			<g>
				<g>
					<g>
						<g>
							<defs>
								<rect id="SVGID_17_" x="192.296" y="106.435" width="162.447" height="121.048"/>
							</defs>
							<clipPath id="SVGID_18_">
								<use xlink:href="#SVGID_17_"  overflow="visible"/>
							</clipPath>
							<path clip-path="url(#SVGID_18_)" fill="#0C9E90" stroke="#000000" d="M222.08,171.822h21.659v-12.854H222.08V171.822z"/>
						</g>
					</g>
				</g>
			</g>
		</g>
		<g id="patch_6_1_">
			<g>
				<g>
					<g>
						<g>
							<defs>
								<rect id="SVGID_19_" x="192.296" y="106.435" width="162.447" height="121.048"/>
							</defs>
							<clipPath id="SVGID_20_">
								<use xlink:href="#SVGID_19_"  overflow="visible"/>
							</clipPath>
							<path clip-path="url(#SVGID_20_)" fill="#0C9E90" stroke="#000000" d="M303.301,171.822h21.659v21.945h-21.659V171.822z"/>
						</g>
					</g>
				</g>
			</g>
		</g>
		<g id="patch_7_1_">
			<g>
				<g>
					<g>
						<g>
							<defs>
								<rect id="SVGID_21_" x="192.296" y="106.435" width="162.447" height="121.048"/>
							</defs>
							<clipPath id="SVGID_22_">
								<use xlink:href="#SVGID_21_"  overflow="visible"/>
							</clipPath>
							<path clip-path="url(#SVGID_22_)" fill="#387475" stroke="#000000" d="M243.739,171.822h21.66v-7.837h-21.66V171.822z"/>
						</g>
					</g>
				</g>
			</g>
		</g>
		<g id="patch_8_1_">
			<g>
				<g>
					<g>
						<g>
							<defs>
								<rect id="SVGID_23_" x="192.296" y="106.435" width="162.447" height="121.048"/>
							</defs>
							<clipPath id="SVGID_24_">
								<use xlink:href="#SVGID_23_"  overflow="visible"/>
							</clipPath>
							<path clip-path="url(#SVGID_24_)" fill="#387475" stroke="#000000" d="M324.961,171.822h21.66v17.242h-21.66V171.822z"/>
						</g>
					</g>
				</g>
			</g>
		</g>
		<g id="matplotlib.axis_1_1_">
			<g id="xtick_1_1_">
				<g id="line2d_1_1_">
					<g>
						<g>
							<path id="mb404cca711" stroke="#000000" stroke-width="0.8" stroke-linejoin="round" d="M232.909,227.483v1.59"/>
						</g>
					</g>
				</g>
			</g>
			<g id="xtick_2_1_">
				<g id="line2d_2_1_">
					<g>
						<g>
							<path id="mb404cca711_1_" stroke="#000000" stroke-width="0.8" stroke-linejoin="round" d="M314.132,227.483v1.59"/>
						</g>
					</g>
				</g>
			</g>
		</g>
		<g id="matplotlib.axis_2_1_">
			<g id="ytick_1_1_">
				<g id="line2d_3_1_">
					<g>
						<g>
							<path id="mf9525bccf2" stroke="#000000" stroke-width="0.8" stroke-linejoin="round" d="M192.296,215.083h-1.59"/>
						</g>
					</g>
				</g>
			</g>
			<g id="ytick_2_1_">
				<g id="line2d_4_1_">
					<g>
						<g>
							<path id="mf9525bccf2_1_" stroke="#000000" stroke-width="0.8" stroke-linejoin="round" d="M192.296,200.663h-1.59"/>
						</g>
					</g>
				</g>
			</g>
			<g id="ytick_3_1_">
				<g id="line2d_5_1_">
					<g>
						<g>
							<path id="mf9525bccf2_2_" stroke="#000000" stroke-width="0.8" stroke-linejoin="round" d="M192.296,186.243h-1.59"/>
						</g>
					</g>
				</g>
			</g>
			<g id="ytick_4_1_">
				<g id="line2d_6_1_">
					<g>
						<g>
							<path id="mf9525bccf2_3_" stroke="#000000" stroke-width="0.8" stroke-linejoin="round" d="M192.296,171.822h-1.59"/>
						</g>
					</g>
				</g>
			</g>
			<g id="ytick_5_1_">
				<g id="line2d_7_1_">
					<g>
						<g>
							<path id="mf9525bccf2_4_" stroke="#000000" stroke-width="0.8" stroke-linejoin="round" d="M192.296,157.402h-1.59"/>
						</g>
					</g>
				</g>
			</g>
			<g id="ytick_6_1_">
				<g id="line2d_8_1_">
					<g>
						<g>
							<path id="mf9525bccf2_5_" stroke="#000000" stroke-width="0.8" stroke-linejoin="round" d="M192.296,142.981h-1.59"/>
						</g>
					</g>
				</g>
			</g>
			<g id="ytick_7">
				<g id="line2d_9_1_">
					<g>
						<g>
							<path id="mf9525bccf2_6_" stroke="#000000" stroke-width="0.8" stroke-linejoin="round" d="M192.296,128.56h-1.59"/>
						</g>
					</g>
				</g>
			</g>
			<g id="ytick_8">
				<g id="line2d_10_1_">
					<g>
						<g>
							<path id="mf9525bccf2_7_" stroke="#000000" stroke-width="0.8" stroke-linejoin="round" d="M192.296,114.14h-1.59"/>
						</g>
					</g>
				</g>
			</g>
		</g>
		<g id="line2d_11_1_">
			<g>
				<g>
					<g>
						<g>
							<defs>
								<rect id="SVGID_25_" x="192.296" y="106.435" width="162.447" height="121.048"/>
							</defs>
							<clipPath id="SVGID_26_">
								<use xlink:href="#SVGID_25_"  overflow="visible"/>
							</clipPath>
							<path clip-path="url(#SVGID_26_)" fill="none" stroke="#424242" stroke-linecap="square" stroke-linejoin="round" d="
								M211.25,126.679v-14.742"/>
						</g>
					</g>
				</g>
			</g>
		</g>
		<g id="line2d_12_1_">
			<g>
				<g>
					<g>
						<g>
							<defs>
								<rect id="SVGID_27_" x="192.296" y="106.435" width="162.447" height="121.048"/>
							</defs>
							<clipPath id="SVGID_28_">
								<use xlink:href="#SVGID_27_"  overflow="visible"/>
							</clipPath>
							<path clip-path="url(#SVGID_28_)" fill="none" stroke="#424242" stroke-linecap="square" stroke-linejoin="round" d="
								M292.472,221.981v-19.123"/>
						</g>
					</g>
				</g>
			</g>
		</g>
		<g id="line2d_13">
			<g>
				<g>
					<g>
						<g>
							<defs>
								<rect id="SVGID_29_" x="192.296" y="106.435" width="162.447" height="121.048"/>
							</defs>
							<clipPath id="SVGID_30_">
								<use xlink:href="#SVGID_29_"  overflow="visible"/>
							</clipPath>
							<path clip-path="url(#SVGID_30_)" fill="none" stroke="#424242" stroke-linecap="square" stroke-linejoin="round" d="
								M232.909,169.941v-21.012"/>
						</g>
					</g>
				</g>
			</g>
		</g>
		<g id="line2d_14">
			<g>
				<g>
					<g>
						<g>
							<defs>
								<rect id="SVGID_31_" x="192.296" y="106.435" width="162.447" height="121.048"/>
							</defs>
							<clipPath id="SVGID_32_">
								<use xlink:href="#SVGID_31_"  overflow="visible"/>
							</clipPath>
							<path clip-path="url(#SVGID_32_)" fill="none" stroke="#424242" stroke-linecap="square" stroke-linejoin="round" d="
								M314.132,201.298V186.56"/>
						</g>
					</g>
				</g>
			</g>
		</g>
		<g id="line2d_15">
			<g>
				<g>
					<g>
						<g>
							<defs>
								<rect id="SVGID_33_" x="192.296" y="106.435" width="162.447" height="121.048"/>
							</defs>
							<clipPath id="SVGID_34_">
								<use xlink:href="#SVGID_33_"  overflow="visible"/>
							</clipPath>
							<path clip-path="url(#SVGID_34_)" fill="none" stroke="#424242" stroke-linecap="square" stroke-linejoin="round" d="
								M254.567,174.964v-21.949"/>
						</g>
					</g>
				</g>
			</g>
		</g>
		<g id="line2d_16">
			<g>
				<g>
					<g>
						<g>
							<defs>
								<rect id="SVGID_35_" x="192.296" y="106.435" width="162.447" height="121.048"/>
							</defs>
							<clipPath id="SVGID_36_">
								<use xlink:href="#SVGID_35_"  overflow="visible"/>
							</clipPath>
							<path clip-path="url(#SVGID_36_)" fill="none" stroke="#424242" stroke-linecap="square" stroke-linejoin="round" d="
								M335.792,198.782v-18.188"/>
						</g>
					</g>
				</g>
			</g>
		</g>
		<g id="patch_9_1_">
			<path fill="none" stroke="#000000" stroke-width="0.8" stroke-linecap="square" d="M192.296,227.483V106.435"/>
		</g>
		<g id="patch_10">
			<path fill="none" stroke="#000000" stroke-linecap="square" d="M354.744,227.483V106.435"/>
		</g>
		<g id="patch_11">
			<path fill="none" stroke="#000000" stroke-width="0.8" stroke-linecap="square" d="M192.296,227.483h162.447"/>
		</g>
		<g id="patch_12">
			<path fill="none" stroke="#000000" stroke-width="0.8" stroke-linecap="square" d="M192.296,106.435h162.447"/>
		</g>
		<g id="legend_1">
			<g id="patch_14">
				<path fill="#0099BB" stroke="#000000" d="M311.496,113.842h11.383v-3.983h-11.383V113.842z"/>
			</g>
			<g id="patch_15">
				<path fill="#0C9E90" stroke="#000000" d="M311.496,122.196h11.383v-3.983h-11.383V122.196z"/>
			</g>
			<g id="patch_16">
				<path fill="#387475" stroke="#000000" d="M311.496,130.552h11.383v-3.983h-11.383V130.552z"/>
			</g>
		</g>
	</g>
</g>
<text transform="matrix(1 0 0 1 370.3127 119.73)" font-family="'MyriadPro-Regular'" font-size="6" letter-spacing="15"> </text>
<text transform="matrix(1 0 0 1 387.6633 118.73)" font-family="'ArialMT'" font-size="6">10</text>
<text transform="matrix(1 0 0 1 389.7815 153.6831)" font-family="'ArialMT'" font-size="6">5</text>
<text transform="matrix(1 0 0 1 389.7815 191.8096)" font-family="'ArialMT'" font-size="6">0</text>
<text transform="matrix(1 0 0 1 422.6565 234.8272)" font-family="'ArialMT'" font-size="6">-2.5</text>
<text transform="matrix(1 0 0 1 455.3743 234.0557)" font-family="'ArialMT'" font-size="6">0</text>
<text transform="matrix(1 0 0 1 482.6633 234.5264)" font-family="'ArialMT'" font-size="6">2.5</text>
<text transform="matrix(0.0144 -0.9999 0.9999 0.0144 180.9417 178.916)" font-family="'ArialMT'" font-size="8">Rating</text>
<text transform="matrix(1 0 0 1 255.9221 244.4033)" font-family="'ArialMT'" font-size="8">Outcome</text>
<text transform="matrix(1 0 0 1 428.9211 244.4033)" font-family="'ArialMT'" font-size="8">Reward Sensitivity</text>
<text transform="matrix(-6.503243e-004 -1 1 -6.503243e-004 374.3665 192.6768)" font-family="'ArialMT'" font-size="8">Difference in </text>
<text transform="matrix(-6.503243e-004 -1 1 -6.503243e-004 383.9807 214.6807)" font-family="'ArialMT'" font-size="8">Friend vs Stranger Rating</text>
<text transform="matrix(-4.371139e-008 -1 1 -4.371139e-008 16.9153 182.5811)" font-family="'ArialMT'" font-size="8">Closeness</text>
<text transform="matrix(1 0 0 1 83.1262 240.0742)" font-family="'ArialMT'" font-size="8">Partner</text>
<text transform="matrix(1 0 0 1 227.2551 236.0694)" font-family="'ArialMT'" font-size="6">Win</text>
<text transform="matrix(1 0 0 1 308.9221 236.0694)" font-family="'ArialMT'" font-size="6">Lose</text>
<text transform="matrix(1 0 0 1 41.7922 225.4121)" font-family="'ArialMT'" font-size="6">Friend</text>
<text transform="matrix(1 0 0 1 84.7922 225.4121)" font-family="'ArialMT'" font-size="6">Stranger</text>
<text transform="matrix(1 0 0 1 128.7922 225.4121)" font-family="'ArialMT'" font-size="6">Computer</text>
<text transform="matrix(1 0 0 1 327.6379 114.145)" font-family="'ArialMT'" font-size="6">Friend</text>
<text transform="matrix(1 0 0 1 327.3049 122.812)" font-family="'ArialMT'" font-size="6">Stranger</text>
<text transform="matrix(1 0 0 1 326.6379 131.478)" font-family="'ArialMT'" font-size="6">Computer</text>
<text transform="matrix(1 0 0 1 185.2532 116.6304)" font-family="'ArialMT'" font-size="6">4</text>
<text transform="matrix(1 0 0 1 182.2542 217.1924)" font-family="'ArialMT'" font-size="6">-3</text>
<text transform="matrix(1 0 0 1 19.1243 119.0059)" font-family="'ArialMT'" font-size="6">5</text>
<text transform="matrix(1 0 0 1 19.1243 217.7412)" font-family="'ArialMT'" font-size="6">0</text>
<text transform="matrix(1 0 0 1 182.2542 203.124)" font-family="'ArialMT'" font-size="6">-2</text>
<text transform="matrix(1 0 0 1 182.5876 189.0576)" font-family="'ArialMT'" font-size="6">-1</text>
<text transform="matrix(1 0 0 1 184.2532 174.1963)" font-family="'ArialMT'" font-size="6">0</text>
<text transform="matrix(1 0 0 1 184.2532 159.3355)" font-family="'ArialMT'" font-size="6">1</text>
<text transform="matrix(1 0 0 1 184.2532 144.2691)" font-family="'ArialMT'" font-size="6">2</text>
<text transform="matrix(1 0 0 1 184.5867 131.023)" font-family="'ArialMT'" font-size="6">3</text>
<text transform="matrix(1 0 0 1 19.1243 137.6348)" font-family="'ArialMT'" font-size="6">4</text>
<text transform="matrix(1 0 0 1 19.1243 157.9727)" font-family="'ArialMT'" font-size="6">3</text>
<text transform="matrix(1 0 0 1 19.1243 177.5303)" font-family="'ArialMT'" font-size="6">2</text>
<text transform="matrix(1 0 0 1 19.1243 197.0733)" font-family="'ArialMT'" font-size="6">1</text>
<text transform="matrix(1 0 0 1 2.0002 102.335)" font-family="'Arial-BoldMT'" font-size="12">A</text>
<text transform="matrix(1 0 0 1 167.9778 102.335)" font-family="'Arial-BoldMT'" font-size="12">B</text>
<text transform="matrix(1 0 0 1 359.9797 102.335)" font-family="'Arial-BoldMT'" font-size="12">C</text>
<g>
	<defs>
		<rect id="SVGID_37_" x="399.417" y="110.124" width="113.012" height="115.703"/>
	</defs>
	<clipPath id="SVGID_38_">
		<use xlink:href="#SVGID_37_"  overflow="visible"/>
	</clipPath>
	<g clip-path="url(#SVGID_38_)">
		<polyline fill="#FFFFFF" stroke="#000000" stroke-miterlimit="10" points="512.429,225.827 399.417,225.827 399.417,110.124 		"/>
		<path fill="none" stroke="#FFFFFF" stroke-linejoin="round" stroke-miterlimit="10" d="M512.429,209.298"/>
		<path fill="none" stroke="#FFFFFF" stroke-linejoin="round" stroke-miterlimit="10" d="M399.417,209.298"/>
		
			<line fill="none" stroke="#FFFFFF" stroke-linejoin="round" stroke-miterlimit="10" x1="399.417" y1="171.734" x2="512.429" y2="171.734"/>
		<path fill="none" stroke="#FFFFFF" stroke-linejoin="round" stroke-miterlimit="10" d="M512.429,134.163"/>
		<path fill="none" stroke="#FFFFFF" stroke-linejoin="round" stroke-miterlimit="10" d="M399.417,134.163"/>
		<path fill="none" stroke="#FFFFFF" stroke-linejoin="round" stroke-miterlimit="10" d="M414.509,110.124"/>
		<path fill="none" stroke="#FFFFFF" stroke-linejoin="round" stroke-miterlimit="10" d="M414.509,225.82"/>
		<path fill="none" stroke="#FFFFFF" stroke-linejoin="round" stroke-miterlimit="10" d="M443.049,110.124"/>
		<path fill="none" stroke="#FFFFFF" stroke-linejoin="round" stroke-miterlimit="10" d="M443.049,225.82"/>
		<path fill="none" stroke="#FFFFFF" stroke-linejoin="round" stroke-miterlimit="10" d="M471.588,110.124"/>
		<path fill="none" stroke="#FFFFFF" stroke-linejoin="round" stroke-miterlimit="10" d="M471.588,225.82"/>
		<path fill="none" stroke="#FFFFFF" stroke-linejoin="round" stroke-miterlimit="10" d="M500.126,110.124"/>
		<path fill="none" stroke="#FFFFFF" stroke-linejoin="round" stroke-miterlimit="10" d="M500.126,225.82"/>
		<path fill="none" stroke="#FFFFFF" stroke-linejoin="round" stroke-miterlimit="10" d="M512.429,190.514"/>
		<path fill="none" stroke="#FFFFFF" stroke-linejoin="round" stroke-miterlimit="10" d="M399.417,190.514"/>
		<path fill="none" stroke="#FFFFFF" stroke-linejoin="round" stroke-miterlimit="10" d="M512.429,152.948"/>
		<path fill="none" stroke="#FFFFFF" stroke-linejoin="round" stroke-miterlimit="10" d="M399.417,152.948"/>
		<path fill="#FFFFFF" stroke="#000000" stroke-miterlimit="10" d="M512.429,115.384"/>
		<path fill="#FFFFFF" stroke="#000000" stroke-miterlimit="10" d="M399.417,115.384"/>
		
			<line fill="none" stroke="#FFFFFF" stroke-linejoin="round" stroke-miterlimit="10" x1="400.244" y1="225.82" x2="400.244" y2="110.124"/>
		<path fill="none" stroke="#FFFFFF" stroke-linejoin="round" stroke-miterlimit="10" d="M428.782,110.124"/>
		<path fill="none" stroke="#FFFFFF" stroke-linejoin="round" stroke-miterlimit="10" d="M428.782,225.82"/>
		<path fill="none" stroke="#FFFFFF" stroke-linejoin="round" stroke-miterlimit="10" d="M457.317,110.124"/>
		<path fill="none" stroke="#FFFFFF" stroke-linejoin="round" stroke-miterlimit="10" d="M457.317,225.82"/>
		<path fill="none" stroke="#FFFFFF" stroke-linejoin="round" stroke-miterlimit="10" d="M485.855,110.124"/>
		<path fill="none" stroke="#FFFFFF" stroke-linejoin="round" stroke-miterlimit="10" d="M485.855,225.82"/>
		<polygon fill="#999999" fill-opacity="0.4" points="404.557,142.66 405.854,144.45 407.153,146.172 408.457,147.816 
			409.756,149.387 411.06,150.879 412.357,152.292 413.656,153.628 414.959,154.876 416.256,156.042 417.562,157.12 418.86,158.109 
			420.157,159.013 421.461,159.826 422.76,160.549 424.064,161.185 425.363,161.731 426.658,162.203 427.965,162.592 
			429.262,162.907 430.567,163.162 431.865,163.351 433.164,163.478 434.466,163.556 435.763,163.593 437.069,163.587 
			438.367,163.545 439.664,163.473 440.969,163.368 442.268,163.241 443.571,163.096 444.869,162.932 446.167,162.75 
			447.471,162.556 448.769,162.35 450.074,162.131 451.371,161.9 452.669,161.664 453.974,161.421 455.271,161.167 456.575,160.906 
			457.873,160.646 459.172,160.372 460.476,160.092 461.774,159.809 463.078,159.511 464.379,159.213 465.674,158.899 
			466.977,158.582 468.277,158.249 469.582,157.909 470.879,157.551 472.176,157.174 473.481,156.787 474.78,156.375 
			476.082,155.938 477.381,155.47 478.68,154.974 479.983,154.446 481.28,153.876 482.587,153.264 483.884,152.596 485.181,151.881 
			486.486,151.097 487.783,150.255 489.089,149.344 490.387,148.35 491.684,147.283 492.99,146.137 494.287,144.898 495.59,143.575 
			496.89,142.169 498.185,140.677 499.49,139.093 500.789,137.426 502.094,135.673 503.391,133.841 504.688,131.923 
			505.993,129.928 507.29,127.86 507.29,168.3 505.993,168.475 504.688,168.682 503.391,168.923 502.094,169.197 500.789,169.507 
			499.49,169.858 498.185,170.248 496.89,170.679 495.59,171.149 494.287,171.659 492.99,172.218 491.684,172.806 490.387,173.432 
			489.089,174.093 487.783,174.778 486.486,175.495 485.181,176.228 483.884,176.973 482.587,177.726 481.28,178.483 
			479.983,179.242 478.68,179.988 477.381,180.728 476.082,181.451 474.78,182.16 473.481,182.838 472.176,183.501 470.879,184.131 
			469.582,184.731 468.277,185.296 466.977,185.836 465.674,186.334 464.379,186.796 463.078,187.226 461.774,187.612 
			460.476,187.958 459.172,188.269 457.873,188.54 456.575,188.771 455.271,188.964 453.974,189.117 452.669,189.227 
			451.371,189.308 450.074,189.342 448.769,189.348 447.471,189.312 446.167,189.244 444.869,189.146 443.571,189.013 
			442.268,188.856 440.969,188.674 439.664,188.474 438.367,188.248 437.069,188.015 435.763,187.771 434.466,187.516 
			433.164,187.261 431.865,187.019 430.567,186.775 429.262,186.559 427.965,186.355 426.658,186.188 425.363,186.048 
			424.064,185.944 422.76,185.879 421.461,185.854 420.157,185.872 418.86,185.931 417.562,186.036 416.256,186.182 
			414.959,186.371 413.656,186.594 412.357,186.86 411.06,187.157 409.756,187.491 408.457,187.857 407.153,188.244 
			405.854,188.664 404.557,189.112 		"/>
		<polyline fill="none" points="404.557,142.66 405.854,144.45 407.153,146.172 408.457,147.816 409.756,149.387 411.06,150.879 
			412.357,152.292 413.656,153.628 414.959,154.876 416.256,156.042 417.562,157.12 418.86,158.109 420.157,159.013 
			421.461,159.826 422.76,160.549 424.064,161.185 425.363,161.731 426.658,162.203 427.965,162.592 429.262,162.907 
			430.567,163.162 431.865,163.351 433.164,163.478 434.466,163.556 435.763,163.593 437.069,163.587 438.367,163.545 
			439.664,163.473 440.969,163.368 442.268,163.241 443.571,163.096 444.869,162.932 446.167,162.75 447.471,162.556 
			448.769,162.35 450.074,162.131 451.371,161.9 452.669,161.664 453.974,161.421 455.271,161.167 456.575,160.906 457.873,160.646 
			459.172,160.372 460.476,160.092 461.774,159.809 463.078,159.511 464.379,159.213 465.674,158.899 466.977,158.582 
			468.277,158.249 469.582,157.909 470.879,157.551 472.176,157.174 473.481,156.787 474.78,156.375 476.082,155.938 
			477.381,155.47 478.68,154.974 479.983,154.446 481.28,153.876 482.587,153.264 483.884,152.596 485.181,151.881 486.486,151.097 
			487.783,150.255 489.089,149.344 490.387,148.35 491.684,147.283 492.99,146.137 494.287,144.898 495.59,143.575 496.89,142.169 
			498.185,140.677 499.49,139.093 500.789,137.426 502.094,135.673 503.391,133.841 504.688,131.923 505.993,129.928 507.29,127.86 
					"/>
		<polyline fill="none" points="507.29,168.3 505.993,168.475 504.688,168.682 503.391,168.923 502.094,169.197 500.789,169.507 
			499.49,169.858 498.185,170.248 496.89,170.679 495.59,171.149 494.287,171.659 492.99,172.218 491.684,172.806 490.387,173.432 
			489.089,174.093 487.783,174.778 486.486,175.495 485.181,176.228 483.884,176.973 482.587,177.726 481.28,178.483 
			479.983,179.242 478.68,179.988 477.381,180.728 476.082,181.451 474.78,182.16 473.481,182.838 472.176,183.501 470.879,184.131 
			469.582,184.731 468.277,185.296 466.977,185.836 465.674,186.334 464.379,186.796 463.078,187.226 461.774,187.612 
			460.476,187.958 459.172,188.269 457.873,188.54 456.575,188.771 455.271,188.964 453.974,189.117 452.669,189.227 
			451.371,189.308 450.074,189.342 448.769,189.348 447.471,189.312 446.167,189.244 444.869,189.146 443.571,189.013 
			442.268,188.856 440.969,188.674 439.664,188.474 438.367,188.248 437.069,188.015 435.763,187.771 434.466,187.516 
			433.164,187.261 431.865,187.019 430.567,186.775 429.262,186.559 427.965,186.355 426.658,186.188 425.363,186.048 
			424.064,185.944 422.76,185.879 421.461,185.854 420.157,185.872 418.86,185.931 417.562,186.036 416.256,186.182 
			414.959,186.371 413.656,186.594 412.357,186.86 411.06,187.157 409.756,187.491 408.457,187.857 407.153,188.244 
			405.854,188.664 404.557,189.112 		"/>
		<polyline fill="none" stroke="#000000" stroke-linejoin="round" stroke-miterlimit="10" points="404.557,165.886 405.854,166.56 
			407.153,167.208 408.457,167.832 409.756,168.439 411.06,169.021 412.357,169.58 413.656,170.113 414.959,170.625 
			416.256,171.115 417.562,171.581 418.86,172.024 420.157,172.442 421.461,172.837 422.76,173.213 424.064,173.563 
			425.363,173.893 426.658,174.196 427.965,174.476 429.262,174.735 430.567,174.972 431.865,175.185 433.164,175.372 
			434.466,175.536 435.763,175.683 437.069,175.802 438.367,175.901 439.664,175.972 440.969,176.021 442.268,176.052 
			443.571,176.058 444.869,176.04 446.167,175.997 447.471,175.932 448.769,175.847 450.074,175.736 451.371,175.604 
			452.669,175.444 453.974,175.27 455.271,175.063 456.575,174.837 457.873,174.59 459.172,174.316 460.476,174.025 
			461.774,173.712 463.078,173.364 464.379,173.002 465.674,172.618 466.977,172.207 468.277,171.775 469.582,171.321 
			470.879,170.842 472.176,170.337 473.481,169.811 474.78,169.265 476.082,168.695 477.381,168.1 478.68,167.481 479.983,166.844 
			481.28,166.177 482.587,165.491 483.884,164.782 485.181,164.055 486.486,163.296 487.783,162.519 489.089,161.718 
			490.387,160.894 491.684,160.044 492.99,159.178 494.287,158.279 495.59,157.363 496.89,156.424 498.185,155.464 499.49,154.477 
			500.789,153.469 502.094,152.437 503.391,151.383 504.688,150.303 505.993,149.205 507.29,148.076 		"/>
		
			<circle fill="none" stroke="#000000" stroke-linecap="round" stroke-linejoin="round" stroke-miterlimit="10" cx="450.213" cy="190.511" r="1.183"/>
		
			<circle fill="none" stroke="#000000" stroke-linecap="round" stroke-linejoin="round" stroke-miterlimit="10" cx="450.213" cy="205.537" r="1.182"/>
		
			<circle fill="none" stroke="#000000" stroke-linecap="round" stroke-linejoin="round" stroke-miterlimit="10" cx="461.627" cy="182.997" r="1.184"/>
		<path fill="none" stroke="#000000" stroke-linecap="round" stroke-linejoin="round" stroke-miterlimit="10" d="M438.805,144.25
			c0.652,0,1.18,0.53,1.18,1.183c0,0.653-0.527,1.183-1.18,1.183c-0.654,0-1.184-0.53-1.184-1.183
			C437.621,144.779,438.151,144.25,438.805,144.25z"/>
		
			<circle fill="none" stroke="#000000" stroke-linecap="round" stroke-linejoin="round" stroke-miterlimit="10" cx="484.459" cy="167.972" r="1.183"/>
		
			<circle fill="none" stroke="#000000" stroke-linecap="round" stroke-linejoin="round" stroke-miterlimit="10" cx="404.557" cy="167.972" r="1.183"/>
		
			<circle fill="none" stroke="#000000" stroke-linecap="round" stroke-linejoin="round" stroke-miterlimit="10" cx="507.29" cy="167.972" r="1.183"/>
		
			<circle fill="none" stroke="#000000" stroke-linecap="round" stroke-linejoin="round" stroke-miterlimit="10" cx="415.972" cy="152.947" r="1.183"/>
		
			<circle fill="none" stroke="#000000" stroke-linecap="round" stroke-linejoin="round" stroke-miterlimit="10" cx="484.459" cy="190.511" r="1.183"/>
		
			<circle fill="none" stroke="#000000" stroke-linecap="round" stroke-linejoin="round" stroke-miterlimit="10" cx="484.459" cy="152.947" r="1.183"/>
		<path fill="none" stroke="#000000" stroke-linecap="round" stroke-linejoin="round" stroke-miterlimit="10" d="M438.805,181.813
			c0.652,0,1.18,0.531,1.18,1.184c0,0.653-0.527,1.185-1.18,1.185c-0.654,0-1.184-0.531-1.184-1.185
			C437.621,182.344,438.151,181.813,438.805,181.813z"/>
		
			<circle fill="none" stroke="#000000" stroke-linecap="round" stroke-linejoin="round" stroke-miterlimit="10" cx="484.459" cy="190.511" r="1.183"/>
		
			<circle fill="none" stroke="#000000" stroke-linecap="round" stroke-linejoin="round" stroke-miterlimit="10" cx="427.388" cy="175.488" r="1.183"/>
		
			<circle fill="none" stroke="#000000" stroke-linecap="round" stroke-linejoin="round" stroke-miterlimit="10" cx="507.29" cy="152.947" r="1.183"/>
		
			<circle fill="none" stroke="#000000" stroke-linecap="round" stroke-linejoin="round" stroke-miterlimit="10" cx="484.459" cy="145.432" r="1.183"/>
		
			<circle fill="none" stroke="#000000" stroke-linecap="round" stroke-linejoin="round" stroke-miterlimit="10" cx="473.043" cy="182.997" r="1.184"/>
		
			<circle fill="none" stroke="#000000" stroke-linecap="round" stroke-linejoin="round" stroke-miterlimit="10" cx="404.557" cy="182.997" r="1.184"/>
		<path fill="none" stroke="#000000" stroke-linecap="round" stroke-linejoin="round" stroke-miterlimit="10" d="M438.805,144.25
			c0.652,0,1.18,0.53,1.18,1.183c0,0.653-0.527,1.183-1.18,1.183c-0.654,0-1.184-0.53-1.184-1.183
			C437.621,144.779,438.151,144.25,438.805,144.25z"/>
		
			<circle fill="none" stroke="#000000" stroke-linecap="round" stroke-linejoin="round" stroke-miterlimit="10" cx="427.388" cy="182.997" r="1.184"/>
		
			<circle fill="none" stroke="#000000" stroke-linecap="round" stroke-linejoin="round" stroke-miterlimit="10" cx="507.29" cy="160.463" r="1.183"/>
		
			<circle fill="none" stroke="#000000" stroke-linecap="round" stroke-linejoin="round" stroke-miterlimit="10" cx="450.213" cy="182.997" r="1.184"/>
		
			<circle fill="none" stroke="#000000" stroke-linecap="round" stroke-linejoin="round" stroke-miterlimit="10" cx="427.388" cy="152.947" r="1.183"/>
		
			<circle fill="none" stroke="#000000" stroke-linecap="round" stroke-linejoin="round" stroke-miterlimit="10" cx="415.972" cy="220.563" r="1.182"/>
		
			<circle fill="none" stroke="#000000" stroke-linecap="round" stroke-linejoin="round" stroke-miterlimit="10" cx="507.29" cy="115.383" r="1.183"/>
		
			<circle fill="none" stroke="#000000" stroke-linecap="round" stroke-linejoin="round" stroke-miterlimit="10" cx="473.043" cy="152.947" r="1.183"/>
		
			<circle fill="none" stroke="#000000" stroke-linecap="round" stroke-linejoin="round" stroke-miterlimit="10" cx="495.876" cy="160.463" r="1.183"/>
		
			<circle fill="none" stroke="#000000" stroke-linecap="round" stroke-linejoin="round" stroke-miterlimit="10" cx="507.29" cy="115.383" r="1.183"/>
		<path fill="none" stroke="#000000" stroke-linecap="round" stroke-linejoin="round" stroke-miterlimit="10" d="M438.805,144.25
			c0.652,0,1.18,0.53,1.18,1.183c0,0.653-0.527,1.183-1.18,1.183c-0.654,0-1.184-0.53-1.184-1.183
			C437.621,144.779,438.151,144.25,438.805,144.25z"/>
		
			<circle fill="none" stroke="#000000" stroke-linecap="round" stroke-linejoin="round" stroke-miterlimit="10" cx="461.627" cy="182.997" r="1.184"/>
		
			<circle fill="none" stroke="#000000" stroke-linecap="round" stroke-linejoin="round" stroke-miterlimit="10" cx="507.29" cy="175.488" r="1.183"/>
		
			<circle fill="none" stroke="#000000" stroke-linecap="round" stroke-linejoin="round" stroke-miterlimit="10" cx="415.972" cy="160.463" r="1.183"/>
		
			<circle fill="none" stroke="#000000" stroke-linecap="round" stroke-linejoin="round" stroke-miterlimit="10" cx="427.388" cy="167.972" r="1.183"/>
		
			<circle fill="none" stroke="#000000" stroke-linecap="round" stroke-linejoin="round" stroke-miterlimit="10" cx="404.557" cy="175.488" r="1.183"/>
		
			<circle fill="none" stroke="#000000" stroke-linecap="round" stroke-linejoin="round" stroke-miterlimit="10" cx="495.876" cy="122.898" r="1.183"/>
		
			<circle fill="none" stroke="#000000" stroke-linecap="round" stroke-linejoin="round" stroke-miterlimit="10" cx="415.972" cy="167.972" r="1.183"/>
		
			<circle fill="none" stroke="#000000" stroke-linecap="round" stroke-linejoin="round" stroke-miterlimit="10" cx="450.213" cy="175.488" r="1.183"/>
		
			<circle fill="none" stroke="#000000" stroke-linecap="round" stroke-linejoin="round" stroke-miterlimit="10" cx="495.876" cy="182.997" r="1.184"/>
		<path fill="none" stroke="#000000" stroke-linecap="round" stroke-linejoin="round" stroke-miterlimit="10" d="M461.627,189.328
			c0.654,0,1.186,0.531,1.186,1.186c0,0.651-0.531,1.181-1.186,1.181c-0.652,0-1.18-0.529-1.18-1.181
			C460.448,189.859,460.975,189.328,461.627,189.328z"/>
		
			<circle fill="none" stroke="#000000" stroke-linecap="round" stroke-linejoin="round" stroke-miterlimit="10" cx="415.972" cy="160.463" r="1.183"/>
		<path fill="none" stroke="#000000" stroke-linecap="round" stroke-linejoin="round" stroke-miterlimit="10" d="M438.805,181.813
			c0.652,0,1.18,0.531,1.18,1.184c0,0.653-0.527,1.185-1.18,1.185c-0.654,0-1.184-0.531-1.184-1.185
			C437.621,182.344,438.151,181.813,438.805,181.813z"/>
		
			<circle fill="none" stroke="#000000" stroke-linecap="round" stroke-linejoin="round" stroke-miterlimit="10" cx="484.459" cy="122.898" r="1.183"/>
		
			<circle fill="none" stroke="#000000" stroke-linecap="round" stroke-linejoin="round" stroke-miterlimit="10" cx="415.972" cy="152.947" r="1.183"/>
		<path fill="none" stroke="#000000" stroke-linecap="round" stroke-linejoin="round" stroke-miterlimit="10" d="M461.627,189.328
			c0.654,0,1.186,0.531,1.186,1.186c0,0.651-0.531,1.181-1.186,1.181c-0.652,0-1.18-0.529-1.18-1.181
			C460.448,189.859,460.975,189.328,461.627,189.328z"/>
	</g>
</g>
<line fill="none" stroke="#333333" stroke-linejoin="round" stroke-miterlimit="10" x1="397.757" y1="190.514" x2="399.417" y2="190.514"/>
<line fill="none" stroke="#333333" stroke-linejoin="round" stroke-miterlimit="10" x1="397.757" y1="152.948" x2="399.417" y2="152.948"/>
<line fill="none" stroke="#333333" stroke-linejoin="round" stroke-miterlimit="10" x1="397.757" y1="115.384" x2="399.417" y2="115.384"/>
<line fill="none" stroke="#333333" stroke-linejoin="round" stroke-miterlimit="10" x1="400.244" y1="227.481" x2="400.244" y2="225.82"/>
<line fill="none" stroke="#333333" stroke-linejoin="round" stroke-miterlimit="10" x1="428.782" y1="227.481" x2="428.782" y2="225.82"/>
<line fill="none" stroke="#333333" stroke-linejoin="round" stroke-miterlimit="10" x1="457.317" y1="227.481" x2="457.317" y2="225.82"/>
<line fill="none" stroke="#333333" stroke-linejoin="round" stroke-miterlimit="10" x1="485.855" y1="227.481" x2="485.855" y2="225.82"/>
<text transform="matrix(1 0 0 1 391.4534 231.7998)" font-family="'ArialMT'" font-size="6">-5</text>
<text transform="matrix(1 0 0 1 402.7825 107.9888)"><tspan x="0" y="0" font-family="'ArialMT'" font-size="6">t(41) = 2.381, p &lt; 0.05</tspan><tspan x="59.376" y="0" font-family="'ArialMT'" font-size="6" letter-spacing="10">	</tspan><tspan x="72" y="0" font-family="'ArialMT'" font-size="6">     r = 0.298</tspan></text>
</svg>
