<?xml version="1.0" encoding="utf-8"?>
<!-- Generator: Adobe Illustrator 16.0.3, SVG Export Plug-In . SVG Version: 6.00 Build 0)  -->
<!DOCTYPE svg PUBLIC "-//W3C//DTD SVG 1.1//EN" "http://www.w3.org/Graphics/SVG/1.1/DTD/svg11.dtd">
<svg version="1.1" id="Layer_1" xmlns="http://www.w3.org/2000/svg" xmlns:xlink="http://www.w3.org/1999/xlink" x="0px" y="0px"
	 width="252.283px" height="150.5px" viewBox="24.858 32.5 252.283 150.5" enable-background="new 24.858 32.5 252.283 150.5"
	 xml:space="preserve">
<g id="surface1">
	<path fill="none" stroke="#3366FF" stroke-linejoin="round" stroke-miterlimit="10" stroke-dasharray="8.5358,8.5358" d="
		M179.396,100.382l1.125,0.248l1.125,0.248l1.125,0.248l1.127,0.248l1.125,0.248l1.127,0.246l1.124,0.248l2.253,0.496l1.125,0.248
		l1.126,0.248l1.125,0.248l1.126,0.248l1.125,0.248l1.127,0.248l1.125,0.248l1.126,0.248l1.125,0.248l1.126,0.248l1.125,0.248
		l2.253,0.496l1.124,0.248l1.127,0.248l1.125,0.247l1.127,0.248l1.124,0.248l1.126,0.248l1.125,0.248l1.127,0.248l1.125,0.248
		l2.252,0.496l1.125,0.248l1.127,0.248l1.125,0.248l1.126,0.248l1.125,0.248l1.126,0.248l1.125,0.248l1.127,0.248l1.124,0.247
		l1.127,0.248l1.125,0.246l2.253,0.496l1.124,0.247l1.127,0.248l1.125,0.248l1.126,0.248l1.125,0.248l1.126,0.248l1.125,0.247
		l1.127,0.248l1.124,0.248l2.253,0.496l1.125,0.247l1.126,0.248l1.125,0.248l1.127,0.248l1.125,0.248l1.126,0.246l1.125,0.248
		l1.126,0.248l1.125,0.247l2.253,0.496l1.125,0.248l1.126,0.248l1.125,0.247l1.126,0.248l1.125,0.248l1.127,0.248l1.125,0.248
		l1.126,0.247l1.125,0.248l1.126,0.248l1.125,0.248"/>
	<path fill="none" stroke="#000000" stroke-linecap="round" stroke-linejoin="round" stroke-miterlimit="10" d="M219.652,96.633
		c0,0.979-1.468,0.979-1.468,0C218.185,95.655,219.652,95.655,219.652,96.633"/>
	<path fill="none" stroke="#000000" stroke-linecap="round" stroke-linejoin="round" stroke-miterlimit="10" d="M219.652,93.913
		c0,0.978-1.468,0.978-1.468,0C218.185,92.934,219.652,92.934,219.652,93.913"/>
	<path fill="none" stroke="#000000" stroke-linecap="round" stroke-linejoin="round" stroke-miterlimit="10" d="M229.534,74.705
		c0,0.978-1.468,0.978-1.468,0C228.066,73.726,229.534,73.726,229.534,74.705"/>
	<path fill="none" stroke="#000000" stroke-linecap="round" stroke-linejoin="round" stroke-miterlimit="10" d="M209.771,86.959
		c0,0.978-1.467,0.978-1.467,0C208.305,85.981,209.771,85.981,209.771,86.959"/>
	<path fill="none" stroke="#000000" stroke-linecap="round" stroke-linejoin="round" stroke-miterlimit="10" d="M249.296,137.545
		c0,0.979-1.469,0.979-1.469,0C247.827,136.567,249.296,136.567,249.296,137.545"/>
	<path fill="none" stroke="#000000" stroke-linecap="round" stroke-linejoin="round" stroke-miterlimit="10" d="M180.129,110.852
		c0,0.979-1.468,0.979-1.468,0S180.129,109.874,180.129,110.852"/>
	<path fill="none" stroke="#000000" stroke-linecap="round" stroke-linejoin="round" stroke-miterlimit="10" d="M269.058,107.935
		c0,0.979-1.468,0.979-1.468,0C267.59,106.957,269.058,106.957,269.058,107.935"/>
	<path fill="none" stroke="#000000" stroke-linecap="round" stroke-linejoin="round" stroke-miterlimit="10" d="M190.01,85.509
		c0,0.979-1.467,0.979-1.467,0C188.543,84.529,190.01,84.529,190.01,85.509"/>
	<path fill="none" stroke="#000000" stroke-linecap="round" stroke-linejoin="round" stroke-miterlimit="10" d="M249.296,95.753
		c0,0.979-1.469,0.979-1.469,0C247.827,94.775,249.296,94.775,249.296,95.753"/>
	<path fill="none" stroke="#000000" stroke-linecap="round" stroke-linejoin="round" stroke-miterlimit="10" d="M249.296,119.048
		c0,0.979-1.469,0.979-1.469,0C247.827,118.071,249.296,118.071,249.296,119.048"/>
	<path fill="none" stroke="#000000" stroke-linecap="round" stroke-linejoin="round" stroke-miterlimit="10" d="M209.771,62.5
		c0,0.978-1.467,0.978-1.467,0C208.305,61.521,209.771,61.521,209.771,62.5"/>
	<path fill="none" stroke="#000000" stroke-linecap="round" stroke-linejoin="round" stroke-miterlimit="10" d="M249.296,146.706
		c0,0.98-1.469,0.98-1.469,0C247.827,145.727,249.296,145.727,249.296,146.706"/>
	<path fill="none" stroke="#000000" stroke-linecap="round" stroke-linejoin="round" stroke-miterlimit="10" d="M199.892,91.255
		c0,0.979-1.468,0.979-1.468,0C198.424,90.277,199.892,90.277,199.892,91.255"/>
	<path fill="none" stroke="#000000" stroke-linecap="round" stroke-linejoin="round" stroke-miterlimit="10" d="M269.058,125.695
		c0,0.979-1.468,0.979-1.468,0C267.59,124.715,269.058,124.715,269.058,125.695"/>
	<path fill="none" stroke="#000000" stroke-linecap="round" stroke-linejoin="round" stroke-miterlimit="10" d="M249.296,104.425
		c0,0.979-1.469,0.979-1.469,0C247.827,103.447,249.296,103.447,249.296,104.425"/>
	<path fill="none" stroke="#000000" stroke-linecap="round" stroke-linejoin="round" stroke-miterlimit="10" d="M239.415,125.481
		c0,0.979-1.468,0.979-1.468,0S239.415,124.502,239.415,125.481"/>
	<path fill="none" stroke="#000000" stroke-linecap="round" stroke-linejoin="round" stroke-miterlimit="10" d="M180.129,99.977
		c0,0.978-1.468,0.978-1.468,0C178.661,98.999,180.129,98.999,180.129,99.977"/>
	<path fill="none" stroke="#000000" stroke-linecap="round" stroke-linejoin="round" stroke-miterlimit="10" d="M209.771,151.682
		c0,0.98-1.467,0.98-1.467,0C208.305,150.703,209.771,150.703,209.771,151.682"/>
	<path fill="none" stroke="#000000" stroke-linecap="round" stroke-linejoin="round" stroke-miterlimit="10" d="M199.892,121.152
		c0,0.979-1.468,0.979-1.468,0C198.424,120.173,199.892,120.173,199.892,121.152"/>
	<path fill="none" stroke="#000000" stroke-linecap="round" stroke-linejoin="round" stroke-miterlimit="10" d="M269.058,117.34
		c0,0.979-1.468,0.979-1.468,0C267.59,116.362,269.058,116.362,269.058,117.34"/>
	<path fill="none" stroke="#000000" stroke-linecap="round" stroke-linejoin="round" stroke-miterlimit="10" d="M219.652,100.394
		c0,0.978-1.468,0.978-1.468,0C218.185,99.415,219.652,99.415,219.652,100.394"/>
	<path fill="none" stroke="#000000" stroke-linecap="round" stroke-linejoin="round" stroke-miterlimit="10" d="M199.892,114.217
		c0,0.979-1.468,0.979-1.468,0C198.424,113.24,199.892,113.24,199.892,114.217"/>
	<path fill="none" stroke="#000000" stroke-linecap="round" stroke-linejoin="round" stroke-miterlimit="10" d="M190.01,102.519
		c0,0.978-1.467,0.978-1.467,0C188.543,101.539,190.01,101.539,190.01,102.519"/>
	<path fill="none" stroke="#000000" stroke-linecap="round" stroke-linejoin="round" stroke-miterlimit="10" d="M269.058,138.201
		c0,0.979-1.468,0.979-1.468,0C267.59,137.223,269.058,137.223,269.058,138.201"/>
	<path fill="none" stroke="#000000" stroke-linecap="round" stroke-linejoin="round" stroke-miterlimit="10" d="M229.534,93.666
		c0,0.98-1.468,0.98-1.468,0C228.066,92.688,229.534,92.688,229.534,93.666"/>
	<path fill="none" stroke="#000000" stroke-linecap="round" stroke-linejoin="round" stroke-miterlimit="10" d="M239.415,131.554
		c0,0.979-1.468,0.979-1.468,0C237.947,130.576,239.415,130.576,239.415,131.554"/>
	<path fill="none" stroke="#000000" stroke-linecap="round" stroke-linejoin="round" stroke-miterlimit="10" d="M259.178,121.112
		c0,0.979-1.468,0.979-1.468,0C257.71,120.132,259.178,120.132,259.178,121.112"/>
	<path fill="none" stroke="#000000" stroke-linecap="round" stroke-linejoin="round" stroke-miterlimit="10" d="M269.058,130.529
		c0,0.98-1.468,0.98-1.468,0C267.59,129.551,269.058,129.551,269.058,130.529"/>
	<path fill="none" stroke="#000000" stroke-linecap="round" stroke-linejoin="round" stroke-miterlimit="10" d="M209.771,117.288
		c0,0.978-1.467,0.978-1.467,0C208.305,116.309,209.771,116.309,209.771,117.288"/>
	<path fill="none" stroke="#000000" stroke-linecap="round" stroke-linejoin="round" stroke-miterlimit="10" d="M229.534,145.498
		c0,0.979-1.468,0.979-1.468,0C228.066,144.519,229.534,144.519,229.534,145.498"/>
	<path fill="none" stroke="#000000" stroke-linecap="round" stroke-linejoin="round" stroke-miterlimit="10" d="M269.058,120.383
		c0,0.979-1.468,0.979-1.468,0S269.058,119.405,269.058,120.383"/>
	<path fill="none" stroke="#000000" stroke-linecap="round" stroke-linejoin="round" stroke-miterlimit="10" d="M190.01,87.503
		c0,0.978-1.467,0.978-1.467,0C188.543,86.524,190.01,86.524,190.01,87.503"/>
	<path fill="none" stroke="#000000" stroke-linecap="round" stroke-linejoin="round" stroke-miterlimit="10" d="M199.892,97.19
		c0,0.978-1.468,0.978-1.468,0C198.424,96.212,199.892,96.212,199.892,97.19"/>
	<path fill="none" stroke="#000000" stroke-linecap="round" stroke-linejoin="round" stroke-miterlimit="10" d="M180.129,93.779
		c0,0.979-1.468,0.979-1.468,0C178.661,92.799,180.129,92.799,180.129,93.779"/>
	<path fill="none" stroke="#000000" stroke-linecap="round" stroke-linejoin="round" stroke-miterlimit="10" d="M259.178,78.717
		c0,0.978-1.468,0.978-1.468,0C257.71,77.739,259.178,77.739,259.178,78.717"/>
	<path fill="none" stroke="#000000" stroke-linecap="round" stroke-linejoin="round" stroke-miterlimit="10" d="M190.01,119.622
		c0,0.979-1.467,0.979-1.467,0C188.543,118.644,190.01,118.644,190.01,119.622"/>
	<path fill="none" stroke="#000000" stroke-linecap="round" stroke-linejoin="round" stroke-miterlimit="10" d="M219.652,129.03
		c0,0.979-1.468,0.979-1.468,0C218.185,128.052,219.652,128.052,219.652,129.03"/>
	<path fill="none" stroke="#000000" stroke-linecap="round" stroke-linejoin="round" stroke-miterlimit="10" d="M259.178,117.096
		c0,0.979-1.468,0.979-1.468,0C257.71,116.119,259.178,116.119,259.178,117.096"/>
	<path fill="none" stroke="#000000" stroke-linecap="round" stroke-linejoin="round" stroke-miterlimit="10" d="M229.534,81.889
		c0,0.979-1.468,0.979-1.468,0C228.066,80.911,229.534,80.911,229.534,81.889"/>
	<path fill="none" stroke="#000000" stroke-linecap="round" stroke-linejoin="round" stroke-miterlimit="10" d="M190.01,106.506
		c0,0.978-1.467,0.978-1.467,0C188.543,105.528,190.01,105.528,190.01,106.506"/>
	<path fill="none" stroke="#000000" stroke-linecap="round" stroke-linejoin="round" stroke-miterlimit="10" d="M209.771,109.283
		c0,0.978-1.467,0.978-1.467,0C208.305,108.304,209.771,108.304,209.771,109.283"/>
	<path fill="none" stroke="#000000" stroke-linecap="round" stroke-linejoin="round" stroke-miterlimit="10" d="M249.296,113.687
		c0,0.978-1.469,0.978-1.469,0C247.827,112.708,249.296,112.708,249.296,113.687"/>
	<path fill="none" stroke="#000000" stroke-linecap="round" stroke-linejoin="round" stroke-miterlimit="10" d="M190.01,124.557
		c0,0.979-1.467,0.979-1.467,0S190.01,123.579,190.01,124.557"/>
	<path fill="none" stroke="#000000" stroke-linecap="round" stroke-linejoin="round" stroke-miterlimit="10" d="M229.534,130.712
		c0,0.979-1.468,0.979-1.468,0S229.534,129.734,229.534,130.712"/>
	<path fill="none" stroke="#000000" stroke-linecap="round" stroke-linejoin="round" stroke-miterlimit="10" d="M239.415,109.551
		c0,0.979-1.468,0.979-1.468,0C237.947,108.573,239.415,108.573,239.415,109.551"/>
	<path fill="none" stroke="#000000" stroke-linejoin="round" stroke-miterlimit="10" d="M174.949,156.143V58.041"/>
	<path fill="none" stroke="#333333" stroke-linejoin="round" stroke-miterlimit="10" d="M173.92,138.215h1.029"/>
	<path fill="none" stroke="#333333" stroke-linejoin="round" stroke-miterlimit="10" d="M173.92,118.048h1.029"/>
	<path fill="none" stroke="#333333" stroke-linejoin="round" stroke-miterlimit="10" d="M173.92,97.881h1.029"/>
	<path fill="none" stroke="#333333" stroke-linejoin="round" stroke-miterlimit="10" d="M173.92,77.714h1.029"/>
	<path fill="none" stroke="#000000" stroke-linejoin="round" stroke-miterlimit="10" d="M174.949,156.143h97.821"/>
	<path fill="none" stroke="#333333" stroke-linejoin="round" stroke-miterlimit="10" d="M175.662,157.17v-1.027"/>
	<path fill="none" stroke="#333333" stroke-linejoin="round" stroke-miterlimit="10" d="M200.365,157.17v-1.027"/>
	<path fill="none" stroke="#333333" stroke-linejoin="round" stroke-miterlimit="10" d="M225.067,157.17v-1.027"/>
	<path fill="none" stroke="#333333" stroke-linejoin="round" stroke-miterlimit="10" d="M249.77,157.17v-1.027"/>
</g>
<image overflow="visible" width="862" height="819" xlink:href="CE1C8B11.jpg"  transform="matrix(0.1151 0 0 0.1151 34.7012 65.4541)">
</image>
<text transform="matrix(1 0 0 1 28 44.5)" font-family="'ArialMT'" font-size="12">A</text>
<text transform="matrix(1 0 0 1 136 44.5)" font-family="'ArialMT'" font-size="12">B</text>
<text transform="matrix(1 0 0 1 80.5 167.5)" font-family="'ArialMT'" font-size="6">y = 12</text>
<text transform="matrix(1 0 0 1 39.6143 74.623)" font-family="'ArialMT'" font-size="6">L</text>
<line fill="none" stroke="#CCCCCC" stroke-miterlimit="10" x1="84.53" y1="121.418" x2="113.668" y2="62.883"/>
<g enable-background="new    ">
	<path d="M77.62,58.563l-2.219-5.727h0.82l1.488,4.16c0.12,0.333,0.22,0.646,0.301,0.938c0.088-0.313,0.191-0.625,0.309-0.938
		l1.547-4.16h0.773l-2.242,5.727H77.62z"/>
	<path d="M83.627,57.227l0.727,0.09c-0.115,0.425-0.327,0.754-0.637,0.988s-0.706,0.352-1.188,0.352
		c-0.607,0-1.088-0.187-1.443-0.561s-0.533-0.897-0.533-1.572c0-0.698,0.18-1.239,0.539-1.625s0.826-0.578,1.398-0.578
		c0.555,0,1.008,0.188,1.359,0.566s0.527,0.909,0.527,1.594c0,0.042-0.001,0.104-0.004,0.188H81.28
		c0.026,0.456,0.155,0.805,0.387,1.047s0.521,0.363,0.867,0.363c0.258,0,0.478-0.067,0.66-0.203S83.521,57.524,83.627,57.227z
		 M81.319,56.09h2.316c-0.031-0.349-0.12-0.61-0.266-0.785c-0.224-0.271-0.514-0.406-0.871-0.406c-0.323,0-0.594,0.108-0.814,0.324
		S81.342,55.728,81.319,56.09z"/>
	<path d="M85.237,58.563v-4.148h0.633v0.59c0.305-0.456,0.745-0.684,1.32-0.684c0.25,0,0.48,0.045,0.689,0.135
		s0.367,0.208,0.471,0.354s0.177,0.319,0.219,0.52c0.026,0.13,0.039,0.358,0.039,0.684v2.551h-0.703V56.04
		c0-0.286-0.027-0.501-0.082-0.643s-0.152-0.255-0.291-0.34s-0.303-0.127-0.49-0.127c-0.299,0-0.558,0.095-0.775,0.285
		s-0.326,0.551-0.326,1.082v2.266H85.237z"/>
	<path d="M91.221,57.934l0.102,0.621c-0.198,0.042-0.375,0.063-0.531,0.063c-0.255,0-0.453-0.04-0.594-0.121
		s-0.24-0.187-0.297-0.318s-0.086-0.408-0.086-0.83v-2.387h-0.516v-0.547h0.516v-1.027l0.699-0.422v1.449h0.707v0.547h-0.707v2.426
		c0,0.2,0.012,0.329,0.037,0.387s0.065,0.103,0.121,0.137s0.136,0.051,0.24,0.051C90.991,57.961,91.094,57.953,91.221,57.934z"/>
	<path d="M91.901,58.563v-4.148h0.633v0.629c0.162-0.294,0.311-0.488,0.447-0.582s0.287-0.141,0.451-0.141
		c0.237,0,0.478,0.075,0.723,0.227L93.913,55.2c-0.172-0.102-0.344-0.152-0.516-0.152c-0.154,0-0.292,0.046-0.414,0.139
		s-0.209,0.221-0.262,0.385c-0.078,0.25-0.117,0.523-0.117,0.82v2.172H91.901z"/>
	<path d="M97.28,58.051c-0.26,0.222-0.511,0.378-0.752,0.469s-0.5,0.137-0.775,0.137c-0.456,0-0.806-0.111-1.051-0.334
		s-0.367-0.507-0.367-0.854c0-0.203,0.046-0.389,0.139-0.557s0.213-0.303,0.363-0.404s0.318-0.179,0.506-0.23
		c0.138-0.036,0.346-0.071,0.625-0.105c0.568-0.067,0.986-0.148,1.254-0.242c0.002-0.097,0.004-0.157,0.004-0.184
		c0-0.286-0.066-0.488-0.199-0.605c-0.18-0.159-0.447-0.238-0.801-0.238c-0.331,0-0.575,0.058-0.732,0.174s-0.274,0.321-0.35,0.615
		l-0.688-0.094c0.063-0.294,0.166-0.532,0.309-0.713s0.35-0.32,0.621-0.418s0.584-0.146,0.941-0.146
		c0.354,0,0.642,0.042,0.863,0.125s0.384,0.188,0.488,0.314s0.177,0.286,0.219,0.479c0.023,0.12,0.035,0.336,0.035,0.648v0.938
		c0,0.653,0.015,1.067,0.045,1.24s0.089,0.339,0.178,0.498H97.42C97.348,58.417,97.301,58.247,97.28,58.051z M97.221,56.481
		c-0.255,0.104-0.638,0.192-1.148,0.266c-0.289,0.042-0.494,0.089-0.613,0.141s-0.212,0.128-0.277,0.229s-0.098,0.212-0.098,0.334
		c0,0.188,0.071,0.344,0.213,0.469s0.35,0.188,0.623,0.188c0.271,0,0.512-0.06,0.723-0.178s0.366-0.28,0.465-0.486
		c0.076-0.159,0.113-0.394,0.113-0.703V56.481z"/>
	<path d="M99.006,58.563v-5.727h0.703v5.727H99.006z"/>
	<path d="M102.854,56.723l0.715-0.063c0.034,0.286,0.113,0.521,0.236,0.705s0.316,0.332,0.576,0.445s0.553,0.17,0.879,0.17
		c0.289,0,0.544-0.043,0.766-0.129s0.386-0.204,0.494-0.354s0.162-0.313,0.162-0.49c0-0.18-0.052-0.337-0.156-0.471
		s-0.276-0.247-0.516-0.338c-0.154-0.06-0.494-0.153-1.02-0.279s-0.895-0.245-1.105-0.357c-0.273-0.144-0.477-0.321-0.611-0.533
		s-0.201-0.45-0.201-0.713c0-0.289,0.082-0.56,0.246-0.811s0.404-0.442,0.719-0.572s0.666-0.195,1.051-0.195
		c0.424,0,0.799,0.068,1.123,0.205s0.574,0.338,0.748,0.604s0.268,0.566,0.281,0.902l-0.727,0.055
		c-0.039-0.362-0.171-0.636-0.396-0.82s-0.558-0.277-0.998-0.277c-0.458,0-0.792,0.084-1.002,0.252s-0.314,0.37-0.314,0.607
		c0,0.206,0.074,0.375,0.223,0.508c0.146,0.133,0.527,0.269,1.143,0.408s1.039,0.261,1.268,0.365
		c0.333,0.153,0.58,0.349,0.738,0.584s0.238,0.507,0.238,0.814c0,0.305-0.087,0.592-0.262,0.861s-0.425,0.479-0.752,0.629
		s-0.695,0.225-1.104,0.225c-0.518,0-0.953-0.075-1.303-0.227s-0.625-0.378-0.824-0.682S102.864,57.106,102.854,56.723z"/>
	<path d="M109.893,57.934l0.102,0.621c-0.198,0.042-0.375,0.063-0.531,0.063c-0.255,0-0.453-0.04-0.594-0.121
		s-0.24-0.187-0.297-0.318s-0.086-0.408-0.086-0.83v-2.387h-0.516v-0.547h0.516v-1.027l0.699-0.422v1.449h0.707v0.547h-0.707v2.426
		c0,0.2,0.012,0.329,0.037,0.387s0.065,0.103,0.121,0.137s0.136,0.051,0.24,0.051C109.663,57.961,109.766,57.953,109.893,57.934z"/>
	<path d="M110.573,58.563v-4.148h0.633v0.629c0.162-0.294,0.311-0.488,0.447-0.582s0.287-0.141,0.451-0.141
		c0.237,0,0.478,0.075,0.723,0.227l-0.242,0.652c-0.172-0.102-0.344-0.152-0.516-0.152c-0.154,0-0.292,0.046-0.414,0.139
		s-0.209,0.221-0.262,0.385c-0.078,0.25-0.117,0.523-0.117,0.82v2.172H110.573z"/>
	<path d="M113.249,53.645v-0.809h0.703v0.809H113.249z M113.249,58.563v-4.148h0.703v4.148H113.249z"/>
	<path d="M117.729,58.051c-0.26,0.222-0.511,0.378-0.752,0.469s-0.5,0.137-0.775,0.137c-0.456,0-0.806-0.111-1.051-0.334
		s-0.367-0.507-0.367-0.854c0-0.203,0.046-0.389,0.139-0.557s0.213-0.303,0.363-0.404s0.318-0.179,0.506-0.23
		c0.138-0.036,0.346-0.071,0.625-0.105c0.568-0.067,0.986-0.148,1.254-0.242c0.002-0.097,0.004-0.157,0.004-0.184
		c0-0.286-0.066-0.488-0.199-0.605c-0.18-0.159-0.447-0.238-0.801-0.238c-0.331,0-0.575,0.058-0.732,0.174s-0.274,0.321-0.35,0.615
		l-0.688-0.094c0.063-0.294,0.166-0.532,0.309-0.713s0.35-0.32,0.621-0.418s0.584-0.146,0.941-0.146
		c0.354,0,0.642,0.042,0.863,0.125s0.384,0.188,0.488,0.314s0.177,0.286,0.219,0.479c0.023,0.12,0.035,0.336,0.035,0.648v0.938
		c0,0.653,0.015,1.067,0.045,1.24s0.089,0.339,0.178,0.498h-0.734C117.797,58.417,117.75,58.247,117.729,58.051z M117.67,56.481
		c-0.255,0.104-0.638,0.192-1.148,0.266c-0.289,0.042-0.494,0.089-0.613,0.141s-0.212,0.128-0.277,0.229s-0.098,0.212-0.098,0.334
		c0,0.188,0.071,0.344,0.213,0.469s0.35,0.188,0.623,0.188c0.271,0,0.512-0.06,0.723-0.178s0.366-0.28,0.465-0.486
		c0.076-0.159,0.113-0.394,0.113-0.703V56.481z"/>
	<path d="M121.006,57.934l0.102,0.621c-0.198,0.042-0.375,0.063-0.531,0.063c-0.255,0-0.453-0.04-0.594-0.121
		s-0.24-0.187-0.297-0.318s-0.086-0.408-0.086-0.83v-2.387h-0.516v-0.547h0.516v-1.027l0.699-0.422v1.449h0.707v0.547h-0.707v2.426
		c0,0.2,0.012,0.329,0.037,0.387s0.065,0.103,0.121,0.137s0.136,0.051,0.24,0.051C120.776,57.961,120.879,57.953,121.006,57.934z"/>
	<path d="M124.413,58.563v-0.609c-0.323,0.469-0.762,0.703-1.316,0.703c-0.245,0-0.473-0.047-0.686-0.141s-0.37-0.212-0.473-0.354
		s-0.175-0.315-0.217-0.521c-0.029-0.138-0.043-0.356-0.043-0.656v-2.57h0.703v2.301c0,0.367,0.014,0.614,0.043,0.742
		c0.044,0.185,0.138,0.33,0.281,0.436s0.32,0.158,0.531,0.158s0.409-0.054,0.594-0.162s0.316-0.255,0.393-0.441
		s0.115-0.456,0.115-0.811v-2.223h0.703v4.148H124.413z"/>
	<path d="M126.143,58.563v-4.148h0.629v0.582c0.13-0.203,0.303-0.366,0.52-0.49s0.462-0.186,0.738-0.186
		c0.307,0,0.559,0.063,0.756,0.191s0.335,0.306,0.416,0.535c0.328-0.484,0.755-0.727,1.281-0.727c0.412,0,0.728,0.114,0.949,0.342
		s0.332,0.579,0.332,1.053v2.848h-0.699V55.95c0-0.281-0.023-0.483-0.068-0.607s-0.128-0.224-0.248-0.299s-0.26-0.113-0.422-0.113
		c-0.292,0-0.534,0.097-0.727,0.291s-0.289,0.505-0.289,0.932v2.41h-0.703v-2.695c0-0.313-0.057-0.547-0.172-0.703
		s-0.302-0.234-0.563-0.234c-0.198,0-0.381,0.052-0.549,0.156s-0.29,0.257-0.365,0.457s-0.113,0.489-0.113,0.867v2.152H126.143z"/>
</g>
<text transform="matrix(1 0 0 1 174.1289 164)" font-family="'ArialMT'" font-size="6">-5</text>
<text transform="matrix(1 0 0 1 223.8594 164)" font-family="'ArialMT'" font-size="6">0</text>
<text transform="matrix(1 0 0 1 246 164)" font-family="'ArialMT'" font-size="6">2.5</text>
<text transform="matrix(1 0 0 1 194.5 164)" font-family="'ArialMT'" font-size="6">-2.5</text>
<text transform="matrix(1 0 0 1 270.3232 164)" font-family="'ArialMT'" font-size="6">5</text>
<path fill="none" stroke="#333333" stroke-linejoin="round" stroke-miterlimit="10" d="M272.323,157.684v-1.027"/>
<text transform="matrix(1 0 0 1 164 79.4507)" font-family="'ArialMT'" font-size="6">50</text>
<text transform="matrix(1 0 0 1 164 99.9771)" font-family="'ArialMT'" font-size="6">25</text>
<text transform="matrix(1 0 0 1 166.5 119.9565)" font-family="'ArialMT'" font-size="6">0</text>
<text transform="matrix(1 0 0 1 162.5 139.9355)" font-family="'ArialMT'" font-size="6">-25</text>
<text transform="matrix(4.489659e-011 -1 1 4.489659e-011 150.5 137.9316)"><tspan x="0" y="0" font-family="'ArialMT'" font-size="8">VS response (β)</tspan><tspan x="-30.602" y="9.601" font-family="'ArialMT'" font-size="8">Rew v Pun with Friend v Stranger</tspan></text>
<text transform="matrix(1 0 0 1 193.5996 176.5)" font-family="'ArialMT'" font-size="8">Reward Sensitivity</text>
</svg>
