<?xml version="1.0" encoding="utf-8"?>
<!-- Generator: Adobe Illustrator 16.0.3, SVG Export Plug-In . SVG Version: 6.00 Build 0)  -->
<!DOCTYPE svg PUBLIC "-//W3C//DTD SVG 1.1//EN" "http://www.w3.org/Graphics/SVG/1.1/DTD/svg11.dtd">
<svg version="1.1" id="Layer_1" xmlns="http://www.w3.org/2000/svg" xmlns:xlink="http://www.w3.org/1999/xlink" x="0px" y="0px"
	 width="515.906px" height="177.5px" viewBox="-131.811 -16.75 515.906 177.5"
	 enable-background="new -131.811 -16.75 515.906 177.5" xml:space="preserve">
<image overflow="visible" width="457" height="417" xlink:href="CE1C8B20.jpg"  transform="matrix(0.2588 0 0 0.2588 -118.8584 22.0786)">
</image>
<image overflow="visible" width="433" height="406" xlink:href="CE1C8B21.jpg"  transform="matrix(0.2633 0 0 0.2633 -116.311 22.0786)">
</image>
<image overflow="visible" width="431" height="409" xlink:href="CE1C8B22.jpg"  transform="matrix(0.254 0 0 0.254 -114.311 23.1143)">
</image>
<text transform="matrix(1 0 0 1 2546.9287 32.729)" font-family="'MyriadPro-Regular'" font-size="12">tul68325</text>
<text transform="matrix(1 0 0 1 -127.3569 -5.4072)" font-family="'Arial-BoldMT'" font-size="12">A</text>
<text transform="matrix(1 0 0 1 16.8882 -5.4072)" font-family="'Arial-BoldMT'" font-size="12">B</text>
<text transform="matrix(1 0 0 1 -65.7656 136.7715)" font-family="'ArialMT'" font-size="6">Y = 12</text>
<text transform="matrix(1 0 0 1 -109.6299 32.3833)" font-family="'ArialMT'" font-size="6">R</text>
<line fill="#FFFFFF" stroke="#000000" stroke-miterlimit="10" x1="-48.858" y1="85.25" x2="-18.417" y2="17.681"/>
<text transform="matrix(1 0 0 1 245.4834 146.4111)" font-family="'ArialMT'" font-size="6">-5</text>
<text transform="matrix(1 0 0 1 312.8242 146.4111)" font-family="'ArialMT'" font-size="6">0</text>
<text transform="matrix(1 0 0 1 342.8057 146.4111)" font-family="'ArialMT'" font-size="6">2.5</text>
<text transform="matrix(1 0 0 1 273.0684 146.4111)" font-family="'ArialMT'" font-size="6">-2.5</text>
<text transform="matrix(1 0 0 1 375.7422 146.4111)" font-family="'ArialMT'" font-size="6">5</text>
<text transform="matrix(1 0 0 1 235.7676 32.9209)" font-family="'ArialMT'" font-size="6">50</text>
<text transform="matrix(1 0 0 1 235.7676 60.7163)" font-family="'ArialMT'" font-size="6">25</text>
<text transform="matrix(1 0 0 1 239.1523 87.7695)" font-family="'ArialMT'" font-size="6">0</text>
<text transform="matrix(1 0 0 1 233.7363 114.8242)" font-family="'ArialMT'" font-size="6">-25</text>
<text transform="matrix(4.489659e-011 -1 1 4.489659e-011 219.9863 102.3271)" font-family="'ArialMT'" font-size="8">VS Response (β)</text>
<text transform="matrix(4.489659e-011 -1 1 4.489659e-011 229.4873 121.5752)" font-family="'ArialMT'" font-size="7">Rew v Pun with Friend v Stranger</text>
<text transform="matrix(1 0 0 1 282.8486 156.8379)" font-family="'ArialMT'" font-size="8">Reward Sensitivity</text>
<text transform="matrix(1 0 0 1 203.8877 -5.4072)" font-family="'Arial-BoldMT'" font-size="12">C</text>
<text transform="matrix(1 0 0 1 -59.0361 13.1826)" font-family="'ArialMT'" font-size="8">Ventral Striatum</text>
<g>
	<g>
		
			<line fill="none" stroke="#262626" stroke-linejoin="round" stroke-miterlimit="10" x1="46.949" y1="56.38" x2="188.142" y2="56.38"/>
	</g>
	<g>
		<path fill="#009DBE" d="M74.404,56.38V15.925H58.717V56.38H74.404z M129.312,56.38v63.34h15.687V56.38H129.312z"/>
	</g>
	<g>
		<path fill="none" stroke="#000000" stroke-miterlimit="10" d="M58.717,56.38V15.925h15.688V56.38H58.717z"/>
		<path fill="none" stroke="#000000" stroke-miterlimit="10" d="M129.312,56.38v63.34h15.687V56.38H129.312z"/>
	</g>
	<g>
		<path fill="#0D9F92" d="M90.092,56.38v-0.939H74.403v0.939H90.092z M144.998,56.38v61.731h15.69V56.38H144.998z"/>
	</g>
	<g>
		<path fill="none" stroke="#000000" stroke-miterlimit="10" d="M74.404,56.38v-0.939h15.689v0.939H74.404z"/>
		<path fill="none" stroke="#000000" stroke-miterlimit="10" d="M144.998,56.38v61.731h15.69V56.38H144.998z"/>
	</g>
	<g>
		<path fill="#367273" d="M90.092,56.38v12.027h15.688V56.38H90.092z M160.688,56.38v54.809h15.688V56.38H160.688z"/>
	</g>
	<g>
		<path fill="none" stroke="#000000" stroke-miterlimit="10" d="M90.092,56.38v12.027h15.688V56.38H90.092z"/>
		<path fill="none" stroke="#000000" stroke-miterlimit="10" d="M160.688,56.38v54.809h15.688V56.38H160.688z"/>
		
			<line fill="none" stroke="#000000" stroke-linejoin="round" stroke-miterlimit="10" x1="66.56" y1="15.925" x2="66.56" y2="27.88"/>
		
			<line fill="none" stroke="#000000" stroke-linejoin="round" stroke-miterlimit="10" x1="137.155" y1="119.72" x2="137.155" y2="131.576"/>
		
			<line fill="none" stroke="#000000" stroke-linejoin="round" stroke-miterlimit="10" x1="66.56" y1="15.925" x2="66.56" y2="3.968"/>
		
			<line fill="none" stroke="#000000" stroke-linejoin="round" stroke-miterlimit="10" x1="137.155" y1="119.72" x2="137.155" y2="107.865"/>
	</g>
	<g transform="translate(271.5278,133.4635)">
		<path d="M-206.88-105.584"/>
	</g>
	<g transform="translate(493.0278,384.4252)">
		
			<line fill="none" stroke="#000000" stroke-linejoin="round" stroke-miterlimit="10" x1="-410.781" y1="-328.984" x2="-410.781" y2="-314.413"/>
		
			<line fill="none" stroke="#000000" stroke-linejoin="round" stroke-miterlimit="10" x1="-340.185" y1="-266.314" x2="-340.185" y2="-252.097"/>
		
			<line fill="none" stroke="#000000" stroke-linejoin="round" stroke-miterlimit="10" x1="-410.781" y1="-328.984" x2="-410.781" y2="-343.557"/>
		
			<line fill="none" stroke="#000000" stroke-linejoin="round" stroke-miterlimit="10" x1="-340.185" y1="-266.314" x2="-340.185" y2="-280.528"/>
	</g>
	<g transform="translate(542.25,371.9738)">
		
			<line fill="none" stroke="#000000" stroke-linejoin="round" stroke-miterlimit="10" x1="-444.313" y1="-303.565" x2="-444.313" y2="-282.904"/>
		
			<line fill="none" stroke="#000000" stroke-linejoin="round" stroke-miterlimit="10" x1="-373.717" y1="-260.785" x2="-373.717" y2="-246.153"/>
		
			<line fill="none" stroke="#000000" stroke-linejoin="round" stroke-miterlimit="10" x1="-444.313" y1="-303.565" x2="-444.313" y2="-324.225"/>
		
			<line fill="none" stroke="#000000" stroke-linejoin="round" stroke-miterlimit="10" x1="-373.717" y1="-260.785" x2="-373.717" y2="-275.416"/>
	</g>
	<g>
		
			<line fill="none" stroke="#262626" stroke-linecap="square" stroke-linejoin="round" stroke-miterlimit="10" x1="46.949" y1="139.922" x2="188.142" y2="139.922"/>
		
			<line fill="none" stroke="#262626" stroke-linecap="square" stroke-linejoin="round" stroke-miterlimit="10" x1="46.949" y1="-1.272" x2="188.142" y2="-1.272"/>
	</g>
	<g>
		
			<line fill="none" stroke="#262626" stroke-linecap="square" stroke-linejoin="round" stroke-miterlimit="10" x1="46.949" y1="139.922" x2="46.949" y2="-1.272"/>
		
			<line fill="none" stroke="#262626" stroke-linecap="square" stroke-linejoin="round" stroke-miterlimit="10" x1="188.142" y1="139.922" x2="188.142" y2="-1.272"/>
	</g>
	<g transform="translate(202.0556,428.6232)">
		<text transform="matrix(1 0 0 1 -168.1563 -304.4406)" fill="#262626" font-family="'ArialMT'" font-size="6">-15</text>
	</g>
	<g transform="translate(202.0556,360.0442)">
		<text transform="matrix(1 0 0 1 -168.1563 -257.719)" fill="#262626" font-family="'ArialMT'" font-size="6">-10</text>
	</g>
	<g transform="translate(202.0556,291.4651)">
		<text transform="matrix(1 0 0 1 -164.0127 -210.9963)" fill="#262626" font-family="'ArialMT'" font-size="6">-5</text>
	</g>
	<g transform="translate(202.0556,222.886)">
		<text transform="matrix(1 0 0 1 -161.7822 -164.2737)" fill="#262626" font-family="'ArialMT'" font-size="6">0</text>
	</g>
	<g transform="translate(202.0556,154.3069)">
		<text transform="matrix(1 0 0 1 -161.7822 -117.554)" fill="#262626" font-family="'ArialMT'" font-size="6">5</text>
	</g>
	<g transform="translate(202.0556,85.7278)">
		<text transform="matrix(1 0 0 1 -165.9258 -70.8313)" fill="#262626" font-family="'ArialMT'" font-size="6">10</text>
	</g>
</g>
<g transform="translate(144.0972,263.4998) rotate(-90)">
	<text transform="matrix(1.0791 0 0 1 163.5388 -111.3193)" fill="#272626" font-family="'ArialMT'" font-size="8">VS Response</text>
	<text transform="matrix(1 0 0 1 216.324 -111.3193)" fill="#262626" font-family="'ArialMT'" font-size="8"> (β)</text>
</g>
<g transform="translate(431.5002,526.9305)">
	<text transform="matrix(1 0 0 1 -330.6624 -370.6375)" fill="#272626" font-family="'ArialMT'" font-size="8">Condition</text>
</g>
<text transform="matrix(1 0 0 1 79.1221 148.6582)"><tspan x="0" y="0" fill="#020202" font-family="'ArialMT'" font-size="6">Win</tspan><tspan x="10.333" y="0" fill="#020202" font-family="'ArialMT'" font-size="6" letter-spacing="7">	</tspan><tspan x="19.051" y="0" fill="#020202" font-family="'ArialMT'" font-size="6" letter-spacing="17">		</tspan><tspan x="57.152" y="0" fill="#020202" font-family="'ArialMT'" font-size="6">     Loss</tspan></text>
<line fill="none" stroke="#262626" stroke-linecap="square" stroke-linejoin="round" stroke-miterlimit="10" x1="66.561" y1="138.739" x2="66.561" y2="138.521"/>
<line fill="none" stroke="#262626" stroke-linecap="square" stroke-linejoin="round" stroke-miterlimit="10" x1="84.593" y1="138.739" x2="84.593" y2="138.521"/>
<line fill="none" stroke="#262626" stroke-linecap="square" stroke-linejoin="round" stroke-miterlimit="10" x1="102.624" y1="138.739" x2="102.624" y2="138.521"/>
<line fill="none" stroke="#262626" stroke-linecap="square" stroke-linejoin="round" stroke-miterlimit="10" x1="132.47" y1="138.739" x2="132.47" y2="138.521"/>
<line fill="none" stroke="#262626" stroke-linecap="square" stroke-linejoin="round" stroke-miterlimit="10" x1="150.502" y1="138.739" x2="150.502" y2="138.521"/>
<line fill="none" stroke="#262626" stroke-linecap="square" stroke-linejoin="round" stroke-miterlimit="10" x1="168.533" y1="138.739" x2="168.533" y2="138.521"/>
<line fill="none" stroke="#262626" stroke-linecap="square" stroke-linejoin="round" stroke-miterlimit="10" x1="47.246" y1="122.972" x2="48.702" y2="122.972"/>
<line fill="none" stroke="#262626" stroke-linecap="square" stroke-linejoin="round" stroke-miterlimit="10" x1="47.246" y1="100.835" x2="48.702" y2="100.835"/>
<line fill="none" stroke="#262626" stroke-linecap="square" stroke-linejoin="round" stroke-miterlimit="10" x1="47.246" y1="78.693" x2="48.702" y2="78.693"/>
<line fill="none" stroke="#262626" stroke-linecap="square" stroke-linejoin="round" stroke-miterlimit="10" x1="47.246" y1="56.557" x2="48.702" y2="56.557"/>
<line fill="none" stroke="#262626" stroke-linecap="square" stroke-linejoin="round" stroke-miterlimit="10" x1="47.246" y1="34.418" x2="48.702" y2="34.418"/>
<line fill="none" stroke="#262626" stroke-linecap="square" stroke-linejoin="round" stroke-miterlimit="10" x1="47.246" y1="12.28" x2="48.702" y2="12.28"/>
<g id="legend_1">
	<g id="patch_14">
		<path fill="#009DBE" stroke="#000000" d="M144.177,5.851h11.673V1.767h-11.673V5.851z"/>
	</g>
	<g id="patch_15">
		<path fill="#0D9F92" stroke="#000000" d="M144.177,14.417h11.673v-4.084h-11.673V14.417z"/>
	</g>
	<g id="patch_16">
		<path fill="#367273" stroke="#000000" d="M144.177,22.986h11.673v-4.084h-11.673V22.986z"/>
	</g>
</g>
<text transform="matrix(1 0 0 1 160.7295 6.1611)" font-family="'ArialMT'" font-size="6.1525">Friend</text>
<text transform="matrix(1 0 0 1 160.3867 15.0488)" font-family="'ArialMT'" font-size="6.1525">Stranger</text>
<text transform="matrix(1 0 0 1 159.7041 23.9346)" font-family="'ArialMT'" font-size="6.1525">Computer</text>
<path fill="#999999" fill-opacity="0.4" d="M253.665,41.077l1.488,0.693l1.49,0.689l1.489,0.688l1.489,0.683l1.489,0.681
	l1.491,0.677l1.488,0.673l1.489,0.669l1.49,0.667l1.489,0.662l1.49,0.658l1.488,0.654l1.491,0.648l1.487,0.644l1.49,0.639
	l1.49,0.633l1.488,0.625l1.489,0.622l1.489,0.612l1.49,0.606l1.489,0.598l1.49,0.589l1.489,0.581l1.49,0.573l1.488,0.563l1.49,0.551
	l1.488,0.542l1.492,0.53l1.486,0.518l1.491,0.507l1.487,0.491l1.491,0.479l1.489,0.465l1.488,0.451l1.492,0.436l1.487,0.419
	l1.491,0.404l1.487,0.388l1.493,0.373l1.486,0.355l1.49,0.34l1.489,0.321l1.489,0.307l1.488,0.291l1.491,0.273l1.49,0.258
	l1.489,0.241l1.489,0.229l1.489,0.211l1.49,0.2l1.488,0.185l1.491,0.172l1.488,0.159l1.489,0.147l1.488,0.135l1.492,0.126
	l1.488,0.115l1.489,0.104l1.489,0.097l1.49,0.087l1.489,0.08l1.489,0.07l1.489,0.064l1.489,0.057l1.49,0.05l1.488,0.044l1.49,0.04
	l1.49,0.033l1.488,0.027l1.491,0.022l1.488,0.019l1.491,0.014l1.486,0.01l1.491,0.005l1.488,0.002h1.489l1.489-0.005l1.49-0.006
	l1.488-0.012v38.536l-1.488-0.687l-1.49-0.683l-1.489-0.679l-1.489-0.678l-1.488-0.673l-1.491-0.671l-1.486-0.665l-1.491-0.662
	l-1.488-0.658l-1.491-0.651l-1.488-0.648l-1.49-0.644l-1.49-0.638l-1.488-0.631l-1.49-0.626l-1.489-0.619l-1.489-0.611l-1.489-0.604
	l-1.489-0.597l-1.49-0.589l-1.489-0.579l-1.489-0.572l-1.488-0.56l-1.492-0.552l-1.488-0.538l-1.489-0.529l-1.488-0.516
	l-1.491-0.504l-1.488-0.489l-1.49-0.479l-1.489-0.463l-1.489-0.448l-1.489-0.433l-1.49-0.417l-1.491-0.405l-1.488-0.383l-1.489-0.37
	l-1.489-0.354l-1.49-0.335l-1.486-0.321l-1.493-0.304l-1.487-0.287l-1.491-0.271l-1.487-0.257l-1.492-0.241l-1.488-0.225
	l-1.489-0.21l-1.491-0.197l-1.487-0.183l-1.491-0.17l-1.486-0.158l-1.492-0.146l-1.488-0.134l-1.49-0.125l-1.488-0.112l-1.49-0.104
	l-1.489-0.095l-1.49-0.086l-1.489-0.08l-1.49-0.069l-1.489-0.063l-1.489-0.057l-1.488-0.049l-1.49-0.043l-1.49-0.038l-1.487-0.032
	l-1.491-0.027l-1.488-0.021l-1.49-0.019l-1.489-0.014l-1.49-0.01l-1.489-0.006l-1.488-0.002l-1.491,0.002l-1.489,0.006l-1.489,0.008
	l-1.489,0.01l-1.49,0.014l-1.488,0.017V41.077z"/>
<path fill="none" stroke="#000000" stroke-linejoin="round" stroke-miterlimit="10" d="M253.665,61.102l1.488,0.337l1.49,0.338
	l1.489,0.337l1.489,0.338l1.489,0.338l1.491,0.337l1.488,0.339l2.979,0.675l1.489,0.338l1.49,0.337l1.488,0.338l1.491,0.337
	l1.487,0.338l1.49,0.34l1.49,0.338l1.488,0.337l1.489,0.338l1.489,0.337l1.49,0.337l2.979,0.675l1.489,0.338l1.49,0.339l1.488,0.338
	l1.49,0.338l1.488,0.337l1.492,0.338l1.486,0.337l1.491,0.338l1.487,0.337l1.491,0.34l1.489,0.338l1.488,0.337l1.492,0.337
	l1.487,0.338l1.491,0.337l1.487,0.338l1.493,0.337l1.486,0.34l1.49,0.338l1.489,0.337l1.489,0.338l1.488,0.337l2.981,0.676
	l1.489,0.337l1.489,0.338l1.489,0.339l1.49,0.338l1.488,0.338l1.491,0.338l1.488,0.338l1.489,0.338l1.488,0.338l1.492,0.336
	l1.488,0.34l1.489,0.339l1.489,0.337l1.49,0.338l1.489,0.338l1.489,0.337l1.489,0.338l1.489,0.338l1.49,0.339l1.488,0.339
	l2.98,0.676l1.488,0.336l1.491,0.339l1.488,0.338l1.491,0.337l1.486,0.338l1.491,0.341l1.488,0.337l1.489,0.337l1.489,0.338
	l1.49,0.338l1.488,0.338"/>
<path fill="none" stroke="#000000" stroke-linecap="round" stroke-linejoin="round" stroke-miterlimit="10" d="M306.933,55.99
	c0,1.294-1.941,1.294-1.941,0C304.991,54.696,306.933,54.696,306.933,55.99"/>
<path fill="none" stroke="#000000" stroke-linecap="round" stroke-linejoin="round" stroke-miterlimit="10" d="M306.933,52.28
	c0,1.294-1.941,1.294-1.941,0C304.991,50.983,306.933,50.983,306.933,52.28"/>
<path fill="none" stroke="#000000" stroke-linecap="round" stroke-linejoin="round" stroke-miterlimit="10" d="M320.008,26.085
	c0,1.295-1.94,1.295-1.94,0C318.067,24.791,320.008,24.791,320.008,26.085"/>
<path fill="none" stroke="#000000" stroke-linecap="round" stroke-linejoin="round" stroke-miterlimit="10" d="M293.858,42.798
	c0,1.294-1.941,1.294-1.941,0S293.858,41.504,293.858,42.798"/>
<path fill="none" stroke="#000000" stroke-linecap="round" stroke-linejoin="round" stroke-miterlimit="10" d="M346.155,111.782
	c0,1.295-1.941,1.295-1.941,0C344.214,110.488,346.155,110.488,346.155,111.782"/>
<path fill="none" stroke="#000000" stroke-linecap="round" stroke-linejoin="round" stroke-miterlimit="10" d="M254.635,75.379
	c0,1.297-1.942,1.297-1.942,0C252.692,74.084,254.635,74.084,254.635,75.379"/>
<path fill="none" stroke="#000000" stroke-linecap="round" stroke-linejoin="round" stroke-miterlimit="10" d="M372.306,71.402
	c0,1.294-1.943,1.294-1.943,0C370.362,70.106,372.306,70.106,372.306,71.402"/>
<path fill="none" stroke="#000000" stroke-linecap="round" stroke-linejoin="round" stroke-miterlimit="10" d="M267.708,40.819
	c0,1.294-1.939,1.294-1.939,0C265.769,39.524,267.708,39.524,267.708,40.819"/>
<path fill="none" stroke="#000000" stroke-linecap="round" stroke-linejoin="round" stroke-miterlimit="10" d="M346.155,54.789
	c0,1.294-1.941,1.294-1.941,0S346.155,53.495,346.155,54.789"/>
<path fill="none" stroke="#000000" stroke-linecap="round" stroke-linejoin="round" stroke-miterlimit="10" d="M346.155,86.559
	c0,1.294-1.941,1.294-1.941,0C344.214,85.264,346.155,85.264,346.155,86.559"/>
<path fill="none" stroke="#000000" stroke-linecap="round" stroke-linejoin="round" stroke-miterlimit="10" d="M293.858,9.441
	c0,1.297-1.941,1.297-1.941,0C291.917,8.146,293.858,8.146,293.858,9.441"/>
<path fill="none" stroke="#000000" stroke-linecap="round" stroke-linejoin="round" stroke-miterlimit="10" d="M346.155,124.273
	c0,1.298-1.941,1.298-1.941,0C344.214,122.979,346.155,122.979,346.155,124.273"/>
<path fill="none" stroke="#000000" stroke-linecap="round" stroke-linejoin="round" stroke-miterlimit="10" d="M280.785,48.655
	c0,1.296-1.941,1.296-1.941,0C278.844,47.361,280.785,47.361,280.785,48.655"/>
<path fill="none" stroke="#000000" stroke-linecap="round" stroke-linejoin="round" stroke-miterlimit="10" d="M372.306,95.621
	c0,1.295-1.943,1.295-1.943,0S372.306,94.326,372.306,95.621"/>
<path fill="none" stroke="#000000" stroke-linecap="round" stroke-linejoin="round" stroke-miterlimit="10" d="M346.155,66.617
	c0,1.295-1.941,1.295-1.941,0C344.214,65.323,346.155,65.323,346.155,66.617"/>
<path fill="none" stroke="#000000" stroke-linecap="round" stroke-linejoin="round" stroke-miterlimit="10" d="M333.081,95.329
	c0,1.295-1.94,1.295-1.94,0C331.141,94.036,333.081,94.036,333.081,95.329"/>
<path fill="none" stroke="#000000" stroke-linecap="round" stroke-linejoin="round" stroke-miterlimit="10" d="M254.635,60.551
	c0,1.293-1.942,1.293-1.942,0C252.692,59.254,254.635,59.254,254.635,60.551"/>
<path fill="none" stroke="#000000" stroke-linecap="round" stroke-linejoin="round" stroke-miterlimit="10" d="M293.858,131.061
	c0,1.296-1.941,1.296-1.941,0C291.917,129.766,293.858,129.766,293.858,131.061"/>
<path fill="none" stroke="#000000" stroke-linecap="round" stroke-linejoin="round" stroke-miterlimit="10" d="M280.785,89.427
	c0,1.295-1.941,1.295-1.941,0C278.844,88.133,280.785,88.133,280.785,89.427"/>
<path fill="none" stroke="#000000" stroke-linecap="round" stroke-linejoin="round" stroke-miterlimit="10" d="M372.306,84.227
	c0,1.298-1.943,1.298-1.943,0C370.362,82.935,372.306,82.935,372.306,84.227"/>
<path fill="none" stroke="#000000" stroke-linecap="round" stroke-linejoin="round" stroke-miterlimit="10" d="M306.933,61.117
	c0,1.294-1.941,1.294-1.941,0C304.991,59.823,306.933,59.823,306.933,61.117"/>
<path fill="none" stroke="#000000" stroke-linecap="round" stroke-linejoin="round" stroke-miterlimit="10" d="M280.785,79.97
	c0,1.294-1.941,1.294-1.941,0S280.785,78.676,280.785,79.97"/>
<path fill="none" stroke="#000000" stroke-linecap="round" stroke-linejoin="round" stroke-miterlimit="10" d="M267.708,64.015
	c0,1.293-1.939,1.293-1.939,0C265.769,62.72,267.708,62.72,267.708,64.015"/>
<path fill="none" stroke="#000000" stroke-linecap="round" stroke-linejoin="round" stroke-miterlimit="10" d="M372.306,112.678
	c0,1.293-1.943,1.293-1.943,0C370.362,111.383,372.306,111.383,372.306,112.678"/>
<path fill="none" stroke="#000000" stroke-linecap="round" stroke-linejoin="round" stroke-miterlimit="10" d="M320.008,51.944
	c0,1.293-1.94,1.293-1.94,0C318.067,50.649,320.008,50.649,320.008,51.944"/>
<path fill="none" stroke="#000000" stroke-linecap="round" stroke-linejoin="round" stroke-miterlimit="10" d="M333.081,103.613
	c0,1.294-1.94,1.294-1.94,0C331.141,102.318,333.081,102.318,333.081,103.613"/>
<path fill="none" stroke="#000000" stroke-linecap="round" stroke-linejoin="round" stroke-miterlimit="10" d="M359.231,89.37
	c0,1.297-1.942,1.297-1.942,0C357.289,88.076,359.231,88.076,359.231,89.37"/>
<path fill="none" stroke="#000000" stroke-linecap="round" stroke-linejoin="round" stroke-miterlimit="10" d="M372.306,102.216
	c0,1.294-1.943,1.294-1.943,0C370.362,100.919,372.306,100.919,372.306,102.216"/>
<path fill="none" stroke="#000000" stroke-linecap="round" stroke-linejoin="round" stroke-miterlimit="10" d="M293.858,84.155
	c0,1.296-1.941,1.296-1.941,0C291.917,82.861,293.858,82.861,293.858,84.155"/>
<path fill="none" stroke="#000000" stroke-linecap="round" stroke-linejoin="round" stroke-miterlimit="10" d="M320.008,122.626
	c0,1.294-1.94,1.294-1.94,0C318.067,121.333,320.008,121.333,320.008,122.626"/>
<path fill="none" stroke="#000000" stroke-linecap="round" stroke-linejoin="round" stroke-miterlimit="10" d="M372.306,88.379
	c0,1.294-1.943,1.294-1.943,0C370.362,87.084,372.306,87.084,372.306,88.379"/>
<path fill="none" stroke="#000000" stroke-linecap="round" stroke-linejoin="round" stroke-miterlimit="10" d="M267.708,43.54
	c0,1.294-1.939,1.294-1.939,0S267.708,42.245,267.708,43.54"/>
<path fill="none" stroke="#000000" stroke-linecap="round" stroke-linejoin="round" stroke-miterlimit="10" d="M280.785,56.75
	c0,1.295-1.941,1.295-1.941,0S280.785,55.455,280.785,56.75"/>
<path fill="none" stroke="#000000" stroke-linecap="round" stroke-linejoin="round" stroke-miterlimit="10" d="M254.635,52.098
	c0,1.294-1.942,1.294-1.942,0C252.692,50.801,254.635,50.801,254.635,52.098"/>
<path fill="none" stroke="#000000" stroke-linecap="round" stroke-linejoin="round" stroke-miterlimit="10" d="M359.231,31.559
	c0,1.293-1.942,1.293-1.942,0C357.289,30.262,359.231,30.262,359.231,31.559"/>
<path fill="none" stroke="#000000" stroke-linecap="round" stroke-linejoin="round" stroke-miterlimit="10" d="M267.708,87.341
	c0,1.294-1.939,1.294-1.939,0C265.769,86.045,267.708,86.045,267.708,87.341"/>
<path fill="none" stroke="#000000" stroke-linecap="round" stroke-linejoin="round" stroke-miterlimit="10" d="M306.933,100.171
	c0,1.293-1.941,1.293-1.941,0C304.991,98.875,306.933,98.875,306.933,100.171"/>
<path fill="none" stroke="#000000" stroke-linecap="round" stroke-linejoin="round" stroke-miterlimit="10" d="M359.231,83.896
	c0,1.296-1.942,1.296-1.942,0S359.231,82.6,359.231,83.896"/>
<path fill="none" stroke="#000000" stroke-linecap="round" stroke-linejoin="round" stroke-miterlimit="10" d="M320.008,35.883
	c0,1.295-1.94,1.295-1.94,0C318.067,34.589,320.008,34.589,320.008,35.883"/>
<path fill="none" stroke="#000000" stroke-linecap="round" stroke-linejoin="round" stroke-miterlimit="10" d="M267.708,69.455
	c0,1.294-1.939,1.294-1.939,0C265.769,68.16,267.708,68.16,267.708,69.455"/>
<path fill="none" stroke="#000000" stroke-linecap="round" stroke-linejoin="round" stroke-miterlimit="10" d="M293.858,73.24
	c0,1.294-1.941,1.294-1.941,0S293.858,71.946,293.858,73.24"/>
<path fill="none" stroke="#000000" stroke-linecap="round" stroke-linejoin="round" stroke-miterlimit="10" d="M346.155,79.244
	c0,1.297-1.941,1.297-1.941,0C344.214,77.95,346.155,77.95,346.155,79.244"/>
<path fill="none" stroke="#000000" stroke-linecap="round" stroke-linejoin="round" stroke-miterlimit="10" d="M267.708,94.068
	c0,1.297-1.939,1.297-1.939,0C265.769,92.774,267.708,92.774,267.708,94.068"/>
<path fill="none" stroke="#000000" stroke-linecap="round" stroke-linejoin="round" stroke-miterlimit="10" d="M320.008,102.463
	c0,1.296-1.94,1.296-1.94,0C318.067,101.17,320.008,101.17,320.008,102.463"/>
<path fill="none" stroke="#000000" stroke-linecap="round" stroke-linejoin="round" stroke-miterlimit="10" d="M333.081,73.605
	c0,1.294-1.94,1.294-1.94,0C331.141,72.311,333.081,72.311,333.081,73.605"/>
<path fill="none" stroke="#000000" stroke-linejoin="round" stroke-miterlimit="10" d="M247.781,137.143V3.361"/>
<path fill="none" stroke="#333333" stroke-linejoin="round" stroke-miterlimit="10" d="M246.419,112.696h1.362"/>
<path fill="none" stroke="#333333" stroke-linejoin="round" stroke-miterlimit="10" d="M246.419,85.195h1.362"/>
<path fill="none" stroke="#333333" stroke-linejoin="round" stroke-miterlimit="10" d="M246.419,57.692h1.362"/>
<path fill="none" stroke="#333333" stroke-linejoin="round" stroke-miterlimit="10" d="M246.419,30.19h1.362"/>
<path fill="none" stroke="#000000" stroke-linejoin="round" stroke-miterlimit="10" d="M247.781,137.143h129.436"/>
<path fill="none" stroke="#333333" stroke-linejoin="round" stroke-miterlimit="10" d="M248.725,138.502v-1.359"/>
<path fill="none" stroke="#333333" stroke-linejoin="round" stroke-miterlimit="10" d="M281.411,138.502v-1.359"/>
<path fill="none" stroke="#333333" stroke-linejoin="round" stroke-miterlimit="10" d="M314.097,138.502v-1.359"/>
<path fill="none" stroke="#333333" stroke-linejoin="round" stroke-miterlimit="10" d="M346.782,138.502v-1.359"/>
<text transform="matrix(1 0 0 1 253.3037 0.939)"><tspan x="0" y="0" font-family="'ArialMT'" font-size="6">t(43) = 2.053, p &lt; 0.05</tspan><tspan x="59.377" y="0" font-family="'ArialMT'" font-size="6" letter-spacing="10">	</tspan><tspan x="72" y="0" font-family="'ArialMT'" font-size="6">             r = -0.314</tspan></text>
<path fill="none" stroke="#333333" stroke-linejoin="round" stroke-miterlimit="10" d="M377.142,138.25v-1.359"/>
</svg>
