<?xml version="1.0" encoding="utf-8"?>
<!-- Generator: Adobe Illustrator 16.0.3, SVG Export Plug-In . SVG Version: 6.00 Build 0)  -->
<!DOCTYPE svg PUBLIC "-//W3C//DTD SVG 1.1//EN" "http://www.w3.org/Graphics/SVG/1.1/DTD/svg11.dtd">
<svg version="1.1" id="Layer_1" xmlns="http://www.w3.org/2000/svg" xmlns:xlink="http://www.w3.org/1999/xlink" x="0px" y="0px"
	 width="515.906px" height="226.771px" viewBox="-131.811 -38.136 515.906 226.771"
	 enable-background="new -131.811 -38.136 515.906 226.771" xml:space="preserve">
<g id="surface1">
	<path fill="none" stroke="#3366FF" stroke-linejoin="round" stroke-miterlimit="10" stroke-dasharray="8.5358,8.5358" d="
		M254.615,57.264l1.523,0.336l1.523,0.336l1.523,0.336l1.525,0.336l1.523,0.336l1.526,0.333l1.523,0.336l3.051,0.67l1.523,0.335
		l1.524,0.336l1.523,0.336l1.524,0.336l1.523,0.336l1.526,0.336l1.523,0.336l1.524,0.336l1.523,0.336l1.524,0.336l1.523,0.336
		l3.051,0.672l1.522,0.336l1.526,0.336l1.523,0.334l1.525,0.336l1.522,0.336l1.524,0.336L298.818,67l1.526,0.335l1.523,0.336
		l3.049,0.672l1.523,0.335l1.526,0.336l1.523,0.336l1.524,0.336l1.523,0.336l1.524,0.336l1.523,0.336l1.526,0.336l1.522,0.335
		l1.525,0.336l1.523,0.333l3.051,0.672l1.522,0.334l1.525,0.336l1.523,0.336l1.524,0.336l1.523,0.336l1.525,0.336l1.523,0.333
		l1.525,0.336l1.523,0.336l3.05,0.671l1.523,0.336l1.526,0.336l1.523,0.336l1.525,0.336l1.523,0.336l1.523,0.332l1.523,0.336
		l1.526,0.336l1.523,0.334l3.05,0.672l1.523,0.336l1.525,0.336l1.523,0.334l1.524,0.336l1.523,0.336l1.526,0.336l1.523,0.336
		l1.524,0.336l1.523,0.334l1.524,0.336l1.523,0.336"/>
	<path fill="none" stroke="#000000" stroke-linecap="round" stroke-linejoin="round" stroke-miterlimit="10" d="M309.128,52.188
		c0,1.325-1.987,1.325-1.987,0C307.141,50.863,309.128,50.863,309.128,52.188"/>
	<path fill="none" stroke="#000000" stroke-linecap="round" stroke-linejoin="round" stroke-miterlimit="10" d="M309.128,48.505
		c0,1.324-1.987,1.324-1.987,0C307.141,47.178,309.128,47.178,309.128,48.505"/>
	<path fill="none" stroke="#000000" stroke-linecap="round" stroke-linejoin="round" stroke-miterlimit="10" d="M322.509,22.495
		c0,1.325-1.989,1.325-1.989,0C320.52,21.169,322.509,21.169,322.509,22.495"/>
	<path fill="none" stroke="#000000" stroke-linecap="round" stroke-linejoin="round" stroke-miterlimit="10" d="M295.746,39.088
		c0,1.325-1.986,1.325-1.986,0C293.762,37.763,295.746,37.763,295.746,39.088"/>
	<path fill="none" stroke="#000000" stroke-linecap="round" stroke-linejoin="round" stroke-miterlimit="10" d="M349.269,107.588
		c0,1.324-1.989,1.324-1.989,0C347.279,106.262,349.269,106.262,349.269,107.588"/>
	<path fill="none" stroke="#000000" stroke-linecap="round" stroke-linejoin="round" stroke-miterlimit="10" d="M255.608,71.442
		c0,1.326-1.987,1.326-1.987,0C253.621,70.117,255.608,70.118,255.608,71.442"/>
	<path fill="none" stroke="#000000" stroke-linecap="round" stroke-linejoin="round" stroke-miterlimit="10" d="M376.028,67.493
		c0,1.325-1.987,1.325-1.987,0S376.028,66.167,376.028,67.493"/>
	<path fill="none" stroke="#000000" stroke-linecap="round" stroke-linejoin="round" stroke-miterlimit="10" d="M268.988,37.125
		c0,1.326-1.986,1.326-1.986,0C267.002,35.798,268.988,35.798,268.988,37.125"/>
	<path fill="none" stroke="#000000" stroke-linecap="round" stroke-linejoin="round" stroke-miterlimit="10" d="M349.269,50.996
		c0,1.326-1.989,1.326-1.989,0C347.279,49.672,349.269,49.672,349.269,50.996"/>
	<path fill="none" stroke="#000000" stroke-linecap="round" stroke-linejoin="round" stroke-miterlimit="10" d="M349.269,82.541
		c0,1.326-1.989,1.326-1.989,0C347.279,81.217,349.269,81.217,349.269,82.541"/>
	<path fill="none" stroke="#000000" stroke-linecap="round" stroke-linejoin="round" stroke-miterlimit="10" d="M295.746,5.968
		c0,1.324-1.986,1.324-1.986,0C293.762,4.642,295.746,4.642,295.746,5.968"/>
	<path fill="none" stroke="#000000" stroke-linecap="round" stroke-linejoin="round" stroke-miterlimit="10" d="M349.269,119.992
		c0,1.326-1.989,1.326-1.989,0S349.269,118.666,349.269,119.992"/>
	<path fill="none" stroke="#000000" stroke-linecap="round" stroke-linejoin="round" stroke-miterlimit="10" d="M282.369,44.905
		c0,1.326-1.987,1.326-1.987,0C280.382,43.582,282.369,43.582,282.369,44.905"/>
	<path fill="none" stroke="#000000" stroke-linecap="round" stroke-linejoin="round" stroke-miterlimit="10" d="M376.028,91.541
		c0,1.326-1.987,1.326-1.987,0S376.028,90.215,376.028,91.541"/>
	<path fill="none" stroke="#000000" stroke-linecap="round" stroke-linejoin="round" stroke-miterlimit="10" d="M349.269,62.739
		c0,1.326-1.989,1.326-1.989,0C347.279,61.416,349.269,61.416,349.269,62.739"/>
	<path fill="none" stroke="#000000" stroke-linecap="round" stroke-linejoin="round" stroke-miterlimit="10" d="M335.889,91.25
		c0,1.328-1.987,1.328-1.987,0C333.901,89.926,335.889,89.926,335.889,91.25"/>
	<path fill="none" stroke="#000000" stroke-linecap="round" stroke-linejoin="round" stroke-miterlimit="10" d="M255.608,56.715
		c0,1.325-1.987,1.325-1.987,0C253.621,55.392,255.608,55.392,255.608,56.715"/>
	<path fill="none" stroke="#000000" stroke-linecap="round" stroke-linejoin="round" stroke-miterlimit="10" d="M295.746,126.73
		c0,1.328-1.986,1.328-1.986,0C293.762,125.406,295.746,125.406,295.746,126.73"/>
	<path fill="none" stroke="#000000" stroke-linecap="round" stroke-linejoin="round" stroke-miterlimit="10" d="M282.369,85.391
		c0,1.324-1.987,1.324-1.987,0C280.382,84.064,282.369,84.064,282.369,85.391"/>
	<path fill="none" stroke="#000000" stroke-linecap="round" stroke-linejoin="round" stroke-miterlimit="10" d="M376.028,80.227
		c0,1.326-1.987,1.326-1.987,0C374.041,78.902,376.028,78.902,376.028,80.227"/>
	<path fill="none" stroke="#000000" stroke-linecap="round" stroke-linejoin="round" stroke-miterlimit="10" d="M309.128,57.281
		c0,1.324-1.987,1.324-1.987,0C307.141,55.955,309.128,55.955,309.128,57.281"/>
	<path fill="none" stroke="#000000" stroke-linecap="round" stroke-linejoin="round" stroke-miterlimit="10" d="M282.369,75.998
		c0,1.326-1.987,1.326-1.987,0C280.382,74.676,282.369,74.676,282.369,75.998"/>
	<path fill="none" stroke="#000000" stroke-linecap="round" stroke-linejoin="round" stroke-miterlimit="10" d="M268.988,60.159
		c0,1.324-1.986,1.324-1.986,0C267.002,58.831,268.988,58.831,268.988,60.159"/>
	<path fill="none" stroke="#000000" stroke-linecap="round" stroke-linejoin="round" stroke-miterlimit="10" d="M376.028,108.477
		c0,1.324-1.987,1.324-1.987,0C374.041,107.15,376.028,107.15,376.028,108.477"/>
	<path fill="none" stroke="#000000" stroke-linecap="round" stroke-linejoin="round" stroke-miterlimit="10" d="M322.509,48.17
		c0,1.328-1.989,1.328-1.989,0C320.52,46.845,322.509,46.845,322.509,48.17"/>
	<path fill="none" stroke="#000000" stroke-linecap="round" stroke-linejoin="round" stroke-miterlimit="10" d="M335.889,99.477
		c0,1.324-1.987,1.324-1.987,0C333.901,98.15,335.889,98.15,335.889,99.477"/>
	<path fill="none" stroke="#000000" stroke-linecap="round" stroke-linejoin="round" stroke-miterlimit="10" d="M362.65,85.334
		c0,1.326-1.988,1.326-1.988,0S362.65,84.008,362.65,85.334"/>
	<path fill="none" stroke="#000000" stroke-linecap="round" stroke-linejoin="round" stroke-miterlimit="10" d="M376.028,98.088
		c0,1.326-1.987,1.326-1.987,0S376.028,96.762,376.028,98.088"/>
	<path fill="none" stroke="#000000" stroke-linecap="round" stroke-linejoin="round" stroke-miterlimit="10" d="M295.746,80.158
		c0,1.322-1.986,1.322-1.986,0C293.762,78.83,295.746,78.83,295.746,80.158"/>
	<path fill="none" stroke="#000000" stroke-linecap="round" stroke-linejoin="round" stroke-miterlimit="10" d="M322.509,118.357
		c0,1.324-1.989,1.324-1.989,0C320.52,117.031,322.509,117.031,322.509,118.357"/>
	<path fill="none" stroke="#000000" stroke-linecap="round" stroke-linejoin="round" stroke-miterlimit="10" d="M376.028,84.348
		c0,1.326-1.987,1.326-1.987,0C374.041,83.023,376.028,83.023,376.028,84.348"/>
	<path fill="none" stroke="#000000" stroke-linecap="round" stroke-linejoin="round" stroke-miterlimit="10" d="M268.988,39.825
		c0,1.324-1.986,1.324-1.986,0C267.002,38.498,268.988,38.498,268.988,39.825"/>
	<path fill="none" stroke="#000000" stroke-linecap="round" stroke-linejoin="round" stroke-miterlimit="10" d="M282.369,52.941
		c0,1.325-1.987,1.325-1.987,0C280.382,51.618,282.369,51.618,282.369,52.941"/>
	<path fill="none" stroke="#000000" stroke-linecap="round" stroke-linejoin="round" stroke-miterlimit="10" d="M255.608,48.324
		c0,1.325-1.987,1.325-1.987,0C253.621,46.996,255.608,46.996,255.608,48.324"/>
	<path fill="none" stroke="#000000" stroke-linecap="round" stroke-linejoin="round" stroke-miterlimit="10" d="M362.65,27.927
		c0,1.325-1.988,1.325-1.988,0C360.662,26.604,362.65,26.604,362.65,27.927"/>
	<path fill="none" stroke="#000000" stroke-linecap="round" stroke-linejoin="round" stroke-miterlimit="10" d="M268.988,83.318
		c0,1.326-1.986,1.326-1.986,0C267.002,81.994,268.988,81.994,268.988,83.318"/>
	<path fill="none" stroke="#000000" stroke-linecap="round" stroke-linejoin="round" stroke-miterlimit="10" d="M309.128,96.057
		c0,1.326-1.987,1.326-1.987,0C307.141,94.732,309.128,94.732,309.128,96.057"/>
	<path fill="none" stroke="#000000" stroke-linecap="round" stroke-linejoin="round" stroke-miterlimit="10" d="M362.65,79.896
		c0,1.326-1.988,1.326-1.988,0C360.662,78.574,362.65,78.574,362.65,79.896"/>
	<path fill="none" stroke="#000000" stroke-linecap="round" stroke-linejoin="round" stroke-miterlimit="10" d="M322.509,32.222
		c0,1.327-1.989,1.327-1.989,0C320.52,30.898,322.509,30.898,322.509,32.222"/>
	<path fill="none" stroke="#000000" stroke-linecap="round" stroke-linejoin="round" stroke-miterlimit="10" d="M268.988,65.557
		c0,1.325-1.986,1.325-1.986,0S268.988,64.232,268.988,65.557"/>
	<path fill="none" stroke="#000000" stroke-linecap="round" stroke-linejoin="round" stroke-miterlimit="10" d="M295.746,69.318
		c0,1.323-1.986,1.323-1.986,0C293.762,67.993,295.746,67.993,295.746,69.318"/>
	<path fill="none" stroke="#000000" stroke-linecap="round" stroke-linejoin="round" stroke-miterlimit="10" d="M349.269,75.282
		c0,1.324-1.989,1.324-1.989,0C347.279,73.956,349.269,73.956,349.269,75.282"/>
	<path fill="none" stroke="#000000" stroke-linecap="round" stroke-linejoin="round" stroke-miterlimit="10" d="M268.988,90
		c0,1.326-1.986,1.326-1.986,0C267.002,88.676,268.988,88.676,268.988,90"/>
	<path fill="none" stroke="#000000" stroke-linecap="round" stroke-linejoin="round" stroke-miterlimit="10" d="M322.509,98.334
		c0,1.328-1.989,1.328-1.989,0C320.52,97.008,322.509,97.012,322.509,98.334"/>
	<path fill="none" stroke="#000000" stroke-linecap="round" stroke-linejoin="round" stroke-miterlimit="10" d="M335.889,69.68
		c0,1.325-1.987,1.325-1.987,0C333.901,68.356,335.889,68.356,335.889,69.68"/>
	<path fill="none" stroke="#000000" stroke-linejoin="round" stroke-miterlimit="10" d="M248.594,132.771V-0.07"/>
	<path fill="none" stroke="#333333" stroke-linejoin="round" stroke-miterlimit="10" d="M247.2,108.494h1.394"/>
	<path fill="none" stroke="#333333" stroke-linejoin="round" stroke-miterlimit="10" d="M247.2,81.186h1.394"/>
	<path fill="none" stroke="#333333" stroke-linejoin="round" stroke-miterlimit="10" d="M247.2,53.877h1.394"/>
	<path fill="none" stroke="#333333" stroke-linejoin="round" stroke-miterlimit="10" d="M247.2,26.569h1.394"/>
	<path fill="none" stroke="#000000" stroke-linejoin="round" stroke-miterlimit="10" d="M248.594,132.771h132.463"/>
	<path fill="none" stroke="#333333" stroke-linejoin="round" stroke-miterlimit="10" d="M249.56,134.162v-1.391"/>
	<path fill="none" stroke="#333333" stroke-linejoin="round" stroke-miterlimit="10" d="M283.011,134.162v-1.391"/>
	<path fill="none" stroke="#333333" stroke-linejoin="round" stroke-miterlimit="10" d="M316.46,134.162v-1.391"/>
	<path fill="none" stroke="#333333" stroke-linejoin="round" stroke-miterlimit="10" d="M349.911,134.162v-1.391"/>
</g>
<image overflow="visible" enable-background="new    " width="869" height="835" xlink:href="CE1C8B11.jpg"  transform="matrix(0.1311 0 0 0.1278 -117.2827 23.9277)">
</image>
<text transform="matrix(1 0 0 1 -129.3569 -18.4072)" font-family="'ArialMT'" font-size="12">A</text>
<text transform="matrix(1 0 0 1 16.8882 -18.4072)" font-family="'ArialMT'" font-size="12">B</text>
<text transform="matrix(1 0 0 1 -57.2656 148.1504)" font-family="'ArialMT'" font-size="6">Y = 12</text>
<text transform="matrix(1 0 0 1 -112.6299 22.3833)" font-family="'ArialMT'" font-size="6">L</text>
<line fill="none" stroke="#CCCCCC" stroke-miterlimit="10" x1="-51.808" y1="85.75" x2="-12.352" y2="6.486"/>
<text transform="matrix(1 0 0 1 247.4834 142.4111)" font-family="'ArialMT'" font-size="6">-5</text>
<text transform="matrix(1 0 0 1 314.8242 142.4111)" font-family="'ArialMT'" font-size="6">0</text>
<text transform="matrix(1 0 0 1 344.8057 142.4111)" font-family="'ArialMT'" font-size="6">2.5</text>
<text transform="matrix(1 0 0 1 275.0684 142.4111)" font-family="'ArialMT'" font-size="6">-2.5</text>
<text transform="matrix(1 0 0 1 377.7422 142.4111)" font-family="'ArialMT'" font-size="6">5</text>
<path fill="none" stroke="#333333" stroke-linejoin="round" stroke-miterlimit="10" d="M380.45,134.857v-1.389"/>
<text transform="matrix(1 0 0 1 237.7676 28.9209)" font-family="'ArialMT'" font-size="6">50</text>
<text transform="matrix(1 0 0 1 237.7676 56.7163)" font-family="'ArialMT'" font-size="6">25</text>
<text transform="matrix(1 0 0 1 241.1523 83.7695)" font-family="'ArialMT'" font-size="6">0</text>
<text transform="matrix(1 0 0 1 235.7363 110.8242)" font-family="'ArialMT'" font-size="6">-25</text>
<text transform="matrix(4.489659e-011 -1 1 4.489659e-011 220.9863 102.7705)" font-family="'ArialMT'" font-size="8">VS response (β)</text>
<text transform="matrix(4.489659e-011 -1 1 4.489659e-011 232.4873 131.0225)" font-family="'ArialMT'" font-size="8">Rew v Pun with Friend v Stranger</text>
<text transform="matrix(1 0 0 1 287.8486 157.8379)" font-family="'ArialMT'" font-size="8">Reward Sensitivity</text>
<text transform="matrix(1 0 0 1 202.8877 -18.4072)" font-family="'ArialMT'" font-size="12">C</text>
<text transform="matrix(1 0 0 1 -45.5361 1.25)" font-family="'ArialMT'" font-size="8">Ventral Striatum</text>
<g>
	<g>
		
			<line fill="none" stroke="#262626" stroke-linejoin="round" stroke-miterlimit="10" x1="58.449" y1="54.451" x2="196.142" y2="54.451"/>
	</g>
	<g>
		<path fill="#0072BD" d="M85.224,54.451V14.999H69.925v39.452H85.224z M138.771,54.451v61.77h15.297v-61.77H138.771z"/>
	</g>
	<g>
		<path fill="none" stroke="#000000" stroke-miterlimit="10" d="M69.925,54.451V14.999h15.299v39.452H69.925z"/>
		<path fill="none" stroke="#000000" stroke-miterlimit="10" d="M138.771,54.451v61.77h15.297v-61.77H138.771z"/>
	</g>
	<g>
		<path fill="#D95319" d="M100.523,54.451v-0.916h-15.3v0.916H100.523z M154.067,54.451v60.2h15.301v-60.2H154.067z"/>
	</g>
	<g>
		<path fill="none" stroke="#000000" stroke-miterlimit="10" d="M85.224,54.451v-0.916h15.3v0.916H85.224z"/>
		<path fill="none" stroke="#000000" stroke-miterlimit="10" d="M154.067,54.451v60.2h15.301v-60.2H154.067z"/>
	</g>
	<g>
		<path fill="#EDB120" d="M100.523,54.451V66.18h15.299V54.451H100.523z M169.368,54.451v53.45h15.3v-53.45H169.368z"/>
	</g>
	<g>
		<path fill="none" stroke="#000000" stroke-miterlimit="10" d="M100.523,54.451V66.18h15.299V54.451H100.523z"/>
		<path fill="none" stroke="#000000" stroke-miterlimit="10" d="M169.368,54.451v53.45h15.3v-53.45H169.368z"/>
		
			<line fill="none" stroke="#000000" stroke-linejoin="round" stroke-miterlimit="10" x1="77.573" y1="14.999" x2="77.573" y2="26.658"/>
		
			<line fill="none" stroke="#000000" stroke-linejoin="round" stroke-miterlimit="10" x1="146.419" y1="116.221" x2="146.419" y2="127.783"/>
		
			<line fill="none" stroke="#000000" stroke-linejoin="round" stroke-miterlimit="10" x1="77.573" y1="14.999" x2="77.573" y2="3.338"/>
		
			<line fill="none" stroke="#000000" stroke-linejoin="round" stroke-miterlimit="10" x1="146.419" y1="116.221" x2="146.419" y2="104.66"/>
	</g>
	<g transform="translate(271.5278,133.4635)">
		<path d="M-195.82-106.807h3.729"/>
	</g>
	<g transform="translate(271.5278,133.4635)">
		<path fill="none" stroke="#000000" stroke-miterlimit="10" d="M-195.82-106.807h3.729"/>
	</g>
	<g transform="translate(493.0278,458.8173)">
		<path d="M-348.475-331.034h3.73"/>
	</g>
	<g transform="translate(493.0278,458.8173)">
		<path fill="none" stroke="#000000" stroke-miterlimit="10" d="M-348.475-331.034h3.73"/>
	</g>
	<g transform="translate(271.5278,58.4442)">
		<path d="M-195.82-55.104h3.729"/>
	</g>
	<g transform="translate(271.5278,58.4442)">
		<path fill="none" stroke="#000000" stroke-miterlimit="10" d="M-195.82-55.104h3.729"/>
	</g>
	<g transform="translate(493.0278,384.4252)">
		<path d="M-348.475-279.765h3.73"/>
	</g>
	<g transform="translate(493.0278,384.4252)">
		<path fill="none" stroke="#000000" stroke-miterlimit="10" d="M-348.475-279.765h3.73"/>
		
			<line fill="none" stroke="#000000" stroke-linejoin="round" stroke-miterlimit="10" x1="-400.156" y1="-330.89" x2="-400.156" y2="-316.68"/>
		
			<line fill="none" stroke="#000000" stroke-linejoin="round" stroke-miterlimit="10" x1="-331.31" y1="-269.774" x2="-331.31" y2="-255.909"/>
		
			<line fill="none" stroke="#000000" stroke-linejoin="round" stroke-miterlimit="10" x1="-400.156" y1="-330.89" x2="-400.156" y2="-345.101"/>
		
			<line fill="none" stroke="#000000" stroke-linejoin="round" stroke-miterlimit="10" x1="-331.31" y1="-269.774" x2="-331.31" y2="-283.634"/>
	</g>
	<g transform="translate(320.75,265.6586)">
		<path d="M-229.742-197.913h3.731"/>
	</g>
	<g transform="translate(320.75,265.6586)">
		<path fill="none" stroke="#000000" stroke-miterlimit="10" d="M-229.742-197.913h3.731"/>
	</g>
	<g transform="translate(542.25,461.1714)">
		<path d="M-382.396-332.655h3.729"/>
	</g>
	<g transform="translate(542.25,461.1714)">
		<path fill="none" stroke="#000000" stroke-miterlimit="10" d="M-382.396-332.655h3.729"/>
	</g>
	<g transform="translate(320.75,174.2189)">
		<path d="M-229.742-134.894h3.731"/>
	</g>
	<g transform="translate(320.75,174.2189)">
		<path fill="none" stroke="#000000" stroke-miterlimit="10" d="M-229.742-134.894h3.731"/>
	</g>
	<g transform="translate(542.25,371.9738)">
		<path d="M-382.396-271.183h3.729"/>
	</g>
	<g transform="translate(542.25,371.9738)">
		<path fill="none" stroke="#000000" stroke-miterlimit="10" d="M-382.396-271.183h3.729"/>
		
			<line fill="none" stroke="#000000" stroke-linejoin="round" stroke-miterlimit="10" x1="-434.077" y1="-305.792" x2="-434.077" y2="-285.644"/>
		
			<line fill="none" stroke="#000000" stroke-linejoin="round" stroke-miterlimit="10" x1="-365.23" y1="-264.072" x2="-365.23" y2="-249.804"/>
		
			<line fill="none" stroke="#000000" stroke-linejoin="round" stroke-miterlimit="10" x1="-434.077" y1="-305.792" x2="-434.077" y2="-325.941"/>
		
			<line fill="none" stroke="#000000" stroke-linejoin="round" stroke-miterlimit="10" x1="-365.23" y1="-264.072" x2="-365.23" y2="-278.341"/>
	</g>
	<g transform="translate(369.9722,325.4447)">
		<path d="M-263.665-239.117h3.73"/>
	</g>
	<g transform="translate(369.9722,325.4447)">
		<path fill="none" stroke="#000000" stroke-miterlimit="10" d="M-263.665-239.117h3.73"/>
	</g>
	<g transform="translate(591.4722,440.757)">
		<path d="M-416.319-318.587h3.73"/>
	</g>
	<g transform="translate(591.4722,440.757)">
		<path fill="none" stroke="#000000" stroke-miterlimit="10" d="M-416.319-318.587h3.73"/>
	</g>
	<g transform="translate(369.9722,195.8044)">
		<path d="M-263.665-149.771h3.73"/>
	</g>
	<g transform="translate(369.9722,195.8044)">
		<path fill="none" stroke="#000000" stroke-miterlimit="10" d="M-263.665-149.771h3.73"/>
	</g>
	<g transform="translate(591.4722,348.9471)">
		<path d="M-416.319-255.314h3.73"/>
	</g>
	<g transform="translate(591.4722,348.9471)">
		<path fill="none" stroke="#000000" stroke-miterlimit="10" d="M-416.319-255.314h3.73"/>
	</g>
	<g>
		
			<line fill="none" stroke="#262626" stroke-linecap="square" stroke-linejoin="round" stroke-miterlimit="10" x1="58.449" y1="135.922" x2="196.142" y2="135.922"/>
		
			<line fill="none" stroke="#262626" stroke-linecap="square" stroke-linejoin="round" stroke-miterlimit="10" x1="58.449" y1="-1.772" x2="196.142" y2="-1.772"/>
	</g>
	<g>
		
			<line fill="none" stroke="#262626" stroke-linecap="square" stroke-linejoin="round" stroke-miterlimit="10" x1="58.449" y1="135.922" x2="58.449" y2="-1.772"/>
		
			<line fill="none" stroke="#262626" stroke-linecap="square" stroke-linejoin="round" stroke-miterlimit="10" x1="196.142" y1="135.922" x2="196.142" y2="-1.772"/>
	</g>
	<g transform="translate(202.0556,428.6232)">
		<text transform="matrix(1 0 0 1 -156.3325 -308.049)" fill="#262626" font-family="'MyriadPro-Regular'" font-size="6.1732">-15</text>
	</g>
	<g transform="translate(202.0556,360.0442)">
		<text transform="matrix(1 0 0 1 -156.3325 -260.7864)" fill="#262626" font-family="'MyriadPro-Regular'" font-size="6.1732">-10</text>
	</g>
	<g transform="translate(202.0556,291.4651)">
		<text transform="matrix(1 0 0 1 -152.292 -213.5217)" fill="#262626" font-family="'MyriadPro-Regular'" font-size="6.1732">-5</text>
	</g>
	<g transform="translate(202.0556,222.886)">
		<text transform="matrix(1 0 0 1 -150.1167 -166.2586)" fill="#262626" font-family="'MyriadPro-Regular'" font-size="6.1732">0</text>
	</g>
	<g transform="translate(202.0556,154.3069)">
		<text transform="matrix(1 0 0 1 -150.1167 -118.9959)" fill="#262626" font-family="'MyriadPro-Regular'" font-size="6.1732">5</text>
	</g>
	<g transform="translate(202.0556,85.7278)">
		<text transform="matrix(1 0 0 1 -154.1572 -71.7322)" fill="#262626" font-family="'MyriadPro-Regular'" font-size="6.1732">10</text>
	</g>
</g>
<g transform="translate(144.0972,263.4998) rotate(-90)">
	<text transform="matrix(1.0791 0 0 1 153.8904 -109.8193)" fill="#272626" font-family="'MyriadPro-Regular'" font-size="8">VS-pTPJ Connectivity</text>
	<text transform="matrix(1 0 0 1 229.9241 -109.8193)" fill="#262626" font-family="'ArialMT'" font-size="8"> (β)</text>
	<text transform="matrix(1 0 0 1 143.9627 -100.2192)" fill="#262626" font-family="'ArialMT'" font-size="8">Reward in Friends v Strangers</text>
</g>
<g transform="translate(431.5002,526.9305)">
	<text transform="matrix(1 0 0 1 -319.6624 -376.6375)" fill="#272626" font-family="'ArialMT'" font-size="8">Condition</text>
</g>
<text transform="matrix(1 0 0 1 88.1221 142.6582)"><tspan x="0" y="0" fill="#020202" font-family="'ArialMT'" font-size="6">Win</tspan><tspan x="10.333" y="0" fill="#020202" font-family="'ArialMT'" font-size="6" letter-spacing="7">	</tspan><tspan x="19.051" y="0" fill="#020202" font-family="'ArialMT'" font-size="6" letter-spacing="17">		</tspan><tspan x="57.152" y="0" fill="#020202" font-family="'ArialMT'" font-size="6">       Loss</tspan></text>
<line fill="none" stroke="#262626" stroke-linecap="square" stroke-linejoin="round" stroke-miterlimit="10" x1="77.574" y1="134.769" x2="77.574" y2="134.556"/>
<line fill="none" stroke="#262626" stroke-linecap="square" stroke-linejoin="round" stroke-miterlimit="10" x1="95.16" y1="134.769" x2="95.16" y2="134.556"/>
<line fill="none" stroke="#262626" stroke-linecap="square" stroke-linejoin="round" stroke-miterlimit="10" x1="112.744" y1="134.769" x2="112.744" y2="134.556"/>
<line fill="none" stroke="#262626" stroke-linecap="square" stroke-linejoin="round" stroke-miterlimit="10" x1="141.85" y1="134.769" x2="141.85" y2="134.556"/>
<line fill="none" stroke="#262626" stroke-linecap="square" stroke-linejoin="round" stroke-miterlimit="10" x1="159.435" y1="134.769" x2="159.435" y2="134.556"/>
<line fill="none" stroke="#262626" stroke-linecap="square" stroke-linejoin="round" stroke-miterlimit="10" x1="177.02" y1="134.769" x2="177.02" y2="134.556"/>
<line fill="none" stroke="#262626" stroke-linecap="square" stroke-linejoin="round" stroke-miterlimit="10" x1="58.739" y1="119.392" x2="60.159" y2="119.392"/>
<line fill="none" stroke="#262626" stroke-linecap="square" stroke-linejoin="round" stroke-miterlimit="10" x1="58.739" y1="97.804" x2="60.159" y2="97.804"/>
<line fill="none" stroke="#262626" stroke-linecap="square" stroke-linejoin="round" stroke-miterlimit="10" x1="58.739" y1="76.211" x2="60.159" y2="76.211"/>
<line fill="none" stroke="#262626" stroke-linecap="square" stroke-linejoin="round" stroke-miterlimit="10" x1="58.739" y1="54.623" x2="60.159" y2="54.623"/>
<line fill="none" stroke="#262626" stroke-linecap="square" stroke-linejoin="round" stroke-miterlimit="10" x1="58.739" y1="33.033" x2="60.159" y2="33.033"/>
<line fill="none" stroke="#262626" stroke-linecap="square" stroke-linejoin="round" stroke-miterlimit="10" x1="58.739" y1="11.444" x2="60.159" y2="11.444"/>
</svg>
