<?xml version="1.0" encoding="utf-8"?>
<!-- Generator: Adobe Illustrator 16.0.3, SVG Export Plug-In . SVG Version: 6.00 Build 0)  -->
<!DOCTYPE svg PUBLIC "-//W3C//DTD SVG 1.1//EN" "http://www.w3.org/Graphics/SVG/1.1/DTD/svg11.dtd">
<svg version="1.1" id="Layer_1" xmlns="http://www.w3.org/2000/svg" xmlns:xlink="http://www.w3.org/1999/xlink" x="0px" y="0px"
	 width="518.74px" height="345.6px" viewBox="0 0 518.74 345.6" enable-background="new 0 0 518.74 345.6" xml:space="preserve">
<g id="figure_1">
	<g id="axes_1">
		<g id="patch_2">
			<path fill="#FFFFFF" d="M378.147,222.884h138.338V119.801H378.147V222.884z"/>
		</g>
		<g id="patch_3">
			<g>
				<g>
					<g>
						<defs>
							<rect id="SVGID_1_" x="378.147" y="119.801" width="138.338" height="103.083"/>
						</defs>
						<clipPath id="SVGID_2_">
							<use xlink:href="#SVGID_1_"  overflow="visible"/>
						</clipPath>
						<path clip-path="url(#SVGID_2_)" fill="#3274A1" stroke="#000000" d="M382.76,222.884h36.89v-92.483h-36.89V222.884z"/>
					</g>
				</g>
			</g>
		</g>
		<g id="patch_4">
			<g>
				<g>
					<g>
						<defs>
							<rect id="SVGID_3_" x="378.147" y="119.801" width="138.338" height="103.083"/>
						</defs>
						<clipPath id="SVGID_4_">
							<use xlink:href="#SVGID_3_"  overflow="visible"/>
						</clipPath>
						<path clip-path="url(#SVGID_4_)" fill="#DF5420" stroke="#000000" d="M428.871,222.884h36.891v-44.107h-36.891V222.884
							L428.871,222.884z"/>
					</g>
				</g>
			</g>
		</g>
		<g id="patch_5">
			<g>
				<g>
					<g>
						<defs>
							<rect id="SVGID_5_" x="378.147" y="119.801" width="138.338" height="103.083"/>
						</defs>
						<clipPath id="SVGID_6_">
							<use xlink:href="#SVGID_5_"  overflow="visible"/>
						</clipPath>
						<path clip-path="url(#SVGID_6_)" fill="#DFC120" stroke="#000000" d="M474.982,222.884h36.891v-43.396h-36.891V222.884z"/>
					</g>
				</g>
			</g>
		</g>
		<g id="matplotlib.axis_1">
			<g id="xtick_1">
				<g id="line2d_1">
					<g>
						<g>
							<path id="m221cf53daa" stroke="#000000" stroke-width="0.8" stroke-linejoin="round" d="M401.203,222.884v1.357"/>
						</g>
					</g>
				</g>
				<g id="text_1">
					<g transform="translate(101.742656 322.182437)scale(0.1 -0.1)">
						<g>
							<path id="DejaVuSans-69" d="M2974.087,965.855h3.486v-4.424h-3.486V965.855z"/>
						</g>
					</g>
				</g>
			</g>
			<g id="xtick_2">
				<g id="line2d_2">
					<g>
						<g>
							<path id="m221cf53daa_1_" stroke="#000000" stroke-width="0.8" stroke-linejoin="round" d="M447.316,222.884v1.357"/>
						</g>
					</g>
				</g>
			</g>
			<g id="xtick_3">
				<g id="line2d_3">
					<g>
						<g>
							<path id="m221cf53daa_2_" stroke="#000000" stroke-width="0.8" stroke-linejoin="round" d="M493.43,222.884v1.357"/>
						</g>
					</g>
				</g>
			</g>
		</g>
		<g id="matplotlib.axis_2">
			<g id="ytick_1">
				<g id="line2d_4">
					<g>
						<g>
							<path id="mb6affc9f3f" stroke="#000000" stroke-width="0.8" stroke-linejoin="round" d="M378.147,222.884h-1.355"/>
						</g>
					</g>
				</g>
			</g>
			<g id="ytick_2">
				<g id="line2d_5">
					<g>
						<g>
							<path id="mb6affc9f3f_1_" stroke="#000000" stroke-width="0.8" stroke-linejoin="round" d="M378.147,202.965h-1.355"/>
						</g>
					</g>
				</g>
			</g>
			<g id="ytick_3">
				<g id="line2d_6">
					<g>
						<g>
							<path id="mb6affc9f3f_2_" stroke="#000000" stroke-width="0.8" stroke-linejoin="round" d="M378.147,183.045h-1.355"/>
						</g>
					</g>
				</g>
			</g>
			<g id="ytick_4">
				<g id="line2d_7">
					<g>
						<g>
							<path id="mb6affc9f3f_3_" stroke="#000000" stroke-width="0.8" stroke-linejoin="round" d="M378.147,163.126h-1.355"/>
						</g>
					</g>
				</g>
			</g>
			<g id="ytick_5">
				<g id="line2d_8">
					<g>
						<g>
							<path id="mb6affc9f3f_4_" stroke="#000000" stroke-width="0.8" stroke-linejoin="round" d="M378.147,143.207h-1.355"/>
						</g>
					</g>
				</g>
			</g>
			<g id="ytick_6">
				<g id="line2d_9">
					<g>
						<g>
							<path id="mb6affc9f3f_5_" stroke="#000000" stroke-width="0.8" stroke-linejoin="round" d="M378.147,123.287h-1.355"/>
						</g>
					</g>
				</g>
			</g>
		</g>
		<g id="line2d_10">
			<g>
				<g>
					<g>
						<defs>
							<rect id="SVGID_7_" x="378.147" y="119.801" width="138.338" height="103.083"/>
						</defs>
						<clipPath id="SVGID_8_">
							<use xlink:href="#SVGID_7_"  overflow="visible"/>
						</clipPath>
						<path clip-path="url(#SVGID_8_)" fill="none" stroke="#424242" stroke-linecap="square" stroke-linejoin="round" d="
							M401.203,135.381V124.71"/>
					</g>
				</g>
			</g>
		</g>
		<g id="line2d_11">
			<g>
				<g>
					<g>
						<defs>
							<rect id="SVGID_9_" x="378.147" y="119.801" width="138.338" height="103.083"/>
						</defs>
						<clipPath id="SVGID_10_">
							<use xlink:href="#SVGID_9_"  overflow="visible"/>
						</clipPath>
						<path clip-path="url(#SVGID_10_)" fill="none" stroke="#424242" stroke-linecap="square" stroke-linejoin="round" d="
							M447.316,183.757v-9.959"/>
					</g>
				</g>
			</g>
		</g>
		<g id="line2d_12">
			<g>
				<g>
					<g>
						<defs>
							<rect id="SVGID_11_" x="378.147" y="119.801" width="138.338" height="103.083"/>
						</defs>
						<clipPath id="SVGID_12_">
							<use xlink:href="#SVGID_11_"  overflow="visible"/>
						</clipPath>
						<path clip-path="url(#SVGID_12_)" fill="none" stroke="#424242" stroke-linecap="square" stroke-linejoin="round" d="
							M493.43,184.469v-9.961"/>
					</g>
				</g>
			</g>
		</g>
		<g id="patch_6">
			<path fill="none" stroke="#000000" stroke-width="0.8" stroke-linecap="square" d="M378.147,222.884V119.801"/>
		</g>
		<g id="patch_7">
			<path fill="none" stroke="#000000" stroke-width="0.8" stroke-linecap="square" d="M516.485,222.884V119.801"/>
		</g>
		<g id="patch_8">
			<path fill="none" stroke="#000000" stroke-width="0.8" stroke-linecap="square" d="M378.147,222.884h138.338"/>
		</g>
		<g id="patch_9">
			<path fill="none" stroke="#000000" stroke-width="0.8" stroke-linecap="square" d="M378.147,119.801h138.338"/>
		</g>
	</g>
</g>
<g id="figure_1_1_">
	<g id="axes_1_1_">
		<g id="patch_3_1_">
			<g>
				<g>
					<g>
						<defs>
							<rect id="SVGID_13_" x="25.71" y="109.665" width="162.447" height="121.048"/>
						</defs>
						<clipPath id="SVGID_14_">
							<use xlink:href="#SVGID_13_"  overflow="visible"/>
						</clipPath>
						<path clip-path="url(#SVGID_14_)" fill="#3274A1" stroke="#000000" d="M33.834,175.052h21.66v-52.979h-21.66V175.052z"/>
					</g>
				</g>
			</g>
		</g>
		<g id="patch_4_1_">
			<g>
				<g>
					<g>
						<defs>
							<rect id="SVGID_15_" x="25.71" y="109.665" width="162.447" height="121.048"/>
						</defs>
						<clipPath id="SVGID_16_">
							<use xlink:href="#SVGID_15_"  overflow="visible"/>
						</clipPath>
						<path clip-path="url(#SVGID_16_)" fill="#3274A1" stroke="#000000" d="M115.057,175.052h21.659v41.068h-21.659V175.052z"/>
					</g>
				</g>
			</g>
		</g>
		<g id="patch_5_1_">
			<g>
				<g>
					<g>
						<defs>
							<rect id="SVGID_17_" x="25.71" y="109.665" width="162.447" height="121.048"/>
						</defs>
						<clipPath id="SVGID_18_">
							<use xlink:href="#SVGID_17_"  overflow="visible"/>
						</clipPath>
						<path clip-path="url(#SVGID_18_)" fill="#DF5420" stroke="#000000" d="M55.494,175.052h21.659v-12.854H55.494V175.052z"/>
					</g>
				</g>
			</g>
		</g>
		<g id="patch_6_1_">
			<g>
				<g>
					<g>
						<defs>
							<rect id="SVGID_19_" x="25.71" y="109.665" width="162.447" height="121.048"/>
						</defs>
						<clipPath id="SVGID_20_">
							<use xlink:href="#SVGID_19_"  overflow="visible"/>
						</clipPath>
						<path clip-path="url(#SVGID_20_)" fill="#DF5420" stroke="#000000" d="M136.715,175.052h21.659v21.945h-21.659V175.052z"/>
					</g>
				</g>
			</g>
		</g>
		<g id="patch_7_1_">
			<g>
				<g>
					<g>
						<defs>
							<rect id="SVGID_21_" x="25.71" y="109.665" width="162.447" height="121.048"/>
						</defs>
						<clipPath id="SVGID_22_">
							<use xlink:href="#SVGID_21_"  overflow="visible"/>
						</clipPath>
						<path clip-path="url(#SVGID_22_)" fill="#DFC120" stroke="#000000" d="M77.152,175.052h21.66v-7.837h-21.66V175.052z"/>
					</g>
				</g>
			</g>
		</g>
		<g id="patch_8_1_">
			<g>
				<g>
					<g>
						<defs>
							<rect id="SVGID_23_" x="25.71" y="109.665" width="162.447" height="121.048"/>
						</defs>
						<clipPath id="SVGID_24_">
							<use xlink:href="#SVGID_23_"  overflow="visible"/>
						</clipPath>
						<path clip-path="url(#SVGID_24_)" fill="#DFC120" stroke="#000000" d="M158.375,175.052h21.66v17.242h-21.66V175.052z"/>
					</g>
				</g>
			</g>
		</g>
		<g id="matplotlib.axis_1_1_">
			<g id="xtick_1_1_">
				<g id="line2d_1_1_">
					<g>
						<g>
							<path id="mb404cca711" stroke="#000000" stroke-width="0.8" stroke-linejoin="round" d="M66.323,230.713v1.591"/>
						</g>
					</g>
				</g>
			</g>
			<g id="xtick_2_1_">
				<g id="line2d_2_1_">
					<g>
						<g>
							<path id="mb404cca711_1_" stroke="#000000" stroke-width="0.8" stroke-linejoin="round" d="M147.546,230.713v1.591"/>
						</g>
					</g>
				</g>
			</g>
		</g>
		<g id="matplotlib.axis_2_1_">
			<g id="ytick_1_1_">
				<g id="line2d_3_1_">
					<g>
						<g>
							<path id="mf9525bccf2" stroke="#000000" stroke-width="0.8" stroke-linejoin="round" d="M25.71,218.314h-1.59"/>
						</g>
					</g>
				</g>
			</g>
			<g id="ytick_2_1_">
				<g id="line2d_4_1_">
					<g>
						<g>
							<path id="mf9525bccf2_1_" stroke="#000000" stroke-width="0.8" stroke-linejoin="round" d="M25.71,203.893h-1.59"/>
						</g>
					</g>
				</g>
			</g>
			<g id="ytick_3_1_">
				<g id="line2d_5_1_">
					<g>
						<g>
							<path id="mf9525bccf2_2_" stroke="#000000" stroke-width="0.8" stroke-linejoin="round" d="M25.71,189.473h-1.59"/>
						</g>
					</g>
				</g>
			</g>
			<g id="ytick_4_1_">
				<g id="line2d_6_1_">
					<g>
						<g>
							<path id="mf9525bccf2_3_" stroke="#000000" stroke-width="0.8" stroke-linejoin="round" d="M25.71,175.052h-1.59"/>
						</g>
					</g>
				</g>
			</g>
			<g id="ytick_5_1_">
				<g id="line2d_7_1_">
					<g>
						<g>
							<path id="mf9525bccf2_4_" stroke="#000000" stroke-width="0.8" stroke-linejoin="round" d="M25.71,160.632h-1.59"/>
						</g>
					</g>
				</g>
			</g>
			<g id="ytick_6_1_">
				<g id="line2d_8_1_">
					<g>
						<g>
							<path id="mf9525bccf2_5_" stroke="#000000" stroke-width="0.8" stroke-linejoin="round" d="M25.71,146.211h-1.59"/>
						</g>
					</g>
				</g>
			</g>
			<g id="ytick_7">
				<g id="line2d_9_1_">
					<g>
						<g>
							<path id="mf9525bccf2_6_" stroke="#000000" stroke-width="0.8" stroke-linejoin="round" d="M25.71,131.79h-1.59"/>
						</g>
					</g>
				</g>
			</g>
			<g id="ytick_8">
				<g id="line2d_10_1_">
					<g>
						<g>
							<path id="mf9525bccf2_7_" stroke="#000000" stroke-width="0.8" stroke-linejoin="round" d="M25.71,117.37h-1.59"/>
						</g>
					</g>
				</g>
			</g>
		</g>
		<g id="line2d_11_1_">
			<g>
				<g>
					<g>
						<defs>
							<rect id="SVGID_25_" x="25.71" y="109.665" width="162.447" height="121.048"/>
						</defs>
						<clipPath id="SVGID_26_">
							<use xlink:href="#SVGID_25_"  overflow="visible"/>
						</clipPath>
						<path clip-path="url(#SVGID_26_)" fill="none" stroke="#424242" stroke-linecap="square" stroke-linejoin="round" d="
							M44.664,129.909v-14.742"/>
					</g>
				</g>
			</g>
		</g>
		<g id="line2d_12_1_">
			<g>
				<g>
					<g>
						<defs>
							<rect id="SVGID_27_" x="25.71" y="109.665" width="162.447" height="121.048"/>
						</defs>
						<clipPath id="SVGID_28_">
							<use xlink:href="#SVGID_27_"  overflow="visible"/>
						</clipPath>
						<path clip-path="url(#SVGID_28_)" fill="none" stroke="#424242" stroke-linecap="square" stroke-linejoin="round" d="
							M125.886,225.211v-19.122"/>
					</g>
				</g>
			</g>
		</g>
		<g id="line2d_13">
			<g>
				<g>
					<g>
						<defs>
							<rect id="SVGID_29_" x="25.71" y="109.665" width="162.447" height="121.048"/>
						</defs>
						<clipPath id="SVGID_30_">
							<use xlink:href="#SVGID_29_"  overflow="visible"/>
						</clipPath>
						<path clip-path="url(#SVGID_30_)" fill="none" stroke="#424242" stroke-linecap="square" stroke-linejoin="round" d="
							M66.323,173.171v-21.012"/>
					</g>
				</g>
			</g>
		</g>
		<g id="line2d_14">
			<g>
				<g>
					<g>
						<defs>
							<rect id="SVGID_31_" x="25.71" y="109.665" width="162.447" height="121.048"/>
						</defs>
						<clipPath id="SVGID_32_">
							<use xlink:href="#SVGID_31_"  overflow="visible"/>
						</clipPath>
						<path clip-path="url(#SVGID_32_)" fill="none" stroke="#424242" stroke-linecap="square" stroke-linejoin="round" d="
							M147.546,204.528v-14.738"/>
					</g>
				</g>
			</g>
		</g>
		<g id="line2d_15">
			<g>
				<g>
					<g>
						<defs>
							<rect id="SVGID_33_" x="25.71" y="109.665" width="162.447" height="121.048"/>
						</defs>
						<clipPath id="SVGID_34_">
							<use xlink:href="#SVGID_33_"  overflow="visible"/>
						</clipPath>
						<path clip-path="url(#SVGID_34_)" fill="none" stroke="#424242" stroke-linecap="square" stroke-linejoin="round" d="
							M87.981,178.195v-21.95"/>
					</g>
				</g>
			</g>
		</g>
		<g id="line2d_16">
			<g>
				<g>
					<g>
						<defs>
							<rect id="SVGID_35_" x="25.71" y="109.665" width="162.447" height="121.048"/>
						</defs>
						<clipPath id="SVGID_36_">
							<use xlink:href="#SVGID_35_"  overflow="visible"/>
						</clipPath>
						<path clip-path="url(#SVGID_36_)" fill="none" stroke="#424242" stroke-linecap="square" stroke-linejoin="round" d="
							M169.206,202.013v-18.189"/>
					</g>
				</g>
			</g>
		</g>
		<g id="patch_9_1_">
			<path fill="none" stroke="#000000" stroke-width="0.8" stroke-linecap="square" d="M25.71,230.713V109.665"/>
		</g>
		<g id="patch_10">
			<path fill="none" stroke="#000000" stroke-width="0.8" stroke-linecap="square" d="M188.158,230.713V109.665"/>
		</g>
		<g id="patch_11">
			<path fill="none" stroke="#000000" stroke-width="0.8" stroke-linecap="square" d="M25.71,230.713h162.447"/>
		</g>
		<g id="patch_12">
			<path fill="none" stroke="#000000" stroke-width="0.8" stroke-linecap="square" d="M25.71,109.665h162.447"/>
		</g>
		<g id="legend_1">
			<g id="patch_13">
				<path opacity="0.8" fill="#FFFFFF" stroke="#CCCCCC" enable-background="new    " d="M136.45,148.826h48.805
					c-0.455,0-0.058-0.398-0.058-1.194v-34.471c0-0.796-0.397-1.195-1.194-1.195h-48.805c-0.797,0-1.196,0.399-1.196,1.195v34.471
					C134.001,148.428,134.4,148.826,136.45,148.826z"/>
			</g>
			<g id="patch_14">
				<path fill="#3274A1" stroke="#000000" d="M139.527,126.89h11.383v-3.983h-11.383V126.89z"/>
			</g>
			<g id="patch_15">
				<path fill="#DF5420" stroke="#000000" d="M139.527,135.244h11.383v-3.983h-11.383V135.244z"/>
			</g>
			<g id="patch_16">
				<path fill="#DFC120" stroke="#000000" d="M139.527,143.6h11.383v-3.983h-11.383V143.6z"/>
			</g>
		</g>
	</g>
</g>
<g id="surface6">
	<rect x="216.316" y="114.008" fill="#FFFFFF" width="132.604" height="123.247"/>
	<rect x="216.316" y="114.008" fill="none" width="132.604" height="123.247"/>
	<path fill="none" d="M227.83,351.009h132.602V227.763H227.83V351.009z"/>
	<text transform="matrix(1 0 0 1 227.8296 232.0227)" font-family="'MyriadPro-Regular'" font-size="6">-5</text>
	<path fill="none" stroke="#3366FF" stroke-linejoin="round" stroke-miterlimit="10" stroke-dasharray="8.5358,8.5358" d="
		M235.075,168.438l1.346,0.628l1.346,0.61l1.344,0.587l1.345,0.565l1.346,0.544l1.346,0.521l1.346,0.5l1.346,0.48l1.346,0.458
		l1.346,0.436l1.344,0.414l1.346,0.395l1.346,0.372l1.346,0.349l1.346,0.33l1.346,0.305l1.346,0.285l1.346,0.266l1.346,0.24
		l1.346,0.221l1.348,0.198l1.346,0.179l1.346,0.155l1.347,0.134l1.346,0.112l1.347,0.091l1.346,0.07l1.346,0.048l1.348,0.024
		l1.345,0.005l1.348-0.018l1.347-0.036l1.346-0.062l1.348-0.083l1.344-0.104l1.346-0.123l1.347-0.146l1.349-0.168l1.346-0.188
		l1.345-0.21l1.347-0.232l1.346-0.254l1.348-0.277l1.345-0.297l1.347-0.318l1.346-0.342l1.346-0.357l1.346-0.387l1.348-0.402
		l1.347-0.43l1.347-0.446l1.346-0.472l1.345-0.489l1.347-0.516l1.347-0.535l1.347-0.556l1.347-0.577l1.346-0.599l1.346-0.622
		l1.345-0.643l1.346-0.663l1.349-0.688l1.345-0.707l1.347-0.728l1.347-0.75l1.346-0.772l1.348-0.794l1.344-0.813l1.347-0.838
		l1.346-0.857l1.346-0.88l1.348-0.901l1.347-0.923l1.346-0.944l1.348-0.966l1.344-0.987l1.346-1.009l1.348-1.03l1.347-1.053"/>
	
		<path fill="none" stroke="#000000" stroke-width="0.7087" stroke-linecap="round" stroke-linejoin="round" stroke-miterlimit="10" d="
		M283.114,191.493c0,1.06-1.592,1.06-1.592,0C281.522,190.432,283.114,190.432,283.114,191.493"/>
	
		<path fill="none" stroke="#000000" stroke-width="0.7087" stroke-linecap="round" stroke-linejoin="round" stroke-miterlimit="10" d="
		M283.114,205.56c0,1.062-1.592,1.062-1.592,0C281.522,204.5,283.114,204.5,283.114,205.56"/>
	
		<path fill="none" stroke="#000000" stroke-width="0.7087" stroke-linecap="round" stroke-linejoin="round" stroke-miterlimit="10" d="
		M294.926,184.46c0,1.06-1.591,1.06-1.591,0C293.335,183.4,294.926,183.401,294.926,184.46"/>
	
		<path fill="none" stroke="#000000" stroke-width="0.7087" stroke-linecap="round" stroke-linejoin="round" stroke-miterlimit="10" d="
		M271.304,149.294c0,1.06-1.592,1.06-1.592,0C269.712,148.234,271.304,148.234,271.304,149.294"/>
	
		<path fill="none" stroke="#000000" stroke-width="0.7087" stroke-linecap="round" stroke-linejoin="round" stroke-miterlimit="10" d="
		M318.548,170.393c0,1.063-1.59,1.063-1.59,0C316.958,169.334,318.548,169.334,318.548,170.393"/>
	
		<path fill="none" stroke="#000000" stroke-width="0.7087" stroke-linecap="round" stroke-linejoin="round" stroke-miterlimit="10" d="
		M235.869,170.393c0,1.063-1.591,1.063-1.591,0C234.277,169.334,235.869,169.334,235.869,170.393"/>
	
		<path fill="none" stroke="#000000" stroke-width="0.7087" stroke-linecap="round" stroke-linejoin="round" stroke-miterlimit="10" d="
		M342.171,170.393c0,1.063-1.591,1.063-1.591,0C340.58,169.334,342.171,169.334,342.171,170.393"/>
	
		<path fill="none" stroke="#000000" stroke-width="0.7087" stroke-linecap="round" stroke-linejoin="round" stroke-miterlimit="10" d="
		M247.681,156.328c0,1.059-1.591,1.059-1.591,0C246.089,155.266,247.681,155.266,247.681,156.328"/>
	
		<path fill="none" stroke="#000000" stroke-width="0.7087" stroke-linecap="round" stroke-linejoin="round" stroke-miterlimit="10" d="
		M318.548,191.493c0,1.06-1.59,1.06-1.59,0C316.958,190.432,318.548,190.432,318.548,191.493"/>
	
		<path fill="none" stroke="#000000" stroke-width="0.7087" stroke-linecap="round" stroke-linejoin="round" stroke-miterlimit="10" d="
		M318.548,156.328c0,1.059-1.59,1.059-1.59,0C316.958,155.266,318.548,155.266,318.548,156.328"/>
	
		<path fill="none" stroke="#000000" stroke-width="0.7087" stroke-linecap="round" stroke-linejoin="round" stroke-miterlimit="10" d="
		M271.304,184.46c0,1.06-1.592,1.06-1.592,0C269.712,183.4,271.304,183.401,271.304,184.46"/>
	
		<path fill="none" stroke="#000000" stroke-width="0.7087" stroke-linecap="round" stroke-linejoin="round" stroke-miterlimit="10" d="
		M318.548,191.493c0,1.06-1.59,1.06-1.59,0C316.958,190.432,318.548,190.432,318.548,191.493"/>
	
		<path fill="none" stroke="#000000" stroke-width="0.7087" stroke-linecap="round" stroke-linejoin="round" stroke-miterlimit="10" d="
		M259.492,177.426c0,1.062-1.591,1.062-1.591,0C257.901,176.366,259.492,176.366,259.492,177.426"/>
	
		<path fill="none" stroke="#000000" stroke-width="0.7087" stroke-linecap="round" stroke-linejoin="round" stroke-miterlimit="10" d="
		M342.171,156.328c0,1.059-1.591,1.059-1.591,0C340.58,155.266,342.171,155.266,342.171,156.328"/>
	
		<path fill="none" stroke="#000000" stroke-width="0.7087" stroke-linecap="round" stroke-linejoin="round" stroke-miterlimit="10" d="
		M318.548,149.294c0,1.06-1.59,1.06-1.59,0C316.958,148.234,318.548,148.234,318.548,149.294"/>
	
		<path fill="none" stroke="#000000" stroke-width="0.7087" stroke-linecap="round" stroke-linejoin="round" stroke-miterlimit="10" d="
		M306.735,184.46c0,1.06-1.59,1.06-1.59,0C305.146,183.4,306.735,183.401,306.735,184.46"/>
	
		<path fill="none" stroke="#000000" stroke-width="0.7087" stroke-linecap="round" stroke-linejoin="round" stroke-miterlimit="10" d="
		M235.869,184.46c0,1.06-1.591,1.06-1.591,0C234.277,183.4,235.869,183.401,235.869,184.46"/>
	
		<path fill="none" stroke="#000000" stroke-width="0.7087" stroke-linecap="round" stroke-linejoin="round" stroke-miterlimit="10" d="
		M271.304,149.294c0,1.06-1.592,1.06-1.592,0C269.712,148.234,271.304,148.234,271.304,149.294"/>
	
		<path fill="none" stroke="#000000" stroke-width="0.7087" stroke-linecap="round" stroke-linejoin="round" stroke-miterlimit="10" d="
		M259.492,184.46c0,1.06-1.591,1.06-1.591,0C257.901,183.4,259.492,183.401,259.492,184.46"/>
	
		<path fill="none" stroke="#000000" stroke-width="0.7087" stroke-linecap="round" stroke-linejoin="round" stroke-miterlimit="10" d="
		M342.171,163.36c0,1.062-1.591,1.062-1.591,0C340.58,162.301,342.171,162.301,342.171,163.36"/>
	
		<path fill="none" stroke="#000000" stroke-width="0.7087" stroke-linecap="round" stroke-linejoin="round" stroke-miterlimit="10" d="
		M283.114,184.46c0,1.06-1.592,1.06-1.592,0C281.522,183.4,283.114,183.401,283.114,184.46"/>
	
		<path fill="none" stroke="#000000" stroke-width="0.7087" stroke-linecap="round" stroke-linejoin="round" stroke-miterlimit="10" d="
		M259.492,156.328c0,1.059-1.591,1.059-1.591,0C257.901,155.266,259.492,155.266,259.492,156.328"/>
	
		<path fill="none" stroke="#000000" stroke-width="0.7087" stroke-linecap="round" stroke-linejoin="round" stroke-miterlimit="10" d="
		M247.681,219.627c0,1.06-1.591,1.06-1.591,0C246.089,218.567,247.681,218.567,247.681,219.627"/>
	
		<path fill="none" stroke="#000000" stroke-width="0.7087" stroke-linecap="round" stroke-linejoin="round" stroke-miterlimit="10" d="
		M342.171,121.159c0,1.061-1.591,1.061-1.591,0C340.58,120.098,342.171,120.099,342.171,121.159"/>
	
		<path fill="none" stroke="#000000" stroke-width="0.7087" stroke-linecap="round" stroke-linejoin="round" stroke-miterlimit="10" d="
		M306.735,156.328c0,1.059-1.59,1.059-1.59,0C305.146,155.266,306.735,155.266,306.735,156.328"/>
	
		<path fill="none" stroke="#000000" stroke-width="0.7087" stroke-linecap="round" stroke-linejoin="round" stroke-miterlimit="10" d="
		M330.359,163.36c0,1.062-1.593,1.062-1.593,0C328.769,162.301,330.359,162.301,330.359,163.36"/>
	
		<path fill="none" stroke="#000000" stroke-width="0.7087" stroke-linecap="round" stroke-linejoin="round" stroke-miterlimit="10" d="
		M342.171,121.159c0,1.061-1.591,1.061-1.591,0C340.58,120.098,342.171,120.099,342.171,121.159"/>
	
		<path fill="none" stroke="#000000" stroke-width="0.7087" stroke-linecap="round" stroke-linejoin="round" stroke-miterlimit="10" d="
		M271.304,149.294c0,1.06-1.592,1.06-1.592,0C269.712,148.234,271.304,148.234,271.304,149.294"/>
	
		<path fill="none" stroke="#000000" stroke-width="0.7087" stroke-linecap="round" stroke-linejoin="round" stroke-miterlimit="10" d="
		M294.926,184.46c0,1.06-1.591,1.06-1.591,0C293.335,183.4,294.926,183.401,294.926,184.46"/>
	
		<path fill="none" stroke="#000000" stroke-width="0.7087" stroke-linecap="round" stroke-linejoin="round" stroke-miterlimit="10" d="
		M342.171,177.426c0,1.062-1.591,1.062-1.591,0C340.58,176.366,342.171,176.366,342.171,177.426"/>
	
		<path fill="none" stroke="#000000" stroke-width="0.7087" stroke-linecap="round" stroke-linejoin="round" stroke-miterlimit="10" d="
		M247.681,163.36c0,1.062-1.591,1.062-1.591,0C246.089,162.301,247.681,162.301,247.681,163.36"/>
	
		<path fill="none" stroke="#000000" stroke-width="0.7087" stroke-linecap="round" stroke-linejoin="round" stroke-miterlimit="10" d="
		M259.492,170.393c0,1.063-1.591,1.063-1.591,0C257.901,169.334,259.492,169.334,259.492,170.393"/>
	
		<path fill="none" stroke="#000000" stroke-width="0.7087" stroke-linecap="round" stroke-linejoin="round" stroke-miterlimit="10" d="
		M235.869,177.426c0,1.062-1.591,1.062-1.591,0C234.277,176.366,235.869,176.366,235.869,177.426"/>
	
		<path fill="none" stroke="#000000" stroke-width="0.7087" stroke-linecap="round" stroke-linejoin="round" stroke-miterlimit="10" d="
		M330.359,128.193c0,1.062-1.593,1.062-1.593,0C328.769,127.134,330.359,127.134,330.359,128.193"/>
	
		<path fill="none" stroke="#000000" stroke-width="0.7087" stroke-linecap="round" stroke-linejoin="round" stroke-miterlimit="10" d="
		M247.681,170.393c0,1.063-1.591,1.063-1.591,0C246.089,169.334,247.681,169.334,247.681,170.393"/>
	
		<path fill="none" stroke="#000000" stroke-width="0.7087" stroke-linecap="round" stroke-linejoin="round" stroke-miterlimit="10" d="
		M283.114,177.426c0,1.062-1.592,1.062-1.592,0C281.522,176.366,283.114,176.366,283.114,177.426"/>
	
		<path fill="none" stroke="#000000" stroke-width="0.7087" stroke-linecap="round" stroke-linejoin="round" stroke-miterlimit="10" d="
		M330.359,184.46c0,1.06-1.593,1.06-1.593,0C328.768,183.4,330.359,183.401,330.359,184.46"/>
	
		<path fill="none" stroke="#000000" stroke-width="0.7087" stroke-linecap="round" stroke-linejoin="round" stroke-miterlimit="10" d="
		M294.926,191.493c0,1.06-1.591,1.06-1.591,0C293.335,190.432,294.926,190.432,294.926,191.493"/>
	
		<path fill="none" stroke="#000000" stroke-width="0.7087" stroke-linecap="round" stroke-linejoin="round" stroke-miterlimit="10" d="
		M247.681,163.36c0,1.062-1.591,1.062-1.591,0C246.089,162.301,247.681,162.301,247.681,163.36"/>
	
		<path fill="none" stroke="#000000" stroke-width="0.7087" stroke-linecap="round" stroke-linejoin="round" stroke-miterlimit="10" d="
		M271.304,184.46c0,1.06-1.592,1.06-1.592,0C269.712,183.4,271.304,183.401,271.304,184.46"/>
	
		<path fill="none" stroke="#000000" stroke-width="0.7087" stroke-linecap="round" stroke-linejoin="round" stroke-miterlimit="10" d="
		M318.548,128.193c0,1.062-1.59,1.062-1.59,0C316.958,127.134,318.548,127.134,318.548,128.193"/>
	
		<path fill="none" stroke="#000000" stroke-width="0.7087" stroke-linecap="round" stroke-linejoin="round" stroke-miterlimit="10" d="
		M247.681,156.328c0,1.059-1.591,1.059-1.591,0C246.089,155.266,247.681,155.266,247.681,156.328"/>
	
		<path fill="none" stroke="#000000" stroke-width="0.7087" stroke-linecap="round" stroke-linejoin="round" stroke-miterlimit="10" d="
		M294.926,191.493c0,1.06-1.591,1.06-1.591,0C293.335,190.432,294.926,190.432,294.926,191.493"/>
	<path fill="none" stroke="#000000" stroke-linejoin="round" stroke-miterlimit="10" d="M229.759,224.55V116.237"/>
	<path fill="none" stroke="#333333" stroke-width="1.067" stroke-linejoin="round" stroke-miterlimit="10" d="M228.644,191.493
		h1.115"/>
	<path fill="none" stroke="#333333" stroke-width="1.067" stroke-linejoin="round" stroke-miterlimit="10" d="M228.644,156.328
		h1.115"/>
	<path fill="none" stroke="#333333" stroke-width="1.067" stroke-linejoin="round" stroke-miterlimit="10" d="M228.644,121.159
		h1.115"/>
	<path fill="none" stroke="#000000" stroke-linejoin="round" stroke-miterlimit="10" d="M229.759,224.55H346.69"/>
	<path fill="none" stroke="#333333" stroke-width="1.067" stroke-linejoin="round" stroke-miterlimit="10" d="M230.612,225.664
		v-1.114"/>
	<path fill="none" stroke="#333333" stroke-width="1.067" stroke-linejoin="round" stroke-miterlimit="10" d="M260.142,225.664
		v-1.114"/>
	<path fill="none" stroke="#333333" stroke-width="1.067" stroke-linejoin="round" stroke-miterlimit="10" d="M289.669,225.664
		v-1.114"/>
	<path fill="none" stroke="#333333" stroke-width="1.067" stroke-linejoin="round" stroke-miterlimit="10" d="M319.194,225.664
		v-1.114"/>
</g>
<text transform="matrix(1 0 0 1 203.7271 122.9602)" font-family="'MyriadPro-Regular'" font-size="6" letter-spacing="15"> </text>
<text transform="matrix(1 0 0 1 220.0772 122.9602)" font-family="'MyriadPro-Regular'" font-size="6">10</text>
<text transform="matrix(1 0 0 1 222.1958 157.9133)" font-family="'MyriadPro-Regular'" font-size="6">5</text>
<text transform="matrix(1 0 0 1 222.1958 194.0393)" font-family="'MyriadPro-Regular'" font-size="6">0</text>
<text transform="matrix(1 0 0 1 256.0698 232.0579)" font-family="'MyriadPro-Regular'" font-size="6">-2.5</text>
<text transform="matrix(1 0 0 1 288.7881 231.2864)" font-family="'MyriadPro-Regular'" font-size="6">0</text>
<text transform="matrix(1 0 0 1 316.0771 231.7561)" font-family="'MyriadPro-Regular'" font-size="6">2.5</text>
<text transform="matrix(0.0144 -0.9999 0.9999 0.0144 14.3555 182.1458)" font-family="'ArialMT'" font-size="8">Rating</text>
<text transform="matrix(1 0 0 1 89.336 247.6331)" font-family="'ArialMT'" font-size="8">Outcome</text>
<text transform="matrix(1 0 0 1 262.335 247.6331)" font-family="'ArialMT'" font-size="8">Reward Sensitivity</text>
<text transform="matrix(-6.503243e-004 -1 1 -6.503243e-004 207.7798 195.9075)" font-family="'ArialMT'" font-size="8">Difference in </text>
<text transform="matrix(-6.503243e-004 -1 1 -6.503243e-004 217.3941 217.9114)" font-family="'ArialMT'" font-size="8">Friend vs Stranger Rating</text>
<text transform="matrix(-4.371139e-008 -1 1 -4.371139e-008 367.458 189.4729)" font-family="'ArialMT'" font-size="8">Closeness</text>
<text transform="matrix(1 0 0 1 434.6689 243.9661)" font-family="'ArialMT'" font-size="8">Partner</text>
<text transform="matrix(1 0 0 1 60.669 239.3)" font-family="'ArialMT'" font-size="6">Win</text>
<text transform="matrix(1 0 0 1 142.3355 239.3)" font-family="'ArialMT'" font-size="6">Lose</text>
<text transform="matrix(1 0 0 1 393.335 232.304)" font-family="'ArialMT'" font-size="6">Friend</text>
<text transform="matrix(1 0 0 1 436.335 232.304)" font-family="'ArialMT'" font-size="6">Stranger</text>
<text transform="matrix(1 0 0 1 480.335 232.304)" font-family="'ArialMT'" font-size="6">Computer</text>
<text transform="matrix(1 0 0 1 154.669 117.8606)" font-family="'MyriadPro-Regular'" font-size="6">Partner</text>
<text transform="matrix(1 0 0 1 155.669 127.1936)" font-family="'ArialMT'" font-size="6">Friend</text>
<text transform="matrix(1 0 0 1 155.3355 135.8606)" font-family="'ArialMT'" font-size="6">Stranger</text>
<text transform="matrix(1 0 0 1 154.669 144.5266)" font-family="'ArialMT'" font-size="6">Computer</text>
<text transform="matrix(1 0 0 1 18.667 119.8606)" font-family="'ArialMT'" font-size="6">4</text>
<text transform="matrix(1 0 0 1 15.668 220.4221)" font-family="'ArialMT'" font-size="6">-3</text>
<text transform="matrix(1 0 0 1 370.667 125.8977)" font-family="'ArialMT'" font-size="6">5</text>
<text transform="matrix(1 0 0 1 370.667 224.6331)" font-family="'ArialMT'" font-size="6">0</text>
<text transform="matrix(1 0 0 1 15.668 206.3547)" font-family="'ArialMT'" font-size="6">-2</text>
<text transform="matrix(1 0 0 1 16.0015 192.2883)" font-family="'ArialMT'" font-size="6">-1</text>
<text transform="matrix(1 0 0 1 17.667 177.427)" font-family="'ArialMT'" font-size="6">0</text>
<text transform="matrix(1 0 0 1 17.667 162.5657)" font-family="'ArialMT'" font-size="6">1</text>
<text transform="matrix(1 0 0 1 17.667 147.4993)" font-family="'ArialMT'" font-size="6">2</text>
<text transform="matrix(1 0 0 1 18.0005 134.2532)" font-family="'ArialMT'" font-size="6">3</text>
<text transform="matrix(1 0 0 1 370.667 144.5266)" font-family="'ArialMT'" font-size="6">4</text>
<text transform="matrix(1 0 0 1 370.667 164.8645)" font-family="'ArialMT'" font-size="6">3</text>
<text transform="matrix(1 0 0 1 370.667 184.4221)" font-family="'ArialMT'" font-size="6">2</text>
<text transform="matrix(1 0 0 1 370.667 203.9651)" font-family="'ArialMT'" font-size="6">1</text>
<text transform="matrix(1 0 0 1 1.144409e-005 102.3352)" font-family="'ArialMT'" font-size="12">A</text>
<text transform="matrix(1 0 0 1 194.9776 102.3352)" font-family="'ArialMT'" font-size="12">B</text>
<text transform="matrix(1 0 0 1 351.9795 102.3352)" font-family="'ArialMT'" font-size="12">C</text>
</svg>
