<?xml version="1.0" encoding="utf-8"?>
<!-- Generator: Adobe Illustrator 16.0.3, SVG Export Plug-In . SVG Version: 6.00 Build 0)  -->
<!DOCTYPE svg PUBLIC "-//W3C//DTD SVG 1.1//EN" "http://www.w3.org/Graphics/SVG/1.1/DTD/svg11.dtd">
<svg version="1.1" id="Layer_1" xmlns="http://www.w3.org/2000/svg" xmlns:xlink="http://www.w3.org/1999/xlink" x="0px" y="0px"
	 width="518.74px" height="345.6px" viewBox="-28.97 0 518.74 345.6" enable-background="new -28.97 0 518.74 345.6"
	 xml:space="preserve">
<g id="figure_1">
	<g id="axes_1">
		<g id="patch_2">
			<path fill="#FFFFFF" d="M350.712,222.884H489.05V119.801H350.712V222.884z"/>
		</g>
		<g id="patch_3">
			<g>
				<defs>
					<rect id="SVGID_1_" x="350.712" y="119.801" width="138.338" height="103.083"/>
				</defs>
				<clipPath id="SVGID_2_">
					<use xlink:href="#SVGID_1_"  overflow="visible"/>
				</clipPath>
				<path clip-path="url(#SVGID_2_)" fill="#3274A1" stroke="#000000" d="M355.324,222.884h36.889v-92.483h-36.889V222.884z"/>
			</g>
		</g>
		<g id="patch_4">
			<g>
				<defs>
					<rect id="SVGID_3_" x="350.712" y="119.801" width="138.338" height="103.083"/>
				</defs>
				<clipPath id="SVGID_4_">
					<use xlink:href="#SVGID_3_"  overflow="visible"/>
				</clipPath>
				<path clip-path="url(#SVGID_4_)" fill="#DF5420" stroke="#000000" d="M401.436,222.884h36.89v-44.107h-36.89V222.884z"/>
			</g>
		</g>
		<g id="patch_5">
			<g>
				<defs>
					<rect id="SVGID_5_" x="350.712" y="119.801" width="138.338" height="103.083"/>
				</defs>
				<clipPath id="SVGID_6_">
					<use xlink:href="#SVGID_5_"  overflow="visible"/>
				</clipPath>
				<path clip-path="url(#SVGID_6_)" fill="#DFC120" stroke="#000000" d="M447.547,222.884h36.891v-43.396h-36.891V222.884z"/>
			</g>
		</g>
		<g id="matplotlib.axis_1">
			<g id="xtick_1">
				<g id="line2d_1">
					<g>
						<g>
							<path id="m221cf53daa" stroke="#000000" stroke-width="0.8" stroke-linejoin="round" d="M373.768,222.884v1.357"/>
						</g>
					</g>
				</g>
				<g id="text_1">
					<g transform="translate(101.742656 322.182437)scale(0.1 -0.1)">
						<g>
							<path id="DejaVuSans-69" d="M2699.736,965.855h3.477v-4.424h-3.477V965.855z"/>
						</g>
					</g>
				</g>
			</g>
			<g id="xtick_2">
				<g id="line2d_2">
					<g>
						<g>
							<path id="m221cf53daa_1_" stroke="#000000" stroke-width="0.8" stroke-linejoin="round" d="M419.881,222.884v1.357"/>
						</g>
					</g>
				</g>
			</g>
			<g id="xtick_3">
				<g id="line2d_3">
					<g>
						<g>
							<path id="m221cf53daa_2_" stroke="#000000" stroke-width="0.8" stroke-linejoin="round" d="M465.994,222.884v1.357"/>
						</g>
					</g>
				</g>
			</g>
		</g>
		<g id="matplotlib.axis_2">
			<g id="ytick_1">
				<g id="line2d_4">
					<g>
						<g>
							<path id="mb6affc9f3f" stroke="#000000" stroke-width="0.8" stroke-linejoin="round" d="M350.712,222.884h-1.356"/>
						</g>
					</g>
				</g>
			</g>
			<g id="ytick_2">
				<g id="line2d_5">
					<g>
						<g>
							<path id="mb6affc9f3f_1_" stroke="#000000" stroke-width="0.8" stroke-linejoin="round" d="M350.712,202.965h-1.356"/>
						</g>
					</g>
				</g>
			</g>
			<g id="ytick_3">
				<g id="line2d_6">
					<g>
						<g>
							<path id="mb6affc9f3f_2_" stroke="#000000" stroke-width="0.8" stroke-linejoin="round" d="M350.712,183.045h-1.356"/>
						</g>
					</g>
				</g>
			</g>
			<g id="ytick_4">
				<g id="line2d_7">
					<g>
						<g>
							<path id="mb6affc9f3f_3_" stroke="#000000" stroke-width="0.8" stroke-linejoin="round" d="M350.712,163.126h-1.356"/>
						</g>
					</g>
				</g>
			</g>
			<g id="ytick_5">
				<g id="line2d_8">
					<g>
						<g>
							<path id="mb6affc9f3f_4_" stroke="#000000" stroke-width="0.8" stroke-linejoin="round" d="M350.712,143.207h-1.356"/>
						</g>
					</g>
				</g>
			</g>
			<g id="ytick_6">
				<g id="line2d_9">
					<g>
						<g>
							<path id="mb6affc9f3f_5_" stroke="#000000" stroke-width="0.8" stroke-linejoin="round" d="M350.712,123.287h-1.356"/>
						</g>
					</g>
				</g>
			</g>
		</g>
		<g id="line2d_10">
			<g>
				<defs>
					<rect id="SVGID_7_" x="350.712" y="119.801" width="138.338" height="103.083"/>
				</defs>
				<clipPath id="SVGID_8_">
					<use xlink:href="#SVGID_7_"  overflow="visible"/>
				</clipPath>
				<path clip-path="url(#SVGID_8_)" fill="none" stroke="#424242" stroke-linecap="square" stroke-linejoin="round" d="
					M373.768,135.381V124.71"/>
			</g>
		</g>
		<g id="line2d_11">
			<g>
				<defs>
					<rect id="SVGID_9_" x="350.712" y="119.801" width="138.338" height="103.083"/>
				</defs>
				<clipPath id="SVGID_10_">
					<use xlink:href="#SVGID_9_"  overflow="visible"/>
				</clipPath>
				<path clip-path="url(#SVGID_10_)" fill="none" stroke="#424242" stroke-linecap="square" stroke-linejoin="round" d="
					M419.881,183.757v-9.959"/>
			</g>
		</g>
		<g id="line2d_12">
			<g>
				<defs>
					<rect id="SVGID_11_" x="350.712" y="119.801" width="138.338" height="103.083"/>
				</defs>
				<clipPath id="SVGID_12_">
					<use xlink:href="#SVGID_11_"  overflow="visible"/>
				</clipPath>
				<path clip-path="url(#SVGID_12_)" fill="none" stroke="#424242" stroke-linecap="square" stroke-linejoin="round" d="
					M465.994,184.469v-9.961"/>
			</g>
		</g>
		<g id="patch_6">
			<path fill="none" stroke="#000000" stroke-width="0.8" stroke-linecap="square" d="M350.712,222.884V119.801"/>
		</g>
		<g id="patch_7">
			<path fill="none" stroke="#000000" stroke-width="0.8" stroke-linecap="square" d="M489.05,222.884V119.801"/>
		</g>
		<g id="patch_8">
			<path fill="none" stroke="#000000" stroke-width="0.8" stroke-linecap="square" d="M350.712,222.884H489.05"/>
		</g>
		<g id="patch_9">
			<path fill="none" stroke="#000000" stroke-width="0.8" stroke-linecap="square" d="M350.712,119.801H489.05"/>
		</g>
	</g>
</g>
<g id="figure_1_1_">
	<g id="axes_1_1_">
		<g id="patch_3_1_">
			<g>
				<defs>
					<rect id="SVGID_13_" x="-1.725" y="109.665" width="162.447" height="121.048"/>
				</defs>
				<clipPath id="SVGID_14_">
					<use xlink:href="#SVGID_13_"  overflow="visible"/>
				</clipPath>
				<path clip-path="url(#SVGID_14_)" fill="#3274A1" stroke="#000000" d="M6.398,175.052h21.66v-52.98H6.398V175.052z"/>
			</g>
		</g>
		<g id="patch_4_1_">
			<g>
				<defs>
					<rect id="SVGID_15_" x="-1.725" y="109.665" width="162.447" height="121.048"/>
				</defs>
				<clipPath id="SVGID_16_">
					<use xlink:href="#SVGID_15_"  overflow="visible"/>
				</clipPath>
				<path clip-path="url(#SVGID_16_)" fill="#3274A1" stroke="#000000" d="M87.621,175.052h21.659v41.068H87.621V175.052z"/>
			</g>
		</g>
		<g id="patch_5_1_">
			<g>
				<defs>
					<rect id="SVGID_17_" x="-1.725" y="109.665" width="162.447" height="121.048"/>
				</defs>
				<clipPath id="SVGID_18_">
					<use xlink:href="#SVGID_17_"  overflow="visible"/>
				</clipPath>
				<path clip-path="url(#SVGID_18_)" fill="#DF5420" stroke="#000000" d="M28.058,175.052h21.659v-12.854H28.058V175.052z"/>
			</g>
		</g>
		<g id="patch_6_1_">
			<g>
				<defs>
					<rect id="SVGID_19_" x="-1.725" y="109.665" width="162.447" height="121.048"/>
				</defs>
				<clipPath id="SVGID_20_">
					<use xlink:href="#SVGID_19_"  overflow="visible"/>
				</clipPath>
				<path clip-path="url(#SVGID_20_)" fill="#DF5420" stroke="#000000" d="M109.28,175.052h21.659v21.945H109.28V175.052z"/>
			</g>
		</g>
		<g id="patch_7_1_">
			<g>
				<defs>
					<rect id="SVGID_21_" x="-1.725" y="109.665" width="162.447" height="121.048"/>
				</defs>
				<clipPath id="SVGID_22_">
					<use xlink:href="#SVGID_21_"  overflow="visible"/>
				</clipPath>
				<path clip-path="url(#SVGID_22_)" fill="#DFC120" stroke="#000000" d="M49.717,175.052h21.66v-7.837h-21.66V175.052z"/>
			</g>
		</g>
		<g id="patch_8_1_">
			<g>
				<defs>
					<rect id="SVGID_23_" x="-1.725" y="109.665" width="162.447" height="121.048"/>
				</defs>
				<clipPath id="SVGID_24_">
					<use xlink:href="#SVGID_23_"  overflow="visible"/>
				</clipPath>
				<path clip-path="url(#SVGID_24_)" fill="#DFC120" stroke="#000000" d="M130.939,175.052h21.66v17.242h-21.66V175.052z"/>
			</g>
		</g>
		<g id="matplotlib.axis_1_1_">
			<g id="xtick_1_1_">
				<g id="line2d_1_1_">
					<g>
						<g>
							<path id="mb404cca711" stroke="#000000" stroke-width="0.8" stroke-linejoin="round" d="M38.887,230.713v1.591"/>
						</g>
					</g>
				</g>
			</g>
			<g id="xtick_2_1_">
				<g id="line2d_2_1_">
					<g>
						<g>
							<path id="mb404cca711_1_" stroke="#000000" stroke-width="0.8" stroke-linejoin="round" d="M120.111,230.713v1.591"/>
						</g>
					</g>
				</g>
			</g>
		</g>
		<g id="matplotlib.axis_2_1_">
			<g id="ytick_1_1_">
				<g id="line2d_3_1_">
					<g>
						<g>
							<path id="mf9525bccf2" stroke="#000000" stroke-width="0.8" stroke-linejoin="round" d="M-1.725,218.314h-1.591"/>
						</g>
					</g>
				</g>
			</g>
			<g id="ytick_2_1_">
				<g id="line2d_4_1_">
					<g>
						<g>
							<path id="mf9525bccf2_1_" stroke="#000000" stroke-width="0.8" stroke-linejoin="round" d="M-1.725,203.893h-1.591"/>
						</g>
					</g>
				</g>
			</g>
			<g id="ytick_3_1_">
				<g id="line2d_5_1_">
					<g>
						<g>
							<path id="mf9525bccf2_2_" stroke="#000000" stroke-width="0.8" stroke-linejoin="round" d="M-1.725,189.473h-1.591"/>
						</g>
					</g>
				</g>
			</g>
			<g id="ytick_4_1_">
				<g id="line2d_6_1_">
					<g>
						<g>
							<path id="mf9525bccf2_3_" stroke="#000000" stroke-width="0.8" stroke-linejoin="round" d="M-1.725,175.052h-1.591"/>
						</g>
					</g>
				</g>
			</g>
			<g id="ytick_5_1_">
				<g id="line2d_7_1_">
					<g>
						<g>
							<path id="mf9525bccf2_4_" stroke="#000000" stroke-width="0.8" stroke-linejoin="round" d="M-1.725,160.632h-1.591"/>
						</g>
					</g>
				</g>
			</g>
			<g id="ytick_6_1_">
				<g id="line2d_8_1_">
					<g>
						<g>
							<path id="mf9525bccf2_5_" stroke="#000000" stroke-width="0.8" stroke-linejoin="round" d="M-1.725,146.211h-1.591"/>
						</g>
					</g>
				</g>
			</g>
			<g id="ytick_7">
				<g id="line2d_9_1_">
					<g>
						<g>
							<path id="mf9525bccf2_6_" stroke="#000000" stroke-width="0.8" stroke-linejoin="round" d="M-1.725,131.79h-1.591"/>
						</g>
					</g>
				</g>
			</g>
			<g id="ytick_8">
				<g id="line2d_10_1_">
					<g>
						<g>
							<path id="mf9525bccf2_7_" stroke="#000000" stroke-width="0.8" stroke-linejoin="round" d="M-1.725,117.37h-1.591"/>
						</g>
					</g>
				</g>
			</g>
		</g>
		<g id="line2d_11_1_">
			<g>
				<defs>
					<rect id="SVGID_25_" x="-1.725" y="109.665" width="162.447" height="121.048"/>
				</defs>
				<clipPath id="SVGID_26_">
					<use xlink:href="#SVGID_25_"  overflow="visible"/>
				</clipPath>
				<path clip-path="url(#SVGID_26_)" fill="none" stroke="#424242" stroke-linecap="square" stroke-linejoin="round" d="
					M17.228,129.909v-14.742"/>
			</g>
		</g>
		<g id="line2d_12_1_">
			<g>
				<defs>
					<rect id="SVGID_27_" x="-1.725" y="109.665" width="162.447" height="121.048"/>
				</defs>
				<clipPath id="SVGID_28_">
					<use xlink:href="#SVGID_27_"  overflow="visible"/>
				</clipPath>
				<path clip-path="url(#SVGID_28_)" fill="none" stroke="#424242" stroke-linecap="square" stroke-linejoin="round" d="
					M98.45,225.211v-19.122"/>
			</g>
		</g>
		<g id="line2d_13">
			<g>
				<defs>
					<rect id="SVGID_29_" x="-1.725" y="109.665" width="162.447" height="121.048"/>
				</defs>
				<clipPath id="SVGID_30_">
					<use xlink:href="#SVGID_29_"  overflow="visible"/>
				</clipPath>
				<path clip-path="url(#SVGID_30_)" fill="none" stroke="#424242" stroke-linecap="square" stroke-linejoin="round" d="
					M38.887,173.171v-21.012"/>
			</g>
		</g>
		<g id="line2d_14">
			<g>
				<defs>
					<rect id="SVGID_31_" x="-1.725" y="109.665" width="162.447" height="121.048"/>
				</defs>
				<clipPath id="SVGID_32_">
					<use xlink:href="#SVGID_31_"  overflow="visible"/>
				</clipPath>
				<path clip-path="url(#SVGID_32_)" fill="none" stroke="#424242" stroke-linecap="square" stroke-linejoin="round" d="
					M120.111,204.528v-14.74"/>
			</g>
		</g>
		<g id="line2d_15">
			<g>
				<defs>
					<rect id="SVGID_33_" x="-1.725" y="109.665" width="162.447" height="121.048"/>
				</defs>
				<clipPath id="SVGID_34_">
					<use xlink:href="#SVGID_33_"  overflow="visible"/>
				</clipPath>
				<path clip-path="url(#SVGID_34_)" fill="none" stroke="#424242" stroke-linecap="square" stroke-linejoin="round" d="
					M60.546,178.195v-21.952"/>
			</g>
		</g>
		<g id="line2d_16">
			<g>
				<defs>
					<rect id="SVGID_35_" x="-1.725" y="109.665" width="162.447" height="121.048"/>
				</defs>
				<clipPath id="SVGID_36_">
					<use xlink:href="#SVGID_35_"  overflow="visible"/>
				</clipPath>
				<path clip-path="url(#SVGID_36_)" fill="none" stroke="#424242" stroke-linecap="square" stroke-linejoin="round" d="
					M141.77,202.013v-18.191"/>
			</g>
		</g>
		<g id="patch_9_1_">
			<path fill="none" stroke="#000000" stroke-width="0.8" stroke-linecap="square" d="M-1.725,230.713V109.665"/>
		</g>
		<g id="patch_10">
			<path fill="none" stroke="#000000" stroke-linecap="square" d="M160.722,230.713V109.665"/>
		</g>
		<g id="patch_11">
			<path fill="none" stroke="#000000" stroke-width="0.8" stroke-linecap="square" d="M-1.725,230.713h162.447"/>
		</g>
		<g id="patch_12">
			<path fill="none" stroke="#000000" stroke-width="0.8" stroke-linecap="square" d="M-1.725,109.665h162.447"/>
		</g>
		<g id="legend_1">
			<g id="patch_13">
				<path opacity="0.8" fill="#FFFFFF" stroke="#CCCCCC" enable-background="new    " d="M109.014,148.826h48.805
					c-0.455,0-0.058-0.398-0.058-1.194v-34.471c0-0.796-0.397-1.195-1.194-1.195h-48.805c-0.797,0-1.196,0.399-1.196,1.195v34.471
					C106.566,148.428,106.965,148.826,109.014,148.826z"/>
			</g>
			<g id="patch_14">
				<path fill="#3274A1" stroke="#000000" d="M112.092,126.89h11.383v-3.985h-11.383V126.89z"/>
			</g>
			<g id="patch_15">
				<path fill="#DF5420" stroke="#000000" d="M112.092,135.244h11.383v-3.983h-11.383V135.244z"/>
			</g>
			<g id="patch_16">
				<path fill="#DFC120" stroke="#000000" d="M112.092,143.6h11.383v-3.985h-11.383V143.6z"/>
			</g>
		</g>
	</g>
</g>
<g id="surface6">
	<rect x="188.881" y="114.008" fill="#FFFFFF" width="132.603" height="123.247"/>
	<rect x="188.881" y="114.008" fill="none" width="132.603" height="123.247"/>
	<path fill="none" d="M200.394,351.009h132.602V227.763H200.394V351.009z"/>
	<text transform="matrix(1 0 0 1 200.394 232.0227)" font-family="'MyriadPro-Regular'" font-size="6">-5</text>
	<path fill="none" stroke="#3366FF" stroke-linejoin="round" stroke-miterlimit="10" stroke-dasharray="8.5358,8.5358" d="
		M207.639,168.438l1.346,0.628l1.346,0.61l1.344,0.587l1.345,0.565l1.346,0.544l1.346,0.522l1.346,0.5l1.346,0.48l1.346,0.458
		l1.346,0.436l1.344,0.414l1.346,0.393l1.346,0.372l1.346,0.349l1.346,0.33l1.346,0.305l1.346,0.285l1.346,0.266l1.345,0.24
		l1.346,0.221l1.346,0.198l1.346,0.179l1.346,0.155l1.346,0.134l1.346,0.112l1.346,0.091l1.345,0.07l1.345,0.048l1.347,0.024
		l1.345,0.005l1.347-0.016l1.346-0.038l1.346-0.06l1.347-0.083l1.345-0.104l1.345-0.123l1.346-0.146l1.347-0.168l1.346-0.19
		l1.345-0.21l1.346-0.232l1.346-0.254l1.347-0.277l1.344-0.297l1.346-0.318l1.346-0.342l1.346-0.359l1.346-0.385l1.346-0.404
		l1.347-0.428l1.345-0.448l1.346-0.47l1.345-0.491l1.346-0.514l1.347-0.535l1.346-0.556l1.346-0.577l1.346-0.599l1.345-0.622
		l1.345-0.643l1.346-0.663l1.347-0.687l1.345-0.707l1.346-0.728l1.346-0.75l1.346-0.772l1.347-0.794l1.344-0.813l1.346-0.837
		l1.346-0.858l1.346-0.88l1.346-0.901l1.347-0.923l1.346-0.944l1.346-0.966l1.344-0.987l1.346-1.009l1.346-1.031l1.347-1.052"/>
	
		<path fill="none" stroke="#000000" stroke-width="0.7087" stroke-linecap="round" stroke-linejoin="round" stroke-miterlimit="10" d="
		M255.678,191.493c0,1.06-1.591,1.06-1.591,0C254.087,190.432,255.678,190.432,255.678,191.493"/>
	
		<path fill="none" stroke="#000000" stroke-width="0.7087" stroke-linecap="round" stroke-linejoin="round" stroke-miterlimit="10" d="
		M255.678,205.56c0,1.06-1.591,1.06-1.591,0S255.678,204.5,255.678,205.56"/>
	
		<path fill="none" stroke="#000000" stroke-width="0.7087" stroke-linecap="round" stroke-linejoin="round" stroke-miterlimit="10" d="
		M267.49,184.46c0,1.06-1.591,1.06-1.591,0S267.49,183.401,267.49,184.46"/>
	
		<path fill="none" stroke="#000000" stroke-width="0.7087" stroke-linecap="round" stroke-linejoin="round" stroke-miterlimit="10" d="
		M243.867,149.294c0,1.06-1.591,1.06-1.591,0S243.867,148.234,243.867,149.294"/>
	
		<path fill="none" stroke="#000000" stroke-width="0.7087" stroke-linecap="round" stroke-linejoin="round" stroke-miterlimit="10" d="
		M291.112,170.393c0,1.061-1.59,1.061-1.59,0C289.522,169.334,291.112,169.334,291.112,170.393"/>
	
		<path fill="none" stroke="#000000" stroke-width="0.7087" stroke-linecap="round" stroke-linejoin="round" stroke-miterlimit="10" d="
		M208.433,170.393c0,1.061-1.591,1.061-1.591,0C206.842,169.334,208.433,169.334,208.433,170.393"/>
	
		<path fill="none" stroke="#000000" stroke-width="0.7087" stroke-linecap="round" stroke-linejoin="round" stroke-miterlimit="10" d="
		M314.735,170.393c0,1.061-1.59,1.061-1.59,0C313.145,169.334,314.735,169.334,314.735,170.393"/>
	
		<path fill="none" stroke="#000000" stroke-width="0.7087" stroke-linecap="round" stroke-linejoin="round" stroke-miterlimit="10" d="
		M220.245,156.328c0,1.059-1.591,1.059-1.591,0C218.654,155.266,220.245,155.266,220.245,156.328"/>
	
		<path fill="none" stroke="#000000" stroke-width="0.7087" stroke-linecap="round" stroke-linejoin="round" stroke-miterlimit="10" d="
		M291.112,191.493c0,1.06-1.59,1.06-1.59,0C289.522,190.432,291.112,190.432,291.112,191.493"/>
	
		<path fill="none" stroke="#000000" stroke-width="0.7087" stroke-linecap="round" stroke-linejoin="round" stroke-miterlimit="10" d="
		M291.112,156.328c0,1.059-1.59,1.059-1.59,0C289.522,155.266,291.112,155.266,291.112,156.328"/>
	
		<path fill="none" stroke="#000000" stroke-width="0.7087" stroke-linecap="round" stroke-linejoin="round" stroke-miterlimit="10" d="
		M243.867,184.46c0,1.06-1.591,1.06-1.591,0S243.867,183.401,243.867,184.46"/>
	
		<path fill="none" stroke="#000000" stroke-width="0.7087" stroke-linecap="round" stroke-linejoin="round" stroke-miterlimit="10" d="
		M291.112,191.493c0,1.06-1.59,1.06-1.59,0C289.522,190.432,291.112,190.432,291.112,191.493"/>
	
		<path fill="none" stroke="#000000" stroke-width="0.7087" stroke-linecap="round" stroke-linejoin="round" stroke-miterlimit="10" d="
		M232.056,177.426c0,1.062-1.59,1.062-1.59,0C230.466,176.366,232.056,176.366,232.056,177.426"/>
	
		<path fill="none" stroke="#000000" stroke-width="0.7087" stroke-linecap="round" stroke-linejoin="round" stroke-miterlimit="10" d="
		M314.735,156.328c0,1.059-1.59,1.059-1.59,0C313.145,155.266,314.735,155.266,314.735,156.328"/>
	
		<path fill="none" stroke="#000000" stroke-width="0.7087" stroke-linecap="round" stroke-linejoin="round" stroke-miterlimit="10" d="
		M291.112,149.294c0,1.06-1.59,1.06-1.59,0S291.112,148.234,291.112,149.294"/>
	
		<path fill="none" stroke="#000000" stroke-width="0.7087" stroke-linecap="round" stroke-linejoin="round" stroke-miterlimit="10" d="
		M279.3,184.46c0,1.06-1.589,1.06-1.589,0S279.3,183.401,279.3,184.46"/>
	
		<path fill="none" stroke="#000000" stroke-width="0.7087" stroke-linecap="round" stroke-linejoin="round" stroke-miterlimit="10" d="
		M208.433,184.46c0,1.06-1.591,1.06-1.591,0S208.433,183.401,208.433,184.46"/>
	
		<path fill="none" stroke="#000000" stroke-width="0.7087" stroke-linecap="round" stroke-linejoin="round" stroke-miterlimit="10" d="
		M243.867,149.294c0,1.06-1.591,1.06-1.591,0S243.867,148.234,243.867,149.294"/>
	
		<path fill="none" stroke="#000000" stroke-width="0.7087" stroke-linecap="round" stroke-linejoin="round" stroke-miterlimit="10" d="
		M232.056,184.46c0,1.06-1.59,1.06-1.59,0S232.056,183.401,232.056,184.46"/>
	
		<path fill="none" stroke="#000000" stroke-width="0.7087" stroke-linecap="round" stroke-linejoin="round" stroke-miterlimit="10" d="
		M314.735,163.36c0,1.06-1.59,1.06-1.59,0C313.145,162.301,314.735,162.301,314.735,163.36"/>
	
		<path fill="none" stroke="#000000" stroke-width="0.7087" stroke-linecap="round" stroke-linejoin="round" stroke-miterlimit="10" d="
		M255.678,184.46c0,1.06-1.591,1.06-1.591,0S255.678,183.401,255.678,184.46"/>
	
		<path fill="none" stroke="#000000" stroke-width="0.7087" stroke-linecap="round" stroke-linejoin="round" stroke-miterlimit="10" d="
		M232.056,156.328c0,1.059-1.59,1.059-1.59,0C230.466,155.266,232.056,155.266,232.056,156.328"/>
	
		<path fill="none" stroke="#000000" stroke-width="0.7087" stroke-linecap="round" stroke-linejoin="round" stroke-miterlimit="10" d="
		M220.245,219.627c0,1.06-1.591,1.06-1.591,0C218.654,218.567,220.245,218.567,220.245,219.627"/>
	
		<path fill="none" stroke="#000000" stroke-width="0.7087" stroke-linecap="round" stroke-linejoin="round" stroke-miterlimit="10" d="
		M314.735,121.159c0,1.061-1.59,1.061-1.59,0C313.145,120.099,314.735,120.099,314.735,121.159"/>
	
		<path fill="none" stroke="#000000" stroke-width="0.7087" stroke-linecap="round" stroke-linejoin="round" stroke-miterlimit="10" d="
		M279.3,156.328c0,1.059-1.589,1.059-1.589,0C277.711,155.266,279.3,155.266,279.3,156.328"/>
	
		<path fill="none" stroke="#000000" stroke-width="0.7087" stroke-linecap="round" stroke-linejoin="round" stroke-miterlimit="10" d="
		M302.924,163.36c0,1.06-1.592,1.06-1.592,0C301.333,162.301,302.924,162.301,302.924,163.36"/>
	
		<path fill="none" stroke="#000000" stroke-width="0.7087" stroke-linecap="round" stroke-linejoin="round" stroke-miterlimit="10" d="
		M314.735,121.159c0,1.061-1.59,1.061-1.59,0C313.145,120.099,314.735,120.099,314.735,121.159"/>
	
		<path fill="none" stroke="#000000" stroke-width="0.7087" stroke-linecap="round" stroke-linejoin="round" stroke-miterlimit="10" d="
		M243.867,149.294c0,1.06-1.591,1.06-1.591,0S243.867,148.234,243.867,149.294"/>
	
		<path fill="none" stroke="#000000" stroke-width="0.7087" stroke-linecap="round" stroke-linejoin="round" stroke-miterlimit="10" d="
		M267.49,184.46c0,1.06-1.591,1.06-1.591,0S267.49,183.401,267.49,184.46"/>
	
		<path fill="none" stroke="#000000" stroke-width="0.7087" stroke-linecap="round" stroke-linejoin="round" stroke-miterlimit="10" d="
		M314.735,177.426c0,1.062-1.59,1.062-1.59,0C313.145,176.366,314.735,176.366,314.735,177.426"/>
	
		<path fill="none" stroke="#000000" stroke-width="0.7087" stroke-linecap="round" stroke-linejoin="round" stroke-miterlimit="10" d="
		M220.245,163.36c0,1.06-1.591,1.06-1.591,0C218.654,162.301,220.245,162.301,220.245,163.36"/>
	
		<path fill="none" stroke="#000000" stroke-width="0.7087" stroke-linecap="round" stroke-linejoin="round" stroke-miterlimit="10" d="
		M232.056,170.393c0,1.061-1.59,1.061-1.59,0C230.466,169.334,232.056,169.334,232.056,170.393"/>
	
		<path fill="none" stroke="#000000" stroke-width="0.7087" stroke-linecap="round" stroke-linejoin="round" stroke-miterlimit="10" d="
		M208.433,177.426c0,1.062-1.591,1.062-1.591,0C206.842,176.366,208.433,176.366,208.433,177.426"/>
	
		<path fill="none" stroke="#000000" stroke-width="0.7087" stroke-linecap="round" stroke-linejoin="round" stroke-miterlimit="10" d="
		M302.924,128.193c0,1.06-1.592,1.06-1.592,0C301.333,127.134,302.924,127.134,302.924,128.193"/>
	
		<path fill="none" stroke="#000000" stroke-width="0.7087" stroke-linecap="round" stroke-linejoin="round" stroke-miterlimit="10" d="
		M220.245,170.393c0,1.061-1.591,1.061-1.591,0C218.654,169.334,220.245,169.334,220.245,170.393"/>
	
		<path fill="none" stroke="#000000" stroke-width="0.7087" stroke-linecap="round" stroke-linejoin="round" stroke-miterlimit="10" d="
		M255.678,177.426c0,1.062-1.591,1.062-1.591,0C254.087,176.366,255.678,176.366,255.678,177.426"/>
	
		<path fill="none" stroke="#000000" stroke-width="0.7087" stroke-linecap="round" stroke-linejoin="round" stroke-miterlimit="10" d="
		M302.924,184.46c0,1.06-1.592,1.06-1.592,0S302.924,183.401,302.924,184.46"/>
	
		<path fill="none" stroke="#000000" stroke-width="0.7087" stroke-linecap="round" stroke-linejoin="round" stroke-miterlimit="10" d="
		M267.49,191.493c0,1.06-1.591,1.06-1.591,0C265.899,190.432,267.49,190.432,267.49,191.493"/>
	
		<path fill="none" stroke="#000000" stroke-width="0.7087" stroke-linecap="round" stroke-linejoin="round" stroke-miterlimit="10" d="
		M220.245,163.36c0,1.06-1.591,1.06-1.591,0C218.654,162.301,220.245,162.301,220.245,163.36"/>
	
		<path fill="none" stroke="#000000" stroke-width="0.7087" stroke-linecap="round" stroke-linejoin="round" stroke-miterlimit="10" d="
		M243.867,184.46c0,1.06-1.591,1.06-1.591,0S243.867,183.401,243.867,184.46"/>
	
		<path fill="none" stroke="#000000" stroke-width="0.7087" stroke-linecap="round" stroke-linejoin="round" stroke-miterlimit="10" d="
		M291.112,128.193c0,1.06-1.59,1.06-1.59,0C289.522,127.134,291.112,127.134,291.112,128.193"/>
	
		<path fill="none" stroke="#000000" stroke-width="0.7087" stroke-linecap="round" stroke-linejoin="round" stroke-miterlimit="10" d="
		M220.245,156.328c0,1.059-1.591,1.059-1.591,0C218.654,155.266,220.245,155.266,220.245,156.328"/>
	
		<path fill="none" stroke="#000000" stroke-width="0.7087" stroke-linecap="round" stroke-linejoin="round" stroke-miterlimit="10" d="
		M267.49,191.493c0,1.06-1.591,1.06-1.591,0C265.899,190.432,267.49,190.432,267.49,191.493"/>
	<path fill="none" stroke="#000000" stroke-linejoin="round" stroke-miterlimit="10" d="M202.323,224.55V116.237"/>
	<path fill="none" stroke="#333333" stroke-width="1.067" stroke-linejoin="round" stroke-miterlimit="10" d="M201.208,191.493
		h1.115"/>
	<path fill="none" stroke="#333333" stroke-width="1.067" stroke-linejoin="round" stroke-miterlimit="10" d="M201.208,156.328
		h1.115"/>
	<path fill="none" stroke="#333333" stroke-width="1.067" stroke-linejoin="round" stroke-miterlimit="10" d="M201.208,121.159
		h1.115"/>
	<path fill="none" stroke="#000000" stroke-linejoin="round" stroke-miterlimit="10" d="M202.323,224.55h116.931"/>
	<path fill="none" stroke="#333333" stroke-width="1.067" stroke-linejoin="round" stroke-miterlimit="10" d="M203.177,225.664
		v-1.114"/>
	<path fill="none" stroke="#333333" stroke-width="1.067" stroke-linejoin="round" stroke-miterlimit="10" d="M232.705,225.664
		v-1.114"/>
	<path fill="none" stroke="#333333" stroke-width="1.067" stroke-linejoin="round" stroke-miterlimit="10" d="M262.233,225.664
		v-1.114"/>
	<path fill="none" stroke="#333333" stroke-width="1.067" stroke-linejoin="round" stroke-miterlimit="10" d="M291.759,225.664
		v-1.114"/>
</g>
<text transform="matrix(1 0 0 1 176.2915 122.9602)"><tspan x="0" y="0" font-family="'MyriadPro-Regular'" font-size="6" letter-spacing="15">	</tspan><tspan x="16.35" y="0" font-family="'MyriadPro-Regular'" font-size="6">10</tspan></text>
<text transform="matrix(1 0 0 1 194.7603 157.9128)" font-family="'MyriadPro-Regular'" font-size="6">5</text>
<text transform="matrix(1 0 0 1 194.7603 194.0393)" font-family="'MyriadPro-Regular'" font-size="6">0</text>
<text transform="matrix(1 0 0 1 228.6343 232.0579)" font-family="'MyriadPro-Regular'" font-size="6">-2.5</text>
<text transform="matrix(1 0 0 1 261.353 231.2864)" font-family="'MyriadPro-Regular'" font-size="6">0</text>
<text transform="matrix(1 0 0 1 288.6421 231.7561)" font-family="'MyriadPro-Regular'" font-size="6">2.5</text>
<text transform="matrix(0.0144 -0.9999 0.9999 0.0144 -13.0801 182.1458)" font-family="'ArialMT'" font-size="8">Rating</text>
<text transform="matrix(1 0 0 1 61.9004 247.6331)" font-family="'ArialMT'" font-size="8">Outcome</text>
<text transform="matrix(1 0 0 1 234.8999 247.6331)" font-family="'ArialMT'" font-size="8">Reward Sensitivity</text>
<text transform="matrix(-6.503243e-004 -1 1 -6.503243e-004 180.3442 195.9075)"><tspan x="0" y="0" font-family="'ArialMT'" font-size="8">Difference in </tspan><tspan x="-22.01" y="9.6" font-family="'ArialMT'" font-size="8">Friend vs Stranger Rating</tspan></text>
<text transform="matrix(-4.371139e-008 -1 1 -4.371139e-008 340.022 189.4729)" font-family="'ArialMT'" font-size="8">Closeness</text>
<text transform="matrix(1 0 0 1 407.2339 243.9661)" font-family="'ArialMT'" font-size="8">Partner</text>
<text transform="matrix(1 0 0 1 33.2334 239.3)" font-family="'ArialMT'" font-size="6">Win</text>
<text transform="matrix(1 0 0 1 114.8999 239.3)" font-family="'ArialMT'" font-size="6">Lose</text>
<text transform="matrix(1 0 0 1 365.8999 232.304)" font-family="'ArialMT'" font-size="6">Friend</text>
<text transform="matrix(1 0 0 1 408.8999 232.304)" font-family="'ArialMT'" font-size="6">Stranger</text>
<text transform="matrix(1 0 0 1 452.8999 232.304)" font-family="'ArialMT'" font-size="6">Computer</text>
<text transform="matrix(1 0 0 1 127.2334 117.8601)" font-family="'MyriadPro-Regular'" font-size="6">Partner</text>
<text transform="matrix(1 0 0 1 128.2334 127.1931)" font-family="'ArialMT'" font-size="6">Friend</text>
<text transform="matrix(1 0 0 1 127.8999 135.8601)" font-family="'ArialMT'" font-size="6">Stranger</text>
<text transform="matrix(1 0 0 1 127.2334 144.5266)" font-family="'ArialMT'" font-size="6">Computer</text>
<text transform="matrix(1 0 0 1 -8.7685 119.8601)" font-family="'ArialMT'" font-size="6">4</text>
<text transform="matrix(1 0 0 1 -11.7676 220.4221)" font-family="'ArialMT'" font-size="6">-3</text>
<text transform="matrix(1 0 0 1 343.231 125.8977)" font-family="'ArialMT'" font-size="6">5</text>
<text transform="matrix(1 0 0 1 343.2319 224.6331)" font-family="'ArialMT'" font-size="6">0</text>
<text transform="matrix(1 0 0 1 -11.7676 206.3547)" font-family="'ArialMT'" font-size="6">-2</text>
<text transform="matrix(1 0 0 1 -11.4341 192.2883)" font-family="'ArialMT'" font-size="6">-1</text>
<text transform="matrix(1 0 0 1 -9.7685 177.427)" font-family="'ArialMT'" font-size="6">0</text>
<text transform="matrix(1 0 0 1 -9.7685 162.5652)" font-family="'ArialMT'" font-size="6">1</text>
<text transform="matrix(1 0 0 1 -9.7685 147.4993)" font-family="'ArialMT'" font-size="6">2</text>
<text transform="matrix(1 0 0 1 -9.4351 134.2532)" font-family="'ArialMT'" font-size="6">3</text>
<text transform="matrix(1 0 0 1 343.2319 144.5266)" font-family="'ArialMT'" font-size="6">4</text>
<text transform="matrix(1 0 0 1 343.2319 164.864)" font-family="'ArialMT'" font-size="6">3</text>
<text transform="matrix(1 0 0 1 343.2319 184.4221)" font-family="'ArialMT'" font-size="6">2</text>
<text transform="matrix(1 0 0 1 343.2319 203.9651)" font-family="'ArialMT'" font-size="6">1</text>
<text transform="matrix(1 0 0 1 -27.4355 102.3352)" font-family="'ArialMT'" font-size="12">A</text>
<text transform="matrix(1 0 0 1 167.542 102.3352)" font-family="'ArialMT'" font-size="12">B</text>
<text transform="matrix(1 0 0 1 324.5444 102.3352)" font-family="'ArialMT'" font-size="12">C</text>
</svg>
