<?xml version="1.0" encoding="utf-8"?>
<!-- Generator: Adobe Illustrator 16.0.3, SVG Export Plug-In . SVG Version: 6.00 Build 0)  -->
<!DOCTYPE svg PUBLIC "-//W3C//DTD SVG 1.1//EN" "http://www.w3.org/Graphics/SVG/1.1/DTD/svg11.dtd">
<svg version="1.1" id="Layer_1" xmlns="http://www.w3.org/2000/svg" xmlns:xlink="http://www.w3.org/1999/xlink" x="0px" y="0px"
	 width="252px" height="345px" viewBox="291 104.5 252 345" enable-background="new 291 104.5 252 345" xml:space="preserve">
<path opacity="0.8" fill="#FFFFFF" stroke="#CCCCCC" enable-background="new    " d="M538.118,274.729
	c0.629,0,0.942-0.315,0.942-0.944v-27.209c0.002-0.628-0.313-0.942-1.93-0.942h-38.524c0.358,0,0.044,0.314,0.044,0.942v27.209
	c0,0.628,0.314,0.944,0.943,0.944"/>
<g>
	<g>
		
			<line fill="none" stroke="#262626" stroke-linejoin="round" stroke-miterlimit="10" x1="436.462" y1="291.881" x2="540.262" y2="291.881"/>
	</g>
	<g>
		<path fill="#0072BD" d="M456.645,291.881v-33.069h-11.533v33.069H456.645z M497.013,291.881v30.132h11.533v-30.132H497.013z"/>
	</g>
	<g>
		<path fill="none" stroke="#000000" stroke-miterlimit="10" d="M445.111,291.881v-33.069h11.533v33.069H445.111z"/>
		<path fill="none" stroke="#000000" stroke-miterlimit="10" d="M497.013,291.881v30.132h11.533v-30.132H497.013z"/>
	</g>
	<g>
		<path fill="#D95319" d="M456.645,291.881v24.582h11.535v-24.582H456.645z M508.546,291.881v41.457h11.533v-41.457H508.546z"/>
	</g>
	<g>
		<path fill="none" stroke="#000000" stroke-miterlimit="10" d="M456.645,291.881v24.582h11.535v-24.582H456.645z"/>
		<path fill="none" stroke="#000000" stroke-miterlimit="10" d="M508.546,291.881v41.457h11.533v-41.457H508.546z"/>
	</g>
	<g>
		<path fill="#EDB120" d="M468.18,291.881v31.039h11.532v-31.039H468.18z M520.079,291.881v31.769h11.532v-31.769H520.079z"/>
	</g>
	<g>
		<path fill="none" stroke="#000000" stroke-miterlimit="10" d="M468.18,291.881v31.039h11.532v-31.039H468.18z"/>
		<path fill="none" stroke="#000000" stroke-miterlimit="10" d="M520.079,291.881v31.769h11.532v-31.769H520.079z"/>
		
			<line fill="none" stroke="#000000" stroke-linejoin="round" stroke-miterlimit="10" x1="450.879" y1="258.812" x2="450.879" y2="269.202"/>
		
			<line fill="none" stroke="#000000" stroke-linejoin="round" stroke-miterlimit="10" x1="502.78" y1="322.013" x2="502.78" y2="333.729"/>
		
			<line fill="none" stroke="#000000" stroke-linejoin="round" stroke-miterlimit="10" x1="450.879" y1="258.812" x2="450.879" y2="248.421"/>
		
			<line fill="none" stroke="#000000" stroke-linejoin="round" stroke-miterlimit="10" x1="502.78" y1="322.013" x2="502.78" y2="310.294"/>
	</g>
	<g transform="translate(271.5278,149.2429)">
		<path d="M177.945,119.959"/>
	</g>
	<g transform="translate(493.0278,324.6212)">
		
			<line fill="none" stroke="#000000" stroke-linejoin="round" stroke-miterlimit="10" x1="-30.615" y1="-8.158" x2="-30.615" y2="1.341"/>
		
			<line fill="none" stroke="#000000" stroke-linejoin="round" stroke-miterlimit="10" x1="21.283" y1="8.717" x2="21.283" y2="18.163"/>
		
			<line fill="none" stroke="#000000" stroke-linejoin="round" stroke-miterlimit="10" x1="-30.615" y1="-8.158" x2="-30.615" y2="-17.66"/>
		
			<line fill="none" stroke="#000000" stroke-linejoin="round" stroke-miterlimit="10" x1="21.283" y1="8.717" x2="21.283" y2="-0.728"/>
	</g>
	<g transform="translate(542.25,463.2757)">
		<path d="M-29.344-120.492"/>
	</g>
	<g transform="translate(542.25,463.2757)">
		<path fill="none" stroke="#000000" stroke-miterlimit="10" d="M-29.344-120.492"/>
	</g>
	<g transform="translate(542.25,382.6527)">
		
			<line fill="none" stroke="#000000" stroke-linejoin="round" stroke-miterlimit="10" x1="-68.304" y1="-59.733" x2="-68.304" y2="-45.07"/>
		
			<line fill="none" stroke="#000000" stroke-linejoin="round" stroke-miterlimit="10" x1="-16.405" y1="-59.003" x2="-16.405" y2="-47.527"/>
		
			<line fill="none" stroke="#000000" stroke-linejoin="round" stroke-miterlimit="10" x1="-68.304" y1="-59.733" x2="-68.304" y2="-74.399"/>
		
			<line fill="none" stroke="#000000" stroke-linejoin="round" stroke-miterlimit="10" x1="-16.405" y1="-59.003" x2="-16.405" y2="-70.481"/>
	</g>
	<g transform="translate(591.4722,430.5962)">
		<path fill="none" stroke="#000000" stroke-miterlimit="10" d="M-64.222-95.47"/>
		<path fill="none" stroke="#000000" stroke-miterlimit="10" d="M-67.032-95.47"/>
	</g>
	<g transform="translate(591.4722,332.6279)">
		<path fill="none" stroke="#000000" stroke-miterlimit="10" d="M-64.222-20.456"/>
		<path fill="none" stroke="#000000" stroke-miterlimit="10" d="M-67.032-20.456"/>
	</g>
	<g>
		
			<line fill="none" stroke="#262626" stroke-linecap="square" stroke-linejoin="round" stroke-miterlimit="10" x1="436.462" y1="347.875" x2="540.262" y2="347.875"/>
		
			<line fill="none" stroke="#262626" stroke-linecap="square" stroke-linejoin="round" stroke-miterlimit="10" x1="436.462" y1="244.074" x2="540.262" y2="244.074"/>
	</g>
	<g transform="translate(431.5002,526.9305)">
		<text transform="matrix(1 0 0 1 40.7322 -165.7811)" fill="#262626" font-family="'ArialMT'" font-size="8">Condition</text>
	</g>
	<g>
		
			<line fill="none" stroke="#262626" stroke-linecap="square" stroke-linejoin="round" stroke-miterlimit="10" x1="436.462" y1="347.875" x2="436.462" y2="244.074"/>
		
			<line fill="none" stroke="#262626" stroke-linecap="square" stroke-linejoin="round" stroke-miterlimit="10" x1="540.262" y1="347.875" x2="540.262" y2="244.074"/>
	</g>
	<g transform="translate(202.0556,456.6761)">
		<text transform="matrix(1 0 0 1 224.8135 -113.7972)" fill="#262626" font-family="'ArialMT'" font-size="6">-15</text>
	</g>
	<g transform="translate(202.0556,386.4616)">
		<text transform="matrix(1 0 0 1 224.8135 -60.0358)" fill="#262626" font-family="'ArialMT'" font-size="6">-10</text>
	</g>
	<g transform="translate(202.0556,316.247)">
		<text transform="matrix(1 0 0 1 227.8585 -6.2744)" fill="#262626" font-family="'ArialMT'" font-size="6">-5</text>
	</g>
	<g transform="translate(202.0556,246.0325)">
		<text transform="matrix(1 0 0 1 229.5001 47.488)" fill="#262626" font-family="'ArialMT'" font-size="6">0</text>
	</g>
	<g transform="translate(202.0556,175.818)">
		<text transform="matrix(1 0 0 1 229.5001 101.2513)" fill="#262626" font-family="'ArialMT'" font-size="6">5</text>
	</g>
	<g transform="translate(202.0556,105.6034)">
		<text transform="matrix(1 0 0 1 226.4532 155.0148)" fill="#262626" font-family="'ArialMT'" font-size="6">10</text>
	</g>
	<g transform="translate(163.0972,263.4998) rotate(-90)">
		<text transform="matrix(1 0 0 1 -61.9748 260.9673)" fill="#262626" font-family="'ArialMT'" font-size="8">VS Response (β)</text>
	</g>
</g>
<image overflow="visible" width="394" height="381" xlink:href="CE1C8B14.jpg"  transform="matrix(0.2773 0 0 0.2773 300.1182 246.1626)">
</image>
<text transform="matrix(1 0 0 1 293.2817 236.0342)" font-family="'ArialMT'" font-size="10">A</text>
<text transform="matrix(1 0 0 1 410.4673 236.0342)" font-family="'ArialMT'" font-size="10">B</text>
<path opacity="0.8" fill="#FFFFFF" stroke="#CCCCCC" enable-background="new    " d="M499.551,245.633
	c-0.631,0-0.944,0.315-0.944,0.944v27.21c-0.001,0.627,0.313,0.942,1.932,0.942h38.522c-0.358,0-0.044-0.315-0.044-0.942v-27.21
	c0-0.628-0.314-0.944-0.945-0.944"/>
<g id="patch_14">
	<path fill="#3274A1" stroke="#000000" d="M500.967,258.203h8.984v-3.145h-8.984V258.203z"/>
</g>
<g id="patch_15">
	<path fill="#DF5420" stroke="#000000" d="M500.967,264.798h8.984v-3.146h-8.984V264.798z"/>
</g>
<g id="patch_16">
	<path fill="#DFC120" stroke="#000000" d="M500.967,271.393h8.984v-3.145h-8.984V271.393z"/>
</g>
<text transform="matrix(1 0 0 1 511.6865 251.7417)" font-family="'ArialMT'" font-size="6">Partner</text>
<text transform="matrix(1 0 0 1 512.2158 258.6812)" font-family="'ArialMT'" font-size="6">Friend</text>
<text transform="matrix(1 0 0 1 512.04 265.2671)" font-family="'ArialMT'" font-size="6">Stranger</text>
<text transform="matrix(1 0 0 1 511.6865 271.854)" font-family="'ArialMT'" font-size="6">Computer</text>
<text transform="matrix(1 0 0 1 453.8115 353.5146)"><tspan x="0" y="0" font-family="'ArialMT'" font-size="6">Win</tspan><tspan x="10.333" y="0" font-family="'ArialMT'" font-size="6" letter-spacing="7">	</tspan><tspan x="19.051" y="0" font-family="'ArialMT'" font-size="6" letter-spacing="17">		</tspan><tspan x="57.152" y="0" font-family="'ArialMT'" font-size="6">Loss</tspan></text>
<line fill="none" stroke="#CCCCCC" stroke-miterlimit="10" x1="358.695" y1="304.172" x2="379.598" y2="249.282"/>
<text transform="matrix(1 0 0 1 373.4507 247.4209)" font-family="'ArialMT'" font-size="8">Striatum</text>
<text transform="matrix(1 0 0 1 346.1694 353.5146)" font-family="'ArialMT'" font-size="8">Y = 12</text>
</svg>
